<?xml version="1.0" encoding="UTF-8" standalone="no"?>
<!DOCTYPE svg PUBLIC "-//W3C//DTD SVG 1.1//EN"
 "http://www.w3.org/Graphics/SVG/1.1/DTD/svg11.dtd">
<!-- Generated by graphviz version 2.43.0 (0)
 -->
<!-- Title: game.service.ServiceLocator Pages: 1 -->
<svg width="166pt" height="204pt"
 viewBox="0.00 0.00 166.00 204.00" xmlns="http://www.w3.org/2000/svg" xmlns:xlink="http://www.w3.org/1999/xlink">
<g id="graph0" class="graph" transform="scale(1 1) rotate(0) translate(4 200)">
<title>game.service.ServiceLocator</title>
<polygon fill="white" stroke="transparent" points="-4,4 -4,-200 162,-200 162,4 -4,4"/>
<!-- Node1 -->
<g id="node1" class="node">
<title>Node1</title>
<g id="a_node1"><a xlink:title=" ">
<polygon fill="#bfbfbf" stroke="black" points="0,-0.5 0,-79.5 158,-79.5 158,-0.5 0,-0.5"/>
<text text-anchor="middle" x="79" y="-67.5" font-family="Helvetica,sans-Serif" font-size="10.00">game.service.ServiceLocator</text>
<polyline fill="none" stroke="black" points="0,-60.5 158,-60.5 "/>
<text text-anchor="middle" x="79" y="-48.5" font-family="Helvetica,sans-Serif" font-size="10.00"> </text>
<polyline fill="none" stroke="black" points="0,-41.5 158,-41.5 "/>
<text text-anchor="start" x="8" y="-29.5" font-family="Helvetica,sans-Serif" font-size="10.00">+ ServiceLocator()</text>
<text text-anchor="start" x="8" y="-18.5" font-family="Helvetica,sans-Serif" font-size="10.00">+ GetService&lt; T &gt;()</text>
<text text-anchor="start" x="8" y="-7.5" font-family="Helvetica,sans-Serif" font-size="10.00">+ RegisterService&lt; T &gt;()</text>
</a>
</g>
</g>
<!-- Node2 -->
<g id="node2" class="node">
<title>Node2</title>
<g id="a_node2"><a xlink:title=" ">
<polygon fill="white" stroke="black" points="9.5,-127.5 9.5,-195.5 148.5,-195.5 148.5,-127.5 9.5,-127.5"/>
<text text-anchor="start" x="17.5" y="-183.5" font-family="Helvetica,sans-Serif" font-size="10.00">IDictionary&lt; object,</text>
<text text-anchor="middle" x="79" y="-172.5" font-family="Helvetica,sans-Serif" font-size="10.00"> game.service.IService &gt;</text>
<polyline fill="none" stroke="black" points="9.5,-165.5 148.5,-165.5 "/>
<text text-anchor="middle" x="79" y="-153.5" font-family="Helvetica,sans-Serif" font-size="10.00"> </text>
<polyline fill="none" stroke="black" points="9.5,-146.5 148.5,-146.5 "/>
<text text-anchor="middle" x="79" y="-134.5" font-family="Helvetica,sans-Serif" font-size="10.00"> </text>
</a>
</g>
</g>
<!-- Node2&#45;&gt;Node1 -->
<g id="edge1" class="edge">
<title>Node2&#45;&gt;Node1</title>
<path fill="none" stroke="#404040" d="M79,-127.21C79,-116.24 79,-103.78 79,-91.81"/>
<polygon fill="none" stroke="#404040" points="79,-91.6 75,-85.6 79,-79.6 83,-85.6 79,-91.6"/>
<text text-anchor="middle" x="103" y="-101" font-family="Helvetica,sans-Serif" font-size="10.00"> &#45;services</text>
</g>
</g>
</svg>
