<?xml version="1.0" encoding="UTF-8" standalone="no"?>
<!DOCTYPE svg PUBLIC "-//W3C//DTD SVG 1.1//EN"
 "http://www.w3.org/Graphics/SVG/1.1/DTD/svg11.dtd">
<!-- Generated by graphviz version 2.43.0 (0)
 -->
<!-- Title: GameRunner.Update Pages: 1 -->
<svg width="513pt" height="88pt"
 viewBox="0.00 0.00 513.00 88.00" xmlns="http://www.w3.org/2000/svg" xmlns:xlink="http://www.w3.org/1999/xlink">
<g id="graph0" class="graph" transform="scale(1 1) rotate(0) translate(4 84)">
<title>GameRunner.Update</title>
<polygon fill="white" stroke="transparent" points="-4,4 -4,-84 509,-84 509,4 -4,4"/>
<!-- Node1 -->
<g id="node1" class="node">
<title>Node1</title>
<g id="a_node1"><a xlink:title="Updates the state of the object by processing gravity and spawning tiles when a threshold is reached.">
<polygon fill="#bfbfbf" stroke="black" points="0,-30 0,-49 118,-49 118,-30 0,-30"/>
<text text-anchor="middle" x="59" y="-37" font-family="Helvetica,sans-Serif" font-size="10.00">GameRunner.Update</text>
</a>
</g>
</g>
<!-- Node2 -->
<g id="node2" class="node">
<title>Node2</title>
<g id="a_node2"><a xlink:href="$classgame_1_1logic_1_1EventQueue_1_1EventQueue.html#a47b03d45a78dd2897b1edffa85e3c1f0" xlink:title="Adds an event to the appropriate queue based on its identifier.">
<polygon fill="white" stroke="black" points="154,-49.5 154,-79.5 318,-79.5 318,-49.5 154,-49.5"/>
<text text-anchor="start" x="162" y="-67.5" font-family="Helvetica,sans-Serif" font-size="10.00">game.logic.EventQueue.Event</text>
<text text-anchor="middle" x="236" y="-56.5" font-family="Helvetica,sans-Serif" font-size="10.00">Queue.Enqueue</text>
</a>
</g>
</g>
<!-- Node1&#45;&gt;Node2 -->
<g id="edge1" class="edge">
<title>Node1&#45;&gt;Node2</title>
<path fill="none" stroke="midnightblue" d="M118.27,-47.82C126.49,-49 135.1,-50.23 143.75,-51.46"/>
<polygon fill="midnightblue" stroke="midnightblue" points="143.52,-54.97 153.92,-52.92 144.51,-48.04 143.52,-54.97"/>
</g>
<!-- Node3 -->
<g id="node3" class="node">
<title>Node3</title>
<g id="a_node3"><a xlink:href="$classgame_1_1logic_1_1tilespawner_1_1TileSpawnerService.html#a3a4da02acca59c7b4b180dd40867fca5" xlink:title="Spawns a new tile shape by shuffling the available pieces and returning the first piece.">
<polygon fill="white" stroke="black" points="160.5,-0.5 160.5,-30.5 311.5,-30.5 311.5,-0.5 160.5,-0.5"/>
<text text-anchor="start" x="168.5" y="-18.5" font-family="Helvetica,sans-Serif" font-size="10.00">game.logic.tilespawner.Tile</text>
<text text-anchor="middle" x="236" y="-7.5" font-family="Helvetica,sans-Serif" font-size="10.00">SpawnerService.Spawn</text>
</a>
</g>
</g>
<!-- Node1&#45;&gt;Node3 -->
<g id="edge2" class="edge">
<title>Node1&#45;&gt;Node3</title>
<path fill="none" stroke="midnightblue" d="M118.27,-31.51C128.63,-30.09 139.6,-28.58 150.5,-27.09"/>
<polygon fill="midnightblue" stroke="midnightblue" points="151.05,-30.55 160.48,-25.72 150.1,-23.61 151.05,-30.55"/>
</g>
<!-- Node4 -->
<g id="node4" class="node">
<title>Node4</title>
<g id="a_node4"><a xlink:href="$classgame_1_1logic_1_1tilespawner_1_1TileSpawnerService.html#ac73dbfd9e3daec4259be8d0c3c99dce2" xlink:title="Shuffles the elements of the collection randomly.">
<polygon fill="white" stroke="black" points="354,-0.5 354,-30.5 505,-30.5 505,-0.5 354,-0.5"/>
<text text-anchor="start" x="362" y="-18.5" font-family="Helvetica,sans-Serif" font-size="10.00">game.logic.tilespawner.Tile</text>
<text text-anchor="middle" x="429.5" y="-7.5" font-family="Helvetica,sans-Serif" font-size="10.00">SpawnerService.Shuffle</text>
</a>
</g>
</g>
<!-- Node3&#45;&gt;Node4 -->
<g id="edge3" class="edge">
<title>Node3&#45;&gt;Node4</title>
<path fill="none" stroke="midnightblue" d="M311.59,-15.5C322.09,-15.5 332.96,-15.5 343.64,-15.5"/>
<polygon fill="midnightblue" stroke="midnightblue" points="343.8,-19 353.8,-15.5 343.8,-12 343.8,-19"/>
</g>
</g>
</svg>
