<?xml version="1.0" encoding="UTF-8" standalone="no"?>
<!DOCTYPE svg PUBLIC "-//W3C//DTD SVG 1.1//EN"
 "http://www.w3.org/Graphics/SVG/1.1/DTD/svg11.dtd">
<!-- Generated by graphviz version 2.43.0 (0)
 -->
<!-- Title: network.HttpGetRequest Pages: 1 -->
<svg width="272pt" height="171pt"
 viewBox="0.00 0.00 271.50 171.00" xmlns="http://www.w3.org/2000/svg" xmlns:xlink="http://www.w3.org/1999/xlink">
<g id="graph0" class="graph" transform="scale(1 1) rotate(0) translate(4 167)">
<title>network.HttpGetRequest</title>
<polygon fill="white" stroke="transparent" points="-4,4 -4,-167 267.5,-167 267.5,4 -4,4"/>
<!-- Node1 -->
<g id="node1" class="node">
<title>Node1</title>
<g id="a_node1"><a xlink:title=" ">
<polygon fill="#bfbfbf" stroke="black" points="53,-0.5 53,-57.5 190,-57.5 190,-0.5 53,-0.5"/>
<text text-anchor="middle" x="121.5" y="-45.5" font-family="Helvetica,sans-Serif" font-size="10.00">network.HttpGetRequest</text>
<polyline fill="none" stroke="black" points="53,-38.5 190,-38.5 "/>
<text text-anchor="middle" x="121.5" y="-26.5" font-family="Helvetica,sans-Serif" font-size="10.00"> </text>
<polyline fill="none" stroke="black" points="53,-19.5 190,-19.5 "/>
<text text-anchor="start" x="61" y="-7.5" font-family="Helvetica,sans-Serif" font-size="10.00">+ ExecuteAsync()</text>
</a>
</g>
</g>
<!-- Node2 -->
<g id="node2" class="node">
<title>Node2</title>
<g id="a_node2"><a xlink:href="$interfacenetwork_1_1IHttpRequest.html" xlink:title=" ">
<polygon fill="white" stroke="black" points="0,-105.5 0,-162.5 103,-162.5 103,-105.5 0,-105.5"/>
<text text-anchor="middle" x="51.5" y="-150.5" font-family="Helvetica,sans-Serif" font-size="10.00">IHttpRequest</text>
<polyline fill="none" stroke="black" points="0,-143.5 103,-143.5 "/>
<text text-anchor="middle" x="51.5" y="-131.5" font-family="Helvetica,sans-Serif" font-size="10.00"> </text>
<polyline fill="none" stroke="black" points="0,-124.5 103,-124.5 "/>
<text text-anchor="start" x="8" y="-112.5" font-family="Helvetica,sans-Serif" font-size="10.00">+ ExecuteAsync()</text>
</a>
</g>
</g>
<!-- Node2&#45;&gt;Node1 -->
<g id="edge1" class="edge">
<title>Node2&#45;&gt;Node1</title>
<path fill="none" stroke="midnightblue" d="M76.12,-96.77C84.85,-83.93 94.52,-69.69 102.69,-57.68"/>
<polygon fill="none" stroke="midnightblue" points="72.98,-95.16 70.26,-105.4 78.77,-99.09 72.98,-95.16"/>
</g>
<!-- Node3 -->
<g id="node3" class="node">
<title>Node3</title>
<g id="a_node3"><a xlink:title=" ">
<polygon fill="white" stroke="black" points="121.5,-105.5 121.5,-162.5 263.5,-162.5 263.5,-105.5 121.5,-105.5"/>
<text text-anchor="middle" x="192.5" y="-150.5" font-family="Helvetica,sans-Serif" font-size="10.00">static readonly HttpClient</text>
<polyline fill="none" stroke="black" points="121.5,-143.5 263.5,-143.5 "/>
<text text-anchor="middle" x="192.5" y="-131.5" font-family="Helvetica,sans-Serif" font-size="10.00"> </text>
<polyline fill="none" stroke="black" points="121.5,-124.5 263.5,-124.5 "/>
<text text-anchor="middle" x="192.5" y="-112.5" font-family="Helvetica,sans-Serif" font-size="10.00"> </text>
</a>
</g>
</g>
<!-- Node3&#45;&gt;Node1 -->
<g id="edge2" class="edge">
<title>Node3&#45;&gt;Node1</title>
<path fill="none" stroke="#404040" d="M173.47,-105.4C165.51,-93.85 156.14,-80.25 147.55,-67.8"/>
<polygon fill="none" stroke="#404040" points="147.39,-67.56 140.69,-64.89 140.58,-57.68 147.28,-60.35 147.39,-67.56"/>
<text text-anchor="middle" x="176.5" y="-79" font-family="Helvetica,sans-Serif" font-size="10.00"> &#45;Client</text>
</g>
</g>
</svg>
