<?xml version="1.0" encoding="UTF-8" standalone="no"?>
<!DOCTYPE svg PUBLIC "-//W3C//DTD SVG 1.1//EN"
 "http://www.w3.org/Graphics/SVG/1.1/DTD/svg11.dtd">
<!-- Generated by graphviz version 2.43.0 (0)
 -->
<!-- Title: network.HttpPostRequest Pages: 1 -->
<svg width="258pt" height="193pt"
 viewBox="0.00 0.00 257.50 193.00" xmlns="http://www.w3.org/2000/svg" xmlns:xlink="http://www.w3.org/1999/xlink">
<g id="graph0" class="graph" transform="scale(1 1) rotate(0) translate(4 189)">
<title>network.HttpPostRequest</title>
<polygon fill="white" stroke="transparent" points="-4,4 -4,-189 253.5,-189 253.5,4 -4,4"/>
<!-- Node1 -->
<g id="node1" class="node">
<title>Node1</title>
<g id="a_node1"><a xlink:title=" ">
<polygon fill="#bfbfbf" stroke="black" points="84,-0.5 84,-79.5 225,-79.5 225,-0.5 84,-0.5"/>
<text text-anchor="middle" x="154.5" y="-67.5" font-family="Helvetica,sans-Serif" font-size="10.00">network.HttpPostRequest</text>
<polyline fill="none" stroke="black" points="84,-60.5 225,-60.5 "/>
<text text-anchor="middle" x="154.5" y="-48.5" font-family="Helvetica,sans-Serif" font-size="10.00"> </text>
<polyline fill="none" stroke="black" points="84,-41.5 225,-41.5 "/>
<text text-anchor="start" x="92" y="-29.5" font-family="Helvetica,sans-Serif" font-size="10.00">+ ExecuteAsync()</text>
<text text-anchor="start" x="92" y="-18.5" font-family="Helvetica,sans-Serif" font-size="10.00">+ SetData()</text>
<text text-anchor="start" x="92" y="-7.5" font-family="Helvetica,sans-Serif" font-size="10.00">+ SetClient()</text>
</a>
</g>
</g>
<!-- Node2 -->
<g id="node2" class="node">
<title>Node2</title>
<g id="a_node2"><a xlink:href="$interfacenetwork_1_1IHttpRequest.html" xlink:title=" ">
<polygon fill="white" stroke="black" points="0,-127.5 0,-184.5 103,-184.5 103,-127.5 0,-127.5"/>
<text text-anchor="middle" x="51.5" y="-172.5" font-family="Helvetica,sans-Serif" font-size="10.00">IHttpRequest</text>
<polyline fill="none" stroke="black" points="0,-165.5 103,-165.5 "/>
<text text-anchor="middle" x="51.5" y="-153.5" font-family="Helvetica,sans-Serif" font-size="10.00"> </text>
<polyline fill="none" stroke="black" points="0,-146.5 103,-146.5 "/>
<text text-anchor="start" x="8" y="-134.5" font-family="Helvetica,sans-Serif" font-size="10.00">+ ExecuteAsync()</text>
</a>
</g>
</g>
<!-- Node2&#45;&gt;Node1 -->
<g id="edge1" class="edge">
<title>Node2&#45;&gt;Node1</title>
<path fill="none" stroke="midnightblue" d="M83.38,-119.72C94.88,-106.98 107.93,-92.54 119.68,-79.54"/>
<polygon fill="none" stroke="midnightblue" points="80.54,-117.64 76.43,-127.4 85.73,-122.33 80.54,-117.64"/>
</g>
<!-- Node3 -->
<g id="node3" class="node">
<title>Node3</title>
<g id="a_node3"><a xlink:title=" ">
<polygon fill="white" stroke="black" points="121.5,-127.5 121.5,-184.5 187.5,-184.5 187.5,-127.5 121.5,-127.5"/>
<text text-anchor="middle" x="154.5" y="-172.5" font-family="Helvetica,sans-Serif" font-size="10.00">HttpClient</text>
<polyline fill="none" stroke="black" points="121.5,-165.5 187.5,-165.5 "/>
<text text-anchor="middle" x="154.5" y="-153.5" font-family="Helvetica,sans-Serif" font-size="10.00"> </text>
<polyline fill="none" stroke="black" points="121.5,-146.5 187.5,-146.5 "/>
<text text-anchor="middle" x="154.5" y="-134.5" font-family="Helvetica,sans-Serif" font-size="10.00"> </text>
</a>
</g>
</g>
<!-- Node3&#45;&gt;Node1 -->
<g id="edge2" class="edge">
<title>Node3&#45;&gt;Node1</title>
<path fill="none" stroke="#404040" d="M154.5,-127.4C154.5,-116.63 154.5,-103.93 154.5,-91.62"/>
<polygon fill="none" stroke="#404040" points="154.5,-91.54 150.5,-85.54 154.5,-79.54 158.5,-85.54 154.5,-91.54"/>
<text text-anchor="middle" x="174.5" y="-101" font-family="Helvetica,sans-Serif" font-size="10.00"> &#45;_client</text>
</g>
<!-- Node4 -->
<g id="node4" class="node">
<title>Node4</title>
<g id="a_node4"><a xlink:title=" ">
<polygon fill="white" stroke="black" points="205.5,-127.5 205.5,-184.5 249.5,-184.5 249.5,-127.5 205.5,-127.5"/>
<text text-anchor="middle" x="227.5" y="-172.5" font-family="Helvetica,sans-Serif" font-size="10.00">string</text>
<polyline fill="none" stroke="black" points="205.5,-165.5 249.5,-165.5 "/>
<text text-anchor="middle" x="227.5" y="-153.5" font-family="Helvetica,sans-Serif" font-size="10.00"> </text>
<polyline fill="none" stroke="black" points="205.5,-146.5 249.5,-146.5 "/>
<text text-anchor="middle" x="227.5" y="-134.5" font-family="Helvetica,sans-Serif" font-size="10.00"> </text>
</a>
</g>
</g>
<!-- Node4&#45;&gt;Node1 -->
<g id="edge3" class="edge">
<title>Node4&#45;&gt;Node1</title>
<path fill="none" stroke="#404040" d="M214.79,-127.46C210.04,-117.92 204.38,-107.29 198.5,-98 196.68,-95.13 194.76,-92.22 192.76,-89.32"/>
<polygon fill="none" stroke="#404040" points="192.76,-89.32 186.02,-86.76 185.79,-79.55 192.53,-82.11 192.76,-89.32"/>
<text text-anchor="middle" x="221.5" y="-101" font-family="Helvetica,sans-Serif" font-size="10.00"> &#45;_data</text>
</g>
</g>
</svg>
