<?xml version="1.0" encoding="UTF-8" standalone="no"?>
<!DOCTYPE svg PUBLIC "-//W3C//DTD SVG 1.1//EN"
 "http://www.w3.org/Graphics/SVG/1.1/DTD/svg11.dtd">
<!-- Generated by graphviz version 2.43.0 (0)
 -->
<!-- Title: game.logic.GravityService Pages: 1 -->
<svg width="370pt" height="288pt"
 viewBox="0.00 0.00 369.50 288.00" xmlns="http://www.w3.org/2000/svg" xmlns:xlink="http://www.w3.org/1999/xlink">
<g id="graph0" class="graph" transform="scale(1 1) rotate(0) translate(4 284)">
<title>game.logic.GravityService</title>
<polygon fill="white" stroke="transparent" points="-4,4 -4,-284 365.5,-284 365.5,4 -4,4"/>
<!-- Node1 -->
<g id="node1" class="node">
<title>Node1</title>
<g id="a_node1"><a xlink:title=" ">
<polygon fill="#bfbfbf" stroke="black" points="66.5,-0.5 66.5,-68.5 212.5,-68.5 212.5,-0.5 66.5,-0.5"/>
<text text-anchor="middle" x="139.5" y="-56.5" font-family="Helvetica,sans-Serif" font-size="10.00">game.logic.GravityService</text>
<polyline fill="none" stroke="black" points="66.5,-49.5 212.5,-49.5 "/>
<text text-anchor="start" x="74.5" y="-37.5" font-family="Helvetica,sans-Serif" font-size="10.00">+ CurrentGravity</text>
<polyline fill="none" stroke="black" points="66.5,-30.5 212.5,-30.5 "/>
<text text-anchor="start" x="74.5" y="-18.5" font-family="Helvetica,sans-Serif" font-size="10.00">+ GravityService()</text>
<text text-anchor="start" x="74.5" y="-7.5" font-family="Helvetica,sans-Serif" font-size="10.00">+ Update()</text>
</a>
</g>
</g>
<!-- Node2 -->
<g id="node2" class="node">
<title>Node2</title>
<g id="a_node2"><a xlink:href="$interfacegamerunner_1_1IUpdatable.html" xlink:title=" ">
<polygon fill="white" stroke="black" points="0,-122 0,-179 71,-179 71,-122 0,-122"/>
<text text-anchor="middle" x="35.5" y="-167" font-family="Helvetica,sans-Serif" font-size="10.00">IUpdatable</text>
<polyline fill="none" stroke="black" points="0,-160 71,-160 "/>
<text text-anchor="middle" x="35.5" y="-148" font-family="Helvetica,sans-Serif" font-size="10.00"> </text>
<polyline fill="none" stroke="black" points="0,-141 71,-141 "/>
<text text-anchor="start" x="8" y="-129" font-family="Helvetica,sans-Serif" font-size="10.00">+ Update()</text>
</a>
</g>
</g>
<!-- Node2&#45;&gt;Node1 -->
<g id="edge1" class="edge">
<title>Node2&#45;&gt;Node1</title>
<path fill="none" stroke="midnightblue" d="M67.44,-114.49C80.79,-99.85 96.23,-82.94 109.38,-68.52"/>
<polygon fill="none" stroke="midnightblue" points="64.83,-112.16 60.68,-121.9 70,-116.87 64.83,-112.16"/>
</g>
<!-- Node3 -->
<g id="node3" class="node">
<title>Node3</title>
<g id="a_node3"><a xlink:href="$interfacegame_1_1logic_1_1IGravityService.html" xlink:title=" ">
<polygon fill="white" stroke="black" points="89.5,-122 89.5,-179 189.5,-179 189.5,-122 89.5,-122"/>
<text text-anchor="middle" x="139.5" y="-167" font-family="Helvetica,sans-Serif" font-size="10.00">IGravityService</text>
<polyline fill="none" stroke="black" points="89.5,-160 189.5,-160 "/>
<text text-anchor="start" x="97.5" y="-148" font-family="Helvetica,sans-Serif" font-size="10.00">+ CurrentGravity</text>
<polyline fill="none" stroke="black" points="89.5,-141 189.5,-141 "/>
<text text-anchor="middle" x="139.5" y="-129" font-family="Helvetica,sans-Serif" font-size="10.00"> </text>
</a>
</g>
</g>
<!-- Node3&#45;&gt;Node1 -->
<g id="edge2" class="edge">
<title>Node3&#45;&gt;Node1</title>
<path fill="none" stroke="midnightblue" d="M139.5,-111.64C139.5,-97.69 139.5,-82.01 139.5,-68.52"/>
<polygon fill="none" stroke="midnightblue" points="136,-111.9 139.5,-121.9 143,-111.9 136,-111.9"/>
</g>
<!-- Node4 -->
<g id="node4" class="node">
<title>Node4</title>
<g id="a_node4"><a xlink:href="$interfacegame_1_1service_1_1IService.html" xlink:title=" ">
<polygon fill="white" stroke="black" points="111.5,-222.5 111.5,-279.5 167.5,-279.5 167.5,-222.5 111.5,-222.5"/>
<text text-anchor="middle" x="139.5" y="-267.5" font-family="Helvetica,sans-Serif" font-size="10.00">IService</text>
<polyline fill="none" stroke="black" points="111.5,-260.5 167.5,-260.5 "/>
<text text-anchor="middle" x="139.5" y="-248.5" font-family="Helvetica,sans-Serif" font-size="10.00"> </text>
<polyline fill="none" stroke="black" points="111.5,-241.5 167.5,-241.5 "/>
<text text-anchor="middle" x="139.5" y="-229.5" font-family="Helvetica,sans-Serif" font-size="10.00"> </text>
</a>
</g>
</g>
<!-- Node4&#45;&gt;Node3 -->
<g id="edge3" class="edge">
<title>Node4&#45;&gt;Node3</title>
<path fill="none" stroke="midnightblue" d="M139.5,-212.15C139.5,-201.23 139.5,-189.52 139.5,-179.33"/>
<polygon fill="none" stroke="midnightblue" points="136,-212.3 139.5,-222.3 143,-212.3 136,-212.3"/>
</g>
<!-- Node5 -->
<g id="node5" class="node">
<title>Node5</title>
<g id="a_node5"><a xlink:href="$interfacegame_1_1logic_1_1IGravityStrategy.html" xlink:title=" ">
<polygon fill="white" stroke="black" points="207.5,-116.5 207.5,-184.5 361.5,-184.5 361.5,-116.5 207.5,-116.5"/>
<text text-anchor="middle" x="284.5" y="-172.5" font-family="Helvetica,sans-Serif" font-size="10.00">game.logic.IGravityStrategy</text>
<polyline fill="none" stroke="black" points="207.5,-165.5 361.5,-165.5 "/>
<text text-anchor="start" x="215.5" y="-153.5" font-family="Helvetica,sans-Serif" font-size="10.00">+ CurrentGravity</text>
<text text-anchor="start" x="215.5" y="-142.5" font-family="Helvetica,sans-Serif" font-size="10.00">+ Gravity</text>
<polyline fill="none" stroke="black" points="207.5,-135.5 361.5,-135.5 "/>
<text text-anchor="middle" x="284.5" y="-123.5" font-family="Helvetica,sans-Serif" font-size="10.00"> </text>
</a>
</g>
</g>
<!-- Node5&#45;&gt;Node1 -->
<g id="edge4" class="edge">
<title>Node5&#45;&gt;Node1</title>
<path fill="none" stroke="#404040" d="M242.17,-116.22C226.24,-103.69 207.94,-89.31 191.25,-76.18"/>
<polygon fill="none" stroke="#404040" points="191.07,-76.04 183.88,-75.48 181.63,-68.62 188.82,-69.19 191.07,-76.04"/>
<text text-anchor="middle" x="260.5" y="-90" font-family="Helvetica,sans-Serif" font-size="10.00"> &#45;_gravityStrategy</text>
</g>
</g>
</svg>
