<?xml version="1.0" encoding="UTF-8" standalone="no"?>
<!DOCTYPE svg PUBLIC "-//W3C//DTD SVG 1.1//EN"
 "http://www.w3.org/Graphics/SVG/1.1/DTD/svg11.dtd">
<!-- Generated by graphviz version 2.43.0 (0)
 -->
<!-- Title: /tmp/github_repos_arch_doc_gen/SingularityX&#45;ai/falling&#45;blocks/unity/four&#45;block/Assets/game/logic Pages: 1 -->
<svg width="446pt" height="111pt"
 viewBox="0.00 0.00 446.00 111.00" xmlns="http://www.w3.org/2000/svg" xmlns:xlink="http://www.w3.org/1999/xlink">
<g id="graph0" class="graph" transform="scale(1 1) rotate(0) translate(4 107)">
<title>/tmp/github_repos_arch_doc_gen/SingularityX&#45;ai/falling&#45;blocks/unity/four&#45;block/Assets/game/logic</title>
<polygon fill="white" stroke="transparent" points="-4,4 -4,-107 442,-107 442,4 -4,4"/>
<g id="clust1" class="cluster">
<title>clusterdir_6c6b96dd88403d3a294dd8a6526cb508</title>
<g id="a_clust1"><a xlink:href="dir_6c6b96dd88403d3a294dd8a6526cb508.html" xlink:title="game">
<polygon fill="#edf0f7" stroke="#7f7f7f" stroke-dasharray="5,2" points="8,-8 8,-95 430,-95 430,-8 8,-8"/>
<text text-anchor="middle" x="219" y="-83" font-family="Helvetica,sans-Serif" font-size="10.00">game</text>
</a>
</g>
</g>
<g id="clust2" class="cluster">
<title>clusterdir_fbb7d9cfd9822824f6c1c3b088890308</title>
<g id="a_clust2"><a xlink:href="dir_fbb7d9cfd9822824f6c1c3b088890308.html">
<polygon fill="#edf0f7" stroke="#404040" stroke-width="2" points="16,-16 16,-68 422,-68 422,-16 16,-16"/>
</a>
</g>
</g>
<!-- dir_fbb7d9cfd9822824f6c1c3b088890308 -->
<g id="node1" class="node">
<title>dir_fbb7d9cfd9822824f6c1c3b088890308</title>
<text text-anchor="middle" x="387" y="-39.5" font-family="Helvetica,sans-Serif" font-size="10.00">logic</text>
</g>
<!-- dir_14c15a176da523ab9156642fa335aac3 -->
<g id="node2" class="node">
<title>dir_14c15a176da523ab9156642fa335aac3</title>
<g id="a_node2"><a xlink:href="dir_14c15a176da523ab9156642fa335aac3.html" xlink:title="EventQueue">
<polygon fill="#a2b4d6" stroke="#404040" points="342,-60 266,-60 266,-24 342,-24 342,-60"/>
<text text-anchor="middle" x="304" y="-39.5" font-family="Helvetica,sans-Serif" font-size="10.00">EventQueue</text>
</a>
</g>
</g>
<!-- dir_40e79d3bfe8ec0a32243c6cac7b06aa7 -->
<g id="node3" class="node">
<title>dir_40e79d3bfe8ec0a32243c6cac7b06aa7</title>
<g id="a_node3"><a xlink:href="dir_40e79d3bfe8ec0a32243c6cac7b06aa7.html" xlink:title="playfield">
<polygon fill="#a2b4d6" stroke="#404040" points="247.5,-60 188.5,-60 188.5,-24 247.5,-24 247.5,-60"/>
<text text-anchor="middle" x="218" y="-39.5" font-family="Helvetica,sans-Serif" font-size="10.00">playfield</text>
</a>
</g>
</g>
<!-- dir_3bae640fe08e07f822f4abbf4e309b2d -->
<g id="node4" class="node">
<title>dir_3bae640fe08e07f822f4abbf4e309b2d</title>
<g id="a_node4"><a xlink:href="dir_3bae640fe08e07f822f4abbf4e309b2d.html" xlink:title="tile">
<polygon fill="#a2b4d6" stroke="#404040" points="170,-60 116,-60 116,-24 170,-24 170,-60"/>
<text text-anchor="middle" x="143" y="-39.5" font-family="Helvetica,sans-Serif" font-size="10.00">tile</text>
</a>
</g>
</g>
<!-- dir_721b043b1284adeff4fd34e5e088f9d6 -->
<g id="node5" class="node">
<title>dir_721b043b1284adeff4fd34e5e088f9d6</title>
<g id="a_node5"><a xlink:href="dir_721b043b1284adeff4fd34e5e088f9d6.html" xlink:title="tilespawner">
<polygon fill="#a2b4d6" stroke="#404040" points="98,-60 24,-60 24,-24 98,-24 98,-60"/>
<text text-anchor="middle" x="61" y="-39.5" font-family="Helvetica,sans-Serif" font-size="10.00">tilespawner</text>
</a>
</g>
</g>
</g>
</svg>
