<?xml version="1.0" encoding="UTF-8" standalone="no"?>
<!DOCTYPE svg PUBLIC "-//W3C//DTD SVG 1.1//EN"
 "http://www.w3.org/Graphics/SVG/1.1/DTD/svg11.dtd">
<!-- Generated by graphviz version 2.43.0 (0)
 -->
<!-- Title: gamerunner.IUpdatable Pages: 1 -->
<svg width="620pt" height="248pt"
 viewBox="0.00 0.00 620.00 248.00" xmlns="http://www.w3.org/2000/svg" xmlns:xlink="http://www.w3.org/1999/xlink">
<g id="graph0" class="graph" transform="scale(1 1) rotate(0) translate(4 244)">
<title>gamerunner.IUpdatable</title>
<polygon fill="white" stroke="transparent" points="-4,4 -4,-244 616,-244 616,4 -4,4"/>
<!-- Node1 -->
<g id="node1" class="node">
<title>Node1</title>
<g id="a_node1"><a xlink:title=" ">
<polygon fill="#bfbfbf" stroke="black" points="219.5,-182.5 219.5,-239.5 350.5,-239.5 350.5,-182.5 219.5,-182.5"/>
<text text-anchor="middle" x="285" y="-227.5" font-family="Helvetica,sans-Serif" font-size="10.00">gamerunner.IUpdatable</text>
<polyline fill="none" stroke="black" points="219.5,-220.5 350.5,-220.5 "/>
<text text-anchor="middle" x="285" y="-208.5" font-family="Helvetica,sans-Serif" font-size="10.00"> </text>
<polyline fill="none" stroke="black" points="219.5,-201.5 350.5,-201.5 "/>
<text text-anchor="start" x="227.5" y="-189.5" font-family="Helvetica,sans-Serif" font-size="10.00">+ Update()</text>
</a>
</g>
</g>
<!-- Node2 -->
<g id="node2" class="node">
<title>Node2</title>
<g id="a_node2"><a xlink:href="$classGameRunner.html" xlink:title=" ">
<polygon fill="white" stroke="black" points="0,-22.5 0,-123.5 108,-123.5 108,-22.5 0,-22.5"/>
<text text-anchor="middle" x="54" y="-111.5" font-family="Helvetica,sans-Serif" font-size="10.00">GameRunner</text>
<polyline fill="none" stroke="black" points="0,-104.5 108,-104.5 "/>
<text text-anchor="start" x="8" y="-92.5" font-family="Helvetica,sans-Serif" font-size="10.00">+ CreateTileShape</text>
<text text-anchor="start" x="8" y="-81.5" font-family="Helvetica,sans-Serif" font-size="10.00">&#45; _serviceLocator</text>
<text text-anchor="start" x="8" y="-70.5" font-family="Helvetica,sans-Serif" font-size="10.00">&#45; _gravitySum</text>
<text text-anchor="start" x="8" y="-59.5" font-family="Helvetica,sans-Serif" font-size="10.00">&#45; frames</text>
<polyline fill="none" stroke="black" points="0,-52.5 108,-52.5 "/>
<text text-anchor="start" x="8" y="-40.5" font-family="Helvetica,sans-Serif" font-size="10.00">+ GameRunner()</text>
<text text-anchor="start" x="8" y="-29.5" font-family="Helvetica,sans-Serif" font-size="10.00">+ Update()</text>
</a>
</g>
</g>
<!-- Node1&#45;&gt;Node2 -->
<g id="edge1" class="edge">
<title>Node1&#45;&gt;Node2</title>
<path fill="none" stroke="midnightblue" d="M209.45,-189.95C179.07,-179.73 144.74,-165.3 117,-146 108,-139.74 99.46,-131.92 91.73,-123.76"/>
<polygon fill="none" stroke="midnightblue" points="208.57,-193.34 219.16,-193.12 210.74,-186.69 208.57,-193.34"/>
</g>
<!-- Node3 -->
<g id="node3" class="node">
<title>Node3</title>
<g id="a_node3"><a xlink:href="$classgame_1_1logic_1_1GravityService.html" xlink:title=" ">
<polygon fill="white" stroke="black" points="126,-33.5 126,-112.5 272,-112.5 272,-33.5 126,-33.5"/>
<text text-anchor="middle" x="199" y="-100.5" font-family="Helvetica,sans-Serif" font-size="10.00">game.logic.GravityService</text>
<polyline fill="none" stroke="black" points="126,-93.5 272,-93.5 "/>
<text text-anchor="start" x="134" y="-81.5" font-family="Helvetica,sans-Serif" font-size="10.00">+ CurrentGravity</text>
<text text-anchor="start" x="134" y="-70.5" font-family="Helvetica,sans-Serif" font-size="10.00">&#45; _gravityStrategy</text>
<polyline fill="none" stroke="black" points="126,-63.5 272,-63.5 "/>
<text text-anchor="start" x="134" y="-51.5" font-family="Helvetica,sans-Serif" font-size="10.00">+ GravityService()</text>
<text text-anchor="start" x="134" y="-40.5" font-family="Helvetica,sans-Serif" font-size="10.00">+ Update()</text>
</a>
</g>
</g>
<!-- Node1&#45;&gt;Node3 -->
<g id="edge2" class="edge">
<title>Node1&#45;&gt;Node3</title>
<path fill="none" stroke="midnightblue" d="M262.14,-173.85C250.19,-154.95 235.55,-131.8 223.38,-112.56"/>
<polygon fill="none" stroke="midnightblue" points="259.29,-175.9 267.6,-182.48 265.21,-172.16 259.29,-175.9"/>
</g>
<!-- Node4 -->
<g id="node4" class="node">
<title>Node4</title>
<g id="a_node4"><a xlink:href="$classgame_1_1logic_1_1TimeBasedGravityStrategy.html" xlink:title=" ">
<polygon fill="white" stroke="black" points="290,-11.5 290,-134.5 454,-134.5 454,-11.5 290,-11.5"/>
<text text-anchor="start" x="298" y="-122.5" font-family="Helvetica,sans-Serif" font-size="10.00">game.logic.TimeBasedGravity</text>
<text text-anchor="middle" x="372" y="-111.5" font-family="Helvetica,sans-Serif" font-size="10.00">Strategy</text>
<polyline fill="none" stroke="black" points="290,-104.5 454,-104.5 "/>
<text text-anchor="start" x="298" y="-92.5" font-family="Helvetica,sans-Serif" font-size="10.00">+ CurrentGravity</text>
<text text-anchor="start" x="298" y="-81.5" font-family="Helvetica,sans-Serif" font-size="10.00">+ Gravity</text>
<text text-anchor="start" x="298" y="-70.5" font-family="Helvetica,sans-Serif" font-size="10.00">&#45; _gravityBase</text>
<text text-anchor="start" x="298" y="-59.5" font-family="Helvetica,sans-Serif" font-size="10.00">&#45; _gravityScale</text>
<text text-anchor="start" x="298" y="-48.5" font-family="Helvetica,sans-Serif" font-size="10.00">&#45; _gravityIncreasePerSecond</text>
<polyline fill="none" stroke="black" points="290,-41.5 454,-41.5 "/>
<text text-anchor="start" x="298" y="-29.5" font-family="Helvetica,sans-Serif" font-size="10.00">+ Update()</text>
<text text-anchor="start" x="298" y="-18.5" font-family="Helvetica,sans-Serif" font-size="10.00">+ setGravityScale()</text>
</a>
</g>
</g>
<!-- Node1&#45;&gt;Node4 -->
<g id="edge3" class="edge">
<title>Node1&#45;&gt;Node4</title>
<path fill="none" stroke="midnightblue" d="M308.02,-174.01C315.76,-161.92 324.61,-148.08 333.22,-134.62"/>
<polygon fill="none" stroke="midnightblue" points="305.05,-172.17 302.61,-182.48 310.94,-175.94 305.05,-172.17"/>
</g>
<!-- Node5 -->
<g id="node5" class="node">
<title>Node5</title>
<g id="a_node5"><a xlink:href="$classgame_1_1logic_1_1playfield_1_1PlayFieldViewModel.html" xlink:title=" ">
<polygon fill="white" stroke="black" points="472,-0.5 472,-145.5 612,-145.5 612,-0.5 472,-0.5"/>
<text text-anchor="start" x="480" y="-133.5" font-family="Helvetica,sans-Serif" font-size="10.00">game.logic.playfield.Play</text>
<text text-anchor="middle" x="542" y="-122.5" font-family="Helvetica,sans-Serif" font-size="10.00">FieldViewModel</text>
<polyline fill="none" stroke="black" points="472,-115.5 612,-115.5 "/>
<text text-anchor="start" x="480" y="-103.5" font-family="Helvetica,sans-Serif" font-size="10.00">+ Width</text>
<text text-anchor="start" x="480" y="-92.5" font-family="Helvetica,sans-Serif" font-size="10.00">+ Height</text>
<text text-anchor="start" x="480" y="-81.5" font-family="Helvetica,sans-Serif" font-size="10.00">+ Tiles</text>
<text text-anchor="start" x="480" y="-70.5" font-family="Helvetica,sans-Serif" font-size="10.00">&#45; _playField</text>
<text text-anchor="start" x="480" y="-59.5" font-family="Helvetica,sans-Serif" font-size="10.00">&#45; _serviceLocator</text>
<polyline fill="none" stroke="black" points="472,-52.5 612,-52.5 "/>
<text text-anchor="start" x="480" y="-40.5" font-family="Helvetica,sans-Serif" font-size="10.00">+ PlayFieldViewModel()</text>
<text text-anchor="start" x="480" y="-29.5" font-family="Helvetica,sans-Serif" font-size="10.00">+ GetTile()</text>
<text text-anchor="start" x="480" y="-18.5" font-family="Helvetica,sans-Serif" font-size="10.00">+ PlaceTile()</text>
<text text-anchor="start" x="480" y="-7.5" font-family="Helvetica,sans-Serif" font-size="10.00">+ Update()</text>
</a>
</g>
</g>
<!-- Node1&#45;&gt;Node5 -->
<g id="edge4" class="edge">
<title>Node1&#45;&gt;Node5</title>
<path fill="none" stroke="midnightblue" d="M360.34,-190.16C393.21,-179.7 431.38,-165.05 463,-146 465.86,-144.28 468.71,-142.44 471.54,-140.51"/>
<polygon fill="none" stroke="midnightblue" points="359.28,-186.82 350.77,-193.13 361.36,-193.51 359.28,-186.82"/>
</g>
</g>
</svg>
