<?xml version="1.0" encoding="UTF-8" standalone="no"?>
<!DOCTYPE svg PUBLIC "-//W3C//DTD SVG 1.1//EN"
 "http://www.w3.org/Graphics/SVG/1.1/DTD/svg11.dtd">
<!-- Generated by graphviz version 2.43.0 (0)
 -->
<!-- Title: game.logic.GravityService Pages: 1 -->
<svg width="198pt" height="276pt"
 viewBox="0.00 0.00 197.50 276.00" xmlns="http://www.w3.org/2000/svg" xmlns:xlink="http://www.w3.org/1999/xlink">
<g id="graph0" class="graph" transform="scale(1 1) rotate(0) translate(4 272)">
<title>game.logic.GravityService</title>
<polygon fill="white" stroke="transparent" points="-4,4 -4,-272 193.5,-272 193.5,4 -4,4"/>
<!-- Node1 -->
<g id="node1" class="node">
<title>Node1</title>
<g id="a_node1"><a xlink:title=" ">
<polygon fill="#bfbfbf" stroke="black" points="14.5,-0.5 14.5,-79.5 160.5,-79.5 160.5,-0.5 14.5,-0.5"/>
<text text-anchor="middle" x="87.5" y="-67.5" font-family="Helvetica,sans-Serif" font-size="10.00">game.logic.GravityService</text>
<polyline fill="none" stroke="black" points="14.5,-60.5 160.5,-60.5 "/>
<text text-anchor="start" x="22.5" y="-48.5" font-family="Helvetica,sans-Serif" font-size="10.00">+ CurrentGravity</text>
<text text-anchor="start" x="22.5" y="-37.5" font-family="Helvetica,sans-Serif" font-size="10.00">&#45; _gravityStrategy</text>
<polyline fill="none" stroke="black" points="14.5,-30.5 160.5,-30.5 "/>
<text text-anchor="start" x="22.5" y="-18.5" font-family="Helvetica,sans-Serif" font-size="10.00">+ GravityService()</text>
<text text-anchor="start" x="22.5" y="-7.5" font-family="Helvetica,sans-Serif" font-size="10.00">+ Update()</text>
</a>
</g>
</g>
<!-- Node2 -->
<g id="node2" class="node">
<title>Node2</title>
<g id="a_node2"><a xlink:href="interfacegamerunner_1_1IUpdatable.html" target="_top" xlink:title=" ">
<polygon fill="white" stroke="black" points="0,-116.5 0,-173.5 71,-173.5 71,-116.5 0,-116.5"/>
<text text-anchor="middle" x="35.5" y="-161.5" font-family="Helvetica,sans-Serif" font-size="10.00">IUpdatable</text>
<polyline fill="none" stroke="black" points="0,-154.5 71,-154.5 "/>
<text text-anchor="middle" x="35.5" y="-142.5" font-family="Helvetica,sans-Serif" font-size="10.00"> </text>
<polyline fill="none" stroke="black" points="0,-135.5 71,-135.5 "/>
<text text-anchor="start" x="8" y="-123.5" font-family="Helvetica,sans-Serif" font-size="10.00">+ Update()</text>
</a>
</g>
</g>
<!-- Node2&#45;&gt;Node1 -->
<g id="edge1" class="edge">
<title>Node2&#45;&gt;Node1</title>
<path fill="none" stroke="midnightblue" d="M54.03,-107.3C58.58,-98.29 63.46,-88.61 68.05,-79.52"/>
<polygon fill="none" stroke="midnightblue" points="50.82,-105.89 49.44,-116.4 57.07,-109.05 50.82,-105.89"/>
</g>
<!-- Node3 -->
<g id="node3" class="node">
<title>Node3</title>
<g id="a_node3"><a xlink:href="interfacegame_1_1logic_1_1IGravityService.html" target="_top" xlink:title=" ">
<polygon fill="white" stroke="black" points="89.5,-116.5 89.5,-173.5 189.5,-173.5 189.5,-116.5 89.5,-116.5"/>
<text text-anchor="middle" x="139.5" y="-161.5" font-family="Helvetica,sans-Serif" font-size="10.00">IGravityService</text>
<polyline fill="none" stroke="black" points="89.5,-154.5 189.5,-154.5 "/>
<text text-anchor="start" x="97.5" y="-142.5" font-family="Helvetica,sans-Serif" font-size="10.00">+ CurrentGravity</text>
<polyline fill="none" stroke="black" points="89.5,-135.5 189.5,-135.5 "/>
<text text-anchor="middle" x="139.5" y="-123.5" font-family="Helvetica,sans-Serif" font-size="10.00"> </text>
</a>
</g>
</g>
<!-- Node3&#45;&gt;Node1 -->
<g id="edge2" class="edge">
<title>Node3&#45;&gt;Node1</title>
<path fill="none" stroke="midnightblue" d="M120.97,-107.3C116.42,-98.29 111.54,-88.61 106.95,-79.52"/>
<polygon fill="none" stroke="midnightblue" points="117.93,-109.05 125.56,-116.4 124.18,-105.89 117.93,-109.05"/>
</g>
<!-- Node4 -->
<g id="node4" class="node">
<title>Node4</title>
<g id="a_node4"><a xlink:href="interfacegame_1_1service_1_1IService.html" target="_top" xlink:title=" ">
<polygon fill="white" stroke="black" points="111.5,-210.5 111.5,-267.5 167.5,-267.5 167.5,-210.5 111.5,-210.5"/>
<text text-anchor="middle" x="139.5" y="-255.5" font-family="Helvetica,sans-Serif" font-size="10.00">IService</text>
<polyline fill="none" stroke="black" points="111.5,-248.5 167.5,-248.5 "/>
<text text-anchor="middle" x="139.5" y="-236.5" font-family="Helvetica,sans-Serif" font-size="10.00"> </text>
<polyline fill="none" stroke="black" points="111.5,-229.5 167.5,-229.5 "/>
<text text-anchor="middle" x="139.5" y="-217.5" font-family="Helvetica,sans-Serif" font-size="10.00"> </text>
</a>
</g>
</g>
<!-- Node4&#45;&gt;Node3 -->
<g id="edge3" class="edge">
<title>Node4&#45;&gt;Node3</title>
<path fill="none" stroke="midnightblue" d="M139.5,-200.21C139.5,-191.29 139.5,-181.95 139.5,-173.58"/>
<polygon fill="none" stroke="midnightblue" points="136,-200.4 139.5,-210.4 143,-200.4 136,-200.4"/>
</g>
</g>
</svg>
