<?xml version="1.0" encoding="UTF-8" standalone="no"?>
<!DOCTYPE svg PUBLIC "-//W3C//DTD SVG 1.1//EN"
 "http://www.w3.org/Graphics/SVG/1.1/DTD/svg11.dtd">
<!-- Generated by graphviz version 2.43.0 (0)
 -->
<!-- Title: game.logic.playfield.PlayField Pages: 1 -->
<svg width="195pt" height="204pt"
 viewBox="0.00 0.00 195.00 204.00" xmlns="http://www.w3.org/2000/svg" xmlns:xlink="http://www.w3.org/1999/xlink">
<g id="graph0" class="graph" transform="scale(1 1) rotate(0) translate(4 200)">
<title>game.logic.playfield.PlayField</title>
<polygon fill="white" stroke="transparent" points="-4,4 -4,-200 191,-200 191,4 -4,4"/>
<!-- Node1 -->
<g id="node1" class="node">
<title>Node1</title>
<g id="a_node1"><a xlink:title=" ">
<polygon fill="#bfbfbf" stroke="black" points="0,-0.5 0,-79.5 140,-79.5 140,-0.5 0,-0.5"/>
<text text-anchor="start" x="8" y="-67.5" font-family="Helvetica,sans-Serif" font-size="10.00">game.logic.playfield.Play</text>
<text text-anchor="middle" x="70" y="-56.5" font-family="Helvetica,sans-Serif" font-size="10.00">Field</text>
<polyline fill="none" stroke="black" points="0,-49.5 140,-49.5 "/>
<text text-anchor="start" x="8" y="-37.5" font-family="Helvetica,sans-Serif" font-size="10.00">+ Width</text>
<text text-anchor="start" x="8" y="-26.5" font-family="Helvetica,sans-Serif" font-size="10.00">+ Height</text>
<polyline fill="none" stroke="black" points="0,-19.5 140,-19.5 "/>
<text text-anchor="middle" x="70" y="-7.5" font-family="Helvetica,sans-Serif" font-size="10.00"> </text>
</a>
</g>
</g>
<!-- Node2 -->
<g id="node2" class="node">
<title>Node2</title>
<g id="a_node2"><a xlink:title=" ">
<polygon fill="white" stroke="black" points="5.5,-138.5 5.5,-195.5 34.5,-195.5 34.5,-138.5 5.5,-138.5"/>
<text text-anchor="middle" x="20" y="-183.5" font-family="Helvetica,sans-Serif" font-size="10.00">int</text>
<polyline fill="none" stroke="black" points="5.5,-176.5 34.5,-176.5 "/>
<text text-anchor="middle" x="20" y="-164.5" font-family="Helvetica,sans-Serif" font-size="10.00"> </text>
<polyline fill="none" stroke="black" points="5.5,-157.5 34.5,-157.5 "/>
<text text-anchor="middle" x="20" y="-145.5" font-family="Helvetica,sans-Serif" font-size="10.00"> </text>
</a>
</g>
</g>
<!-- Node2&#45;&gt;Node1 -->
<g id="edge1" class="edge">
<title>Node2&#45;&gt;Node1</title>
<path fill="none" stroke="#404040" d="M23.96,-138.24C26.3,-125.66 29.84,-110.78 35,-98 36.01,-95.51 37.12,-93 38.31,-90.5"/>
<polygon fill="none" stroke="#404040" points="38.4,-90.31 37.61,-83.14 43.93,-79.66 44.72,-86.82 38.4,-90.31"/>
<text text-anchor="middle" x="66.5" y="-112" font-family="Helvetica,sans-Serif" font-size="10.00"> &#45;FieldHeight</text>
<text text-anchor="middle" x="66.5" y="-101" font-family="Helvetica,sans-Serif" font-size="10.00">&#45;FieldWidth</text>
</g>
<!-- Node3 -->
<g id="node3" class="node">
<title>Node3</title>
<g id="a_node3"><a xlink:href="interfacegame_1_1logic_1_1tile_1_1ITileable.html" target="_top" xlink:title=" ">
<polygon fill="white" stroke="black" points="53,-138.5 53,-195.5 187,-195.5 187,-138.5 53,-138.5"/>
<text text-anchor="middle" x="120" y="-183.5" font-family="Helvetica,sans-Serif" font-size="10.00">game.logic.tile.ITileable</text>
<polyline fill="none" stroke="black" points="53,-176.5 187,-176.5 "/>
<text text-anchor="start" x="61" y="-164.5" font-family="Helvetica,sans-Serif" font-size="10.00">+ Color</text>
<polyline fill="none" stroke="black" points="53,-157.5 187,-157.5 "/>
<text text-anchor="middle" x="120" y="-145.5" font-family="Helvetica,sans-Serif" font-size="10.00"> </text>
</a>
</g>
</g>
<!-- Node3&#45;&gt;Node1 -->
<g id="edge2" class="edge">
<title>Node3&#45;&gt;Node1</title>
<path fill="none" stroke="#404040" d="M112,-138.22C108.17,-125.77 103.26,-111 98,-98 97.01,-95.55 95.96,-93.06 94.87,-90.56"/>
<polygon fill="none" stroke="#404040" points="94.85,-90.53 88.73,-86.72 89.89,-79.6 96.01,-83.41 94.85,-90.53"/>
<text text-anchor="middle" x="122.5" y="-106.5" font-family="Helvetica,sans-Serif" font-size="10.00"> +Field</text>
</g>
</g>
</svg>
