<?xml version="1.0" encoding="UTF-8" standalone="no"?>
<!DOCTYPE svg PUBLIC "-//W3C//DTD SVG 1.1//EN"
 "http://www.w3.org/Graphics/SVG/1.1/DTD/svg11.dtd">
<!-- Generated by graphviz version 2.43.0 (0)
 -->
<!-- Title: game.logic.EventQueue.EventQueue.HasEvent Pages: 1 -->
<svg width="372pt" height="39pt"
 viewBox="0.00 0.00 372.00 39.00" xmlns="http://www.w3.org/2000/svg" xmlns:xlink="http://www.w3.org/1999/xlink">
<g id="graph0" class="graph" transform="scale(1 1) rotate(0) translate(4 35)">
<title>game.logic.EventQueue.EventQueue.HasEvent</title>
<polygon fill="white" stroke="transparent" points="-4,4 -4,-35 368,-35 368,4 -4,4"/>
<!-- Node1 -->
<g id="node1" class="node">
<title>Node1</title>
<g id="a_node1"><a xlink:title="Checks if there is at least one event associated with the specified EventId.">
<polygon fill="#bfbfbf" stroke="black" points="200,-0.5 200,-30.5 364,-30.5 364,-0.5 200,-0.5"/>
<text text-anchor="start" x="208" y="-18.5" font-family="Helvetica,sans-Serif" font-size="10.00">game.logic.EventQueue.Event</text>
<text text-anchor="middle" x="282" y="-7.5" font-family="Helvetica,sans-Serif" font-size="10.00">Queue.HasEvent</text>
</a>
</g>
</g>
<!-- Node2 -->
<g id="node2" class="node">
<title>Node2</title>
<g id="a_node2"><a xlink:href="classgame_1_1logic_1_1EventQueue_1_1EventQueue.html#a66acb00d8ce084f3d0c88d588d8cb6ec" target="_top" xlink:title="Dequeues an event from the specified event queue identified by the given EventId.">
<polygon fill="white" stroke="black" points="0,-0.5 0,-30.5 164,-30.5 164,-0.5 0,-0.5"/>
<text text-anchor="start" x="8" y="-18.5" font-family="Helvetica,sans-Serif" font-size="10.00">game.logic.EventQueue.Event</text>
<text text-anchor="middle" x="82" y="-7.5" font-family="Helvetica,sans-Serif" font-size="10.00">Queue.Dequeue</text>
</a>
</g>
</g>
<!-- Node1&#45;&gt;Node2 -->
<g id="edge1" class="edge">
<title>Node1&#45;&gt;Node2</title>
<path fill="none" stroke="midnightblue" d="M189.64,-15.5C181.18,-15.5 172.65,-15.5 164.3,-15.5"/>
<polygon fill="midnightblue" stroke="midnightblue" points="189.89,-19 199.89,-15.5 189.89,-12 189.89,-19"/>
</g>
</g>
</svg>
