<?xml version="1.0" encoding="UTF-8" standalone="no"?>
<!DOCTYPE svg PUBLIC "-//W3C//DTD SVG 1.1//EN"
 "http://www.w3.org/Graphics/SVG/1.1/DTD/svg11.dtd">
<!-- Generated by graphviz version 2.43.0 (0)
 -->
<!-- Title: network.HttpPostRequest Pages: 1 -->
<svg width="149pt" height="193pt"
 viewBox="0.00 0.00 149.00 193.00" xmlns="http://www.w3.org/2000/svg" xmlns:xlink="http://www.w3.org/1999/xlink">
<g id="graph0" class="graph" transform="scale(1 1) rotate(0) translate(4 189)">
<title>network.HttpPostRequest</title>
<polygon fill="white" stroke="transparent" points="-4,4 -4,-189 145,-189 145,4 -4,4"/>
<!-- Node1 -->
<g id="node1" class="node">
<title>Node1</title>
<g id="a_node1"><a xlink:title=" ">
<polygon fill="#bfbfbf" stroke="black" points="0,-0.5 0,-90.5 141,-90.5 141,-0.5 0,-0.5"/>
<text text-anchor="middle" x="70.5" y="-78.5" font-family="Helvetica,sans-Serif" font-size="10.00">network.HttpPostRequest</text>
<polyline fill="none" stroke="black" points="0,-71.5 141,-71.5 "/>
<text text-anchor="start" x="8" y="-59.5" font-family="Helvetica,sans-Serif" font-size="10.00">&#45; _client</text>
<text text-anchor="start" x="8" y="-48.5" font-family="Helvetica,sans-Serif" font-size="10.00">&#45; _data</text>
<polyline fill="none" stroke="black" points="0,-41.5 141,-41.5 "/>
<text text-anchor="start" x="8" y="-29.5" font-family="Helvetica,sans-Serif" font-size="10.00">+ ExecuteAsync()</text>
<text text-anchor="start" x="8" y="-18.5" font-family="Helvetica,sans-Serif" font-size="10.00">+ SetData()</text>
<text text-anchor="start" x="8" y="-7.5" font-family="Helvetica,sans-Serif" font-size="10.00">+ SetClient()</text>
</a>
</g>
</g>
<!-- Node2 -->
<g id="node2" class="node">
<title>Node2</title>
<g id="a_node2"><a xlink:href="interfacenetwork_1_1IHttpRequest.html" target="_top" xlink:title=" ">
<polygon fill="white" stroke="black" points="19,-127.5 19,-184.5 122,-184.5 122,-127.5 19,-127.5"/>
<text text-anchor="middle" x="70.5" y="-172.5" font-family="Helvetica,sans-Serif" font-size="10.00">IHttpRequest</text>
<polyline fill="none" stroke="black" points="19,-165.5 122,-165.5 "/>
<text text-anchor="middle" x="70.5" y="-153.5" font-family="Helvetica,sans-Serif" font-size="10.00"> </text>
<polyline fill="none" stroke="black" points="19,-146.5 122,-146.5 "/>
<text text-anchor="start" x="27" y="-134.5" font-family="Helvetica,sans-Serif" font-size="10.00">+ ExecuteAsync()</text>
</a>
</g>
</g>
<!-- Node2&#45;&gt;Node1 -->
<g id="edge1" class="edge">
<title>Node2&#45;&gt;Node1</title>
<path fill="none" stroke="midnightblue" d="M70.5,-117.21C70.5,-108.61 70.5,-99.39 70.5,-90.55"/>
<polygon fill="none" stroke="midnightblue" points="67,-117.34 70.5,-127.34 74,-117.34 67,-117.34"/>
</g>
</g>
</svg>
