<?xml version="1.0" encoding="UTF-8" standalone="no"?>
<!DOCTYPE svg PUBLIC "-//W3C//DTD SVG 1.1//EN"
 "http://www.w3.org/Graphics/SVG/1.1/DTD/svg11.dtd">
<!-- Generated by graphviz version 2.43.0 (0)
 -->
<!-- Title: ScoreSubmit Pages: 1 -->
<svg width="210pt" height="193pt"
 viewBox="0.00 0.00 210.00 193.00" xmlns="http://www.w3.org/2000/svg" xmlns:xlink="http://www.w3.org/1999/xlink">
<g id="graph0" class="graph" transform="scale(1 1) rotate(0) translate(4 189)">
<title>ScoreSubmit</title>
<polygon fill="white" stroke="transparent" points="-4,4 -4,-189 206,-189 206,4 -4,4"/>
<!-- Node1 -->
<g id="node1" class="node">
<title>Node1</title>
<g id="a_node1"><a xlink:title=" ">
<polygon fill="#bfbfbf" stroke="black" points="62.5,-0.5 62.5,-79.5 140.5,-79.5 140.5,-0.5 62.5,-0.5"/>
<text text-anchor="middle" x="101.5" y="-67.5" font-family="Helvetica,sans-Serif" font-size="10.00">ScoreSubmit</text>
<polyline fill="none" stroke="black" points="62.5,-60.5 140.5,-60.5 "/>
<text text-anchor="middle" x="101.5" y="-48.5" font-family="Helvetica,sans-Serif" font-size="10.00"> </text>
<polyline fill="none" stroke="black" points="62.5,-41.5 140.5,-41.5 "/>
<text text-anchor="start" x="70.5" y="-29.5" font-family="Helvetica,sans-Serif" font-size="10.00">+ Win()</text>
<text text-anchor="start" x="70.5" y="-18.5" font-family="Helvetica,sans-Serif" font-size="10.00">&#45; Start()</text>
<text text-anchor="start" x="70.5" y="-7.5" font-family="Helvetica,sans-Serif" font-size="10.00">&#45; Update()</text>
</a>
</g>
</g>
<!-- Node2 -->
<g id="node2" class="node">
<title>Node2</title>
<g id="a_node2"><a xlink:href="classMonoBehaviour.html" target="_top" xlink:title=" ">
<polygon fill="white" stroke="black" points="0,-127.5 0,-184.5 93,-184.5 93,-127.5 0,-127.5"/>
<text text-anchor="middle" x="46.5" y="-172.5" font-family="Helvetica,sans-Serif" font-size="10.00">MonoBehaviour</text>
<polyline fill="none" stroke="black" points="0,-165.5 93,-165.5 "/>
<text text-anchor="middle" x="46.5" y="-153.5" font-family="Helvetica,sans-Serif" font-size="10.00"> </text>
<polyline fill="none" stroke="black" points="0,-146.5 93,-146.5 "/>
<text text-anchor="middle" x="46.5" y="-134.5" font-family="Helvetica,sans-Serif" font-size="10.00"> </text>
</a>
</g>
</g>
<!-- Node2&#45;&gt;Node1 -->
<g id="edge1" class="edge">
<title>Node2&#45;&gt;Node1</title>
<path fill="none" stroke="midnightblue" d="M64.22,-118.27C70.19,-105.9 76.87,-92.05 82.91,-79.54"/>
<polygon fill="none" stroke="midnightblue" points="61.01,-116.88 59.81,-127.4 67.31,-119.92 61.01,-116.88"/>
</g>
<!-- Node3 -->
<g id="node3" class="node">
<title>Node3</title>
<g id="a_node3"><a xlink:title=" ">
<polygon fill="white" stroke="black" points="111,-127.5 111,-184.5 202,-184.5 202,-127.5 111,-127.5"/>
<text text-anchor="middle" x="156.5" y="-172.5" font-family="Helvetica,sans-Serif" font-size="10.00">TMP_InputField</text>
<polyline fill="none" stroke="black" points="111,-165.5 202,-165.5 "/>
<text text-anchor="middle" x="156.5" y="-153.5" font-family="Helvetica,sans-Serif" font-size="10.00"> </text>
<polyline fill="none" stroke="black" points="111,-146.5 202,-146.5 "/>
<text text-anchor="middle" x="156.5" y="-134.5" font-family="Helvetica,sans-Serif" font-size="10.00"> </text>
</a>
</g>
</g>
<!-- Node3&#45;&gt;Node1 -->
<g id="edge2" class="edge">
<title>Node3&#45;&gt;Node1</title>
<path fill="none" stroke="#404040" d="M143.19,-127.4C137.83,-116.29 131.47,-103.13 125.37,-90.47"/>
<polygon fill="none" stroke="#404040" points="125.31,-90.35 119.1,-86.68 120.09,-79.54 126.3,-83.21 125.31,-90.35"/>
<text text-anchor="middle" x="164" y="-101" font-family="Helvetica,sans-Serif" font-size="10.00"> &#45;_inputField</text>
</g>
</g>
</svg>
