<?xml version="1.0" encoding="UTF-8" standalone="no"?>
<!DOCTYPE svg PUBLIC "-//W3C//DTD SVG 1.1//EN"
 "http://www.w3.org/Graphics/SVG/1.1/DTD/svg11.dtd">
<!-- Generated by graphviz version 2.43.0 (0)
 -->
<!-- Title: game.logic.tilespawner.TileSpawnerService.Shuffle Pages: 1 -->
<svg width="543pt" height="88pt"
 viewBox="0.00 0.00 543.00 88.00" xmlns="http://www.w3.org/2000/svg" xmlns:xlink="http://www.w3.org/1999/xlink">
<g id="graph0" class="graph" transform="scale(1 1) rotate(0) translate(4 84)">
<title>game.logic.tilespawner.TileSpawnerService.Shuffle</title>
<polygon fill="white" stroke="transparent" points="-4,4 -4,-84 539,-84 539,4 -4,4"/>
<!-- Node1 -->
<g id="node1" class="node">
<title>Node1</title>
<g id="a_node1"><a xlink:title="Shuffles the elements of the collection randomly.">
<polygon fill="#bfbfbf" stroke="black" points="384,-24.5 384,-54.5 535,-54.5 535,-24.5 384,-24.5"/>
<text text-anchor="start" x="392" y="-42.5" font-family="Helvetica,sans-Serif" font-size="10.00">game.logic.tilespawner.Tile</text>
<text text-anchor="middle" x="459.5" y="-31.5" font-family="Helvetica,sans-Serif" font-size="10.00">SpawnerService.Shuffle</text>
</a>
</g>
</g>
<!-- Node2 -->
<g id="node2" class="node">
<title>Node2</title>
<g id="a_node2"><a xlink:href="classgame_1_1logic_1_1tilespawner_1_1TileSpawnerService.html#a3a4da02acca59c7b4b180dd40867fca5" target="_top" xlink:title="Spawns a new tile shape by shuffling the available pieces and returning the first piece.">
<polygon fill="white" stroke="black" points="175.5,-49.5 175.5,-79.5 326.5,-79.5 326.5,-49.5 175.5,-49.5"/>
<text text-anchor="start" x="183.5" y="-67.5" font-family="Helvetica,sans-Serif" font-size="10.00">game.logic.tilespawner.Tile</text>
<text text-anchor="middle" x="251" y="-56.5" font-family="Helvetica,sans-Serif" font-size="10.00">SpawnerService.Spawn</text>
</a>
</g>
</g>
<!-- Node1&#45;&gt;Node2 -->
<g id="edge1" class="edge">
<title>Node1&#45;&gt;Node2</title>
<path fill="none" stroke="midnightblue" d="M373.81,-49.75C358.22,-51.64 342.06,-53.6 326.79,-55.45"/>
<polygon fill="midnightblue" stroke="midnightblue" points="374.44,-53.2 383.95,-48.53 373.6,-46.25 374.44,-53.2"/>
</g>
<!-- Node4 -->
<g id="node4" class="node">
<title>Node4</title>
<g id="a_node4"><a xlink:href="classgame_1_1logic_1_1tilespawner_1_1TileSpawnerService.html#aad0b3b7b64ebe2bfcc09fe7b2a37f238" target="_top" xlink:title=" ">
<polygon fill="white" stroke="black" points="154,-0.5 154,-30.5 348,-30.5 348,-0.5 154,-0.5"/>
<text text-anchor="start" x="162" y="-18.5" font-family="Helvetica,sans-Serif" font-size="10.00">game.logic.tilespawner.Tile</text>
<text text-anchor="middle" x="251" y="-7.5" font-family="Helvetica,sans-Serif" font-size="10.00">SpawnerService.TileSpawnerService</text>
</a>
</g>
</g>
<!-- Node1&#45;&gt;Node4 -->
<g id="edge3" class="edge">
<title>Node1&#45;&gt;Node4</title>
<path fill="none" stroke="midnightblue" d="M373.99,-29.68C365.43,-28.68 356.69,-27.67 348.01,-26.66"/>
<polygon fill="midnightblue" stroke="midnightblue" points="373.61,-33.16 383.95,-30.84 374.42,-26.2 373.61,-33.16"/>
</g>
<!-- Node3 -->
<g id="node3" class="node">
<title>Node3</title>
<g id="a_node3"><a xlink:href="classGameRunner.html#a60b42ae79f0fc030d0ef8a31d10ae960" target="_top" xlink:title="Updates the state of the object by processing gravity and spawning tiles when a threshold is reached.">
<polygon fill="white" stroke="black" points="0,-55 0,-74 118,-74 118,-55 0,-55"/>
<text text-anchor="middle" x="59" y="-62" font-family="Helvetica,sans-Serif" font-size="10.00">GameRunner.Update</text>
</a>
</g>
</g>
<!-- Node2&#45;&gt;Node3 -->
<g id="edge2" class="edge">
<title>Node2&#45;&gt;Node3</title>
<path fill="none" stroke="midnightblue" d="M165.1,-64.5C149.24,-64.5 133.01,-64.5 118.18,-64.5"/>
<polygon fill="midnightblue" stroke="midnightblue" points="165.45,-68 175.45,-64.5 165.45,-61 165.45,-68"/>
</g>
</g>
</svg>
