<?xml version="1.0" encoding="UTF-8" standalone="no"?>
<!DOCTYPE svg PUBLIC "-//W3C//DTD SVG 1.1//EN"
 "http://www.w3.org/Graphics/SVG/1.1/DTD/svg11.dtd">
<!-- Generated by graphviz version 2.43.0 (0)
 -->
<!-- Title: game.logic.tilespawner.OPiece Pages: 1 -->
<svg width="175pt" height="160pt"
 viewBox="0.00 0.00 175.00 160.00" xmlns="http://www.w3.org/2000/svg" xmlns:xlink="http://www.w3.org/1999/xlink">
<g id="graph0" class="graph" transform="scale(1 1) rotate(0) translate(4 156)">
<title>game.logic.tilespawner.OPiece</title>
<polygon fill="white" stroke="transparent" points="-4,4 -4,-156 171,-156 171,4 -4,4"/>
<!-- Node1 -->
<g id="node1" class="node">
<title>Node1</title>
<g id="a_node1"><a xlink:title=" ">
<polygon fill="#bfbfbf" stroke="black" points="0,-0.5 0,-57.5 167,-57.5 167,-0.5 0,-0.5"/>
<text text-anchor="middle" x="83.5" y="-45.5" font-family="Helvetica,sans-Serif" font-size="10.00">game.logic.tilespawner.OPiece</text>
<polyline fill="none" stroke="black" points="0,-38.5 167,-38.5 "/>
<text text-anchor="middle" x="83.5" y="-26.5" font-family="Helvetica,sans-Serif" font-size="10.00"> </text>
<polyline fill="none" stroke="black" points="0,-19.5 167,-19.5 "/>
<text text-anchor="start" x="8" y="-7.5" font-family="Helvetica,sans-Serif" font-size="10.00">+ Spawn()</text>
</a>
</g>
</g>
<!-- Node2 -->
<g id="node2" class="node">
<title>Node2</title>
<g id="a_node2"><a xlink:href="interfacegame_1_1logic_1_1tilespawner_1_1ISpawnable.html" target="_top" xlink:title=" ">
<polygon fill="white" stroke="black" points="47,-94.5 47,-151.5 120,-151.5 120,-94.5 47,-94.5"/>
<text text-anchor="middle" x="83.5" y="-139.5" font-family="Helvetica,sans-Serif" font-size="10.00">ISpawnable</text>
<polyline fill="none" stroke="black" points="47,-132.5 120,-132.5 "/>
<text text-anchor="middle" x="83.5" y="-120.5" font-family="Helvetica,sans-Serif" font-size="10.00"> </text>
<polyline fill="none" stroke="black" points="47,-113.5 120,-113.5 "/>
<text text-anchor="start" x="55" y="-101.5" font-family="Helvetica,sans-Serif" font-size="10.00">+ Spawn()</text>
</a>
</g>
</g>
<!-- Node2&#45;&gt;Node1 -->
<g id="edge1" class="edge">
<title>Node2&#45;&gt;Node1</title>
<path fill="none" stroke="midnightblue" d="M83.5,-84.21C83.5,-75.29 83.5,-65.95 83.5,-57.58"/>
<polygon fill="none" stroke="midnightblue" points="80,-84.4 83.5,-94.4 87,-84.4 80,-84.4"/>
</g>
</g>
</svg>
