<?xml version="1.0" encoding="UTF-8" standalone="no"?>
<!DOCTYPE svg PUBLIC "-//W3C//DTD SVG 1.1//EN"
 "http://www.w3.org/Graphics/SVG/1.1/DTD/svg11.dtd">
<!-- Generated by graphviz version 2.43.0 (0)
 -->
<!-- Title: gamerunner.Dispatcher Pages: 1 -->
<svg width="290pt" height="193pt"
 viewBox="0.00 0.00 290.00 193.00" xmlns="http://www.w3.org/2000/svg" xmlns:xlink="http://www.w3.org/1999/xlink">
<g id="graph0" class="graph" transform="scale(1 1) rotate(0) translate(4 189)">
<title>gamerunner.Dispatcher</title>
<polygon fill="white" stroke="transparent" points="-4,4 -4,-189 286,-189 286,4 -4,4"/>
<!-- Node1 -->
<g id="node1" class="node">
<title>Node1</title>
<g id="a_node1"><a xlink:title=" ">
<polygon fill="#bfbfbf" stroke="black" points="56,-0.5 56,-79.5 187,-79.5 187,-0.5 56,-0.5"/>
<text text-anchor="middle" x="121.5" y="-67.5" font-family="Helvetica,sans-Serif" font-size="10.00">gamerunner.Dispatcher</text>
<polyline fill="none" stroke="black" points="56,-60.5 187,-60.5 "/>
<text text-anchor="middle" x="121.5" y="-48.5" font-family="Helvetica,sans-Serif" font-size="10.00"> </text>
<polyline fill="none" stroke="black" points="56,-41.5 187,-41.5 "/>
<text text-anchor="start" x="64" y="-29.5" font-family="Helvetica,sans-Serif" font-size="10.00">+ addUpdatable()</text>
<text text-anchor="start" x="64" y="-18.5" font-family="Helvetica,sans-Serif" font-size="10.00">&#45; Awake()</text>
<text text-anchor="start" x="64" y="-7.5" font-family="Helvetica,sans-Serif" font-size="10.00">&#45; Update()</text>
</a>
</g>
</g>
<!-- Node2 -->
<g id="node2" class="node">
<title>Node2</title>
<g id="a_node2"><a xlink:href="classMonoBehaviour.html" target="_top" xlink:title=" ">
<polygon fill="white" stroke="black" points="0,-127.5 0,-184.5 93,-184.5 93,-127.5 0,-127.5"/>
<text text-anchor="middle" x="46.5" y="-172.5" font-family="Helvetica,sans-Serif" font-size="10.00">MonoBehaviour</text>
<polyline fill="none" stroke="black" points="0,-165.5 93,-165.5 "/>
<text text-anchor="middle" x="46.5" y="-153.5" font-family="Helvetica,sans-Serif" font-size="10.00"> </text>
<polyline fill="none" stroke="black" points="0,-146.5 93,-146.5 "/>
<text text-anchor="middle" x="46.5" y="-134.5" font-family="Helvetica,sans-Serif" font-size="10.00"> </text>
</a>
</g>
</g>
<!-- Node2&#45;&gt;Node1 -->
<g id="edge1" class="edge">
<title>Node2&#45;&gt;Node1</title>
<path fill="none" stroke="midnightblue" d="M70.19,-119C78.45,-106.44 87.75,-92.3 96.14,-79.54"/>
<polygon fill="none" stroke="midnightblue" points="67.23,-117.13 64.66,-127.4 73.08,-120.97 67.23,-117.13"/>
</g>
<!-- Node3 -->
<g id="node3" class="node">
<title>Node3</title>
<g id="a_node3"><a xlink:title=" ">
<polygon fill="white" stroke="black" points="111,-127.5 111,-184.5 282,-184.5 282,-127.5 111,-127.5"/>
<text text-anchor="middle" x="196.5" y="-172.5" font-family="Helvetica,sans-Serif" font-size="10.00">List&lt; gamerunner.IUpdatable &gt;</text>
<polyline fill="none" stroke="black" points="111,-165.5 282,-165.5 "/>
<text text-anchor="middle" x="196.5" y="-153.5" font-family="Helvetica,sans-Serif" font-size="10.00"> </text>
<polyline fill="none" stroke="black" points="111,-146.5 282,-146.5 "/>
<text text-anchor="middle" x="196.5" y="-134.5" font-family="Helvetica,sans-Serif" font-size="10.00"> </text>
</a>
</g>
</g>
<!-- Node3&#45;&gt;Node1 -->
<g id="edge2" class="edge">
<title>Node3&#45;&gt;Node1</title>
<path fill="none" stroke="#404040" d="M178.34,-127.4C170.89,-116.07 162.02,-102.6 153.54,-89.7"/>
<polygon fill="none" stroke="#404040" points="153.45,-89.57 146.81,-86.75 146.86,-79.54 153.5,-82.35 153.45,-89.57"/>
<text text-anchor="middle" x="199" y="-101" font-family="Helvetica,sans-Serif" font-size="10.00"> &#45;_updatables</text>
</g>
</g>
</svg>
