<?xml version="1.0" encoding="UTF-8" standalone="no"?>
<!DOCTYPE svg PUBLIC "-//W3C//DTD SVG 1.1//EN"
 "http://www.w3.org/Graphics/SVG/1.1/DTD/svg11.dtd">
<!-- Generated by graphviz version 2.43.0 (0)
 -->
<!-- Title: debugtools.VardumpCommand Pages: 1 -->
<svg width="204pt" height="287pt"
 viewBox="0.00 0.00 203.50 287.00" xmlns="http://www.w3.org/2000/svg" xmlns:xlink="http://www.w3.org/1999/xlink">
<g id="graph0" class="graph" transform="scale(1 1) rotate(0) translate(4 283)">
<title>debugtools.VardumpCommand</title>
<polygon fill="white" stroke="transparent" points="-4,4 -4,-283 199.5,-283 199.5,4 -4,4"/>
<!-- Node1 -->
<g id="node1" class="node">
<title>Node1</title>
<g id="a_node1"><a xlink:title=" ">
<polygon fill="#bfbfbf" stroke="black" points="0,-0.5 0,-68.5 167,-68.5 167,-0.5 0,-0.5"/>
<text text-anchor="middle" x="83.5" y="-56.5" font-family="Helvetica,sans-Serif" font-size="10.00">debugtools.VardumpCommand</text>
<polyline fill="none" stroke="black" points="0,-49.5 167,-49.5 "/>
<text text-anchor="middle" x="83.5" y="-37.5" font-family="Helvetica,sans-Serif" font-size="10.00"> </text>
<polyline fill="none" stroke="black" points="0,-30.5 167,-30.5 "/>
<text text-anchor="start" x="8" y="-18.5" font-family="Helvetica,sans-Serif" font-size="10.00">+ VardumpCommand()</text>
<text text-anchor="start" x="8" y="-7.5" font-family="Helvetica,sans-Serif" font-size="10.00">+ Execute()</text>
</a>
</g>
</g>
<!-- Node2 -->
<g id="node2" class="node">
<title>Node2</title>
<g id="a_node2"><a xlink:href="classdebugtools_1_1DebugReceiver.html" target="_top" xlink:title=" ">
<polygon fill="white" stroke="black" points="9.5,-116.5 9.5,-173.5 157.5,-173.5 157.5,-116.5 9.5,-116.5"/>
<text text-anchor="middle" x="83.5" y="-161.5" font-family="Helvetica,sans-Serif" font-size="10.00">debugtools.DebugReceiver</text>
<polyline fill="none" stroke="black" points="9.5,-154.5 157.5,-154.5 "/>
<text text-anchor="middle" x="83.5" y="-142.5" font-family="Helvetica,sans-Serif" font-size="10.00"> </text>
<polyline fill="none" stroke="black" points="9.5,-135.5 157.5,-135.5 "/>
<text text-anchor="start" x="17.5" y="-123.5" font-family="Helvetica,sans-Serif" font-size="10.00">+ Action()</text>
</a>
</g>
</g>
<!-- Node2&#45;&gt;Node1 -->
<g id="edge1" class="edge">
<title>Node2&#45;&gt;Node1</title>
<path fill="none" stroke="#404040" d="M83.5,-116.34C83.5,-105.53 83.5,-92.85 83.5,-80.77"/>
<polygon fill="none" stroke="#404040" points="83.5,-80.52 79.5,-74.52 83.5,-68.52 87.5,-74.52 83.5,-80.52"/>
<text text-anchor="middle" x="109.5" y="-90" font-family="Helvetica,sans-Serif" font-size="10.00"> &#45;_receiver</text>
</g>
<!-- Node3 -->
<g id="node3" class="node">
<title>Node3</title>
<g id="a_node3"><a xlink:title=" ">
<polygon fill="white" stroke="black" points="41.5,-221.5 41.5,-278.5 125.5,-278.5 125.5,-221.5 41.5,-221.5"/>
<text text-anchor="middle" x="83.5" y="-266.5" font-family="Helvetica,sans-Serif" font-size="10.00">List&lt; string &gt;</text>
<polyline fill="none" stroke="black" points="41.5,-259.5 125.5,-259.5 "/>
<text text-anchor="middle" x="83.5" y="-247.5" font-family="Helvetica,sans-Serif" font-size="10.00"> </text>
<polyline fill="none" stroke="black" points="41.5,-240.5 125.5,-240.5 "/>
<text text-anchor="middle" x="83.5" y="-228.5" font-family="Helvetica,sans-Serif" font-size="10.00"> </text>
</a>
</g>
</g>
<!-- Node3&#45;&gt;Node2 -->
<g id="edge2" class="edge">
<title>Node3&#45;&gt;Node2</title>
<path fill="none" stroke="#404040" d="M83.5,-221.4C83.5,-210.55 83.5,-197.87 83.5,-186.05"/>
<polygon fill="none" stroke="#404040" points="83.5,-185.68 79.5,-179.68 83.5,-173.68 87.5,-179.68 83.5,-185.68"/>
<text text-anchor="middle" x="139.5" y="-195" font-family="Helvetica,sans-Serif" font-size="10.00"> &#45;supportedCommands</text>
</g>
</g>
</svg>
