<?xml version="1.0" encoding="UTF-8" standalone="no"?>
<!DOCTYPE svg PUBLIC "-//W3C//DTD SVG 1.1//EN"
 "http://www.w3.org/Graphics/SVG/1.1/DTD/svg11.dtd">
<!-- Generated by graphviz version 2.43.0 (0)
 -->
<!-- Title: game.logic.TimeBasedGravityStrategy Pages: 1 -->
<svg width="340pt" height="237pt"
 viewBox="0.00 0.00 339.50 237.00" xmlns="http://www.w3.org/2000/svg" xmlns:xlink="http://www.w3.org/1999/xlink">
<g id="graph0" class="graph" transform="scale(1 1) rotate(0) translate(4 233)">
<title>game.logic.TimeBasedGravityStrategy</title>
<polygon fill="white" stroke="transparent" points="-4,4 -4,-233 335.5,-233 335.5,4 -4,4"/>
<!-- Node1 -->
<g id="node1" class="node">
<title>Node1</title>
<g id="a_node1"><a xlink:title=" ">
<polygon fill="#bfbfbf" stroke="black" points="57.5,-0.5 57.5,-90.5 221.5,-90.5 221.5,-0.5 57.5,-0.5"/>
<text text-anchor="start" x="65.5" y="-78.5" font-family="Helvetica,sans-Serif" font-size="10.00">game.logic.TimeBasedGravity</text>
<text text-anchor="middle" x="139.5" y="-67.5" font-family="Helvetica,sans-Serif" font-size="10.00">Strategy</text>
<polyline fill="none" stroke="black" points="57.5,-60.5 221.5,-60.5 "/>
<text text-anchor="start" x="65.5" y="-48.5" font-family="Helvetica,sans-Serif" font-size="10.00">+ CurrentGravity</text>
<text text-anchor="start" x="65.5" y="-37.5" font-family="Helvetica,sans-Serif" font-size="10.00">+ Gravity</text>
<polyline fill="none" stroke="black" points="57.5,-30.5 221.5,-30.5 "/>
<text text-anchor="start" x="65.5" y="-18.5" font-family="Helvetica,sans-Serif" font-size="10.00">+ Update()</text>
<text text-anchor="start" x="65.5" y="-7.5" font-family="Helvetica,sans-Serif" font-size="10.00">+ setGravityScale()</text>
</a>
</g>
</g>
<!-- Node2 -->
<g id="node2" class="node">
<title>Node2</title>
<g id="a_node2"><a xlink:href="interfacegamerunner_1_1IUpdatable.html" target="_top" xlink:title=" ">
<polygon fill="white" stroke="black" points="0,-166 0,-223 71,-223 71,-166 0,-166"/>
<text text-anchor="middle" x="35.5" y="-211" font-family="Helvetica,sans-Serif" font-size="10.00">IUpdatable</text>
<polyline fill="none" stroke="black" points="0,-204 71,-204 "/>
<text text-anchor="middle" x="35.5" y="-192" font-family="Helvetica,sans-Serif" font-size="10.00"> </text>
<polyline fill="none" stroke="black" points="0,-185 71,-185 "/>
<text text-anchor="start" x="8" y="-173" font-family="Helvetica,sans-Serif" font-size="10.00">+ Update()</text>
</a>
</g>
</g>
<!-- Node2&#45;&gt;Node1 -->
<g id="edge1" class="edge">
<title>Node2&#45;&gt;Node1</title>
<path fill="none" stroke="midnightblue" d="M60.93,-157.56C75.17,-137.42 93.06,-112.14 108.17,-90.78"/>
<polygon fill="none" stroke="midnightblue" points="57.98,-155.67 55.06,-165.85 63.69,-159.71 57.98,-155.67"/>
</g>
<!-- Node3 -->
<g id="node3" class="node">
<title>Node3</title>
<g id="a_node3"><a xlink:href="interfacegame_1_1logic_1_1IGravityStrategy.html" target="_top" xlink:title=" ">
<polygon fill="white" stroke="black" points="89.5,-160.5 89.5,-228.5 189.5,-228.5 189.5,-160.5 89.5,-160.5"/>
<text text-anchor="middle" x="139.5" y="-216.5" font-family="Helvetica,sans-Serif" font-size="10.00">IGravityStrategy</text>
<polyline fill="none" stroke="black" points="89.5,-209.5 189.5,-209.5 "/>
<text text-anchor="start" x="97.5" y="-197.5" font-family="Helvetica,sans-Serif" font-size="10.00">+ CurrentGravity</text>
<text text-anchor="start" x="97.5" y="-186.5" font-family="Helvetica,sans-Serif" font-size="10.00">+ Gravity</text>
<polyline fill="none" stroke="black" points="89.5,-179.5 189.5,-179.5 "/>
<text text-anchor="middle" x="139.5" y="-167.5" font-family="Helvetica,sans-Serif" font-size="10.00"> </text>
</a>
</g>
</g>
<!-- Node3&#45;&gt;Node1 -->
<g id="edge2" class="edge">
<title>Node3&#45;&gt;Node1</title>
<path fill="none" stroke="midnightblue" d="M139.5,-150.09C139.5,-131.34 139.5,-109.43 139.5,-90.6"/>
<polygon fill="none" stroke="midnightblue" points="136,-150.14 139.5,-160.14 143,-150.14 136,-150.14"/>
</g>
<!-- Node4 -->
<g id="node4" class="node">
<title>Node4</title>
<g id="a_node4"><a xlink:title=" ">
<polygon fill="white" stroke="black" points="207.5,-166 207.5,-223 245.5,-223 245.5,-166 207.5,-166"/>
<text text-anchor="middle" x="226.5" y="-211" font-family="Helvetica,sans-Serif" font-size="10.00">float</text>
<polyline fill="none" stroke="black" points="207.5,-204 245.5,-204 "/>
<text text-anchor="middle" x="226.5" y="-192" font-family="Helvetica,sans-Serif" font-size="10.00"> </text>
<polyline fill="none" stroke="black" points="207.5,-185 245.5,-185 "/>
<text text-anchor="middle" x="226.5" y="-173" font-family="Helvetica,sans-Serif" font-size="10.00"> </text>
</a>
</g>
</g>
<!-- Node4&#45;&gt;Node1 -->
<g id="edge3" class="edge">
<title>Node4&#45;&gt;Node1</title>
<path fill="none" stroke="#404040" d="M210.14,-165.85C199.39,-147.7 184.97,-123.33 171.96,-101.35"/>
<polygon fill="none" stroke="#404040" points="171.82,-101.11 165.32,-97.98 165.71,-90.78 172.21,-93.91 171.82,-101.11"/>
<text text-anchor="middle" x="263.5" y="-134" font-family="Helvetica,sans-Serif" font-size="10.00"> &#45;_gravityBase</text>
<text text-anchor="middle" x="263.5" y="-123" font-family="Helvetica,sans-Serif" font-size="10.00">&#45;_gravityIncreasePerSecond</text>
<text text-anchor="middle" x="263.5" y="-112" font-family="Helvetica,sans-Serif" font-size="10.00">&#45;_gravityScale</text>
</g>
</g>
</svg>
