<?xml version="1.0" encoding="UTF-8" standalone="no"?>
<!DOCTYPE svg PUBLIC "-//W3C//DTD SVG 1.1//EN"
 "http://www.w3.org/Graphics/SVG/1.1/DTD/svg11.dtd">
<!-- Generated by graphviz version 2.43.0 (0)
 -->
<!-- Title: MonoBehaviour Pages: 1 -->
<!--zoomable 204 -->
<svg id="main" version="1.1" xmlns="http://www.w3.org/2000/svg" xmlns:xlink="http://www.w3.org/1999/xlink" xml:space="preserve" onload="init(evt)">
<style type="text/css"><![CDATA[
.edge:hover path { stroke: red; }
.edge:hover polygon { stroke: red; fill: red; }
]]></style>
<script type="text/javascript"><![CDATA[
var edges = document.getElementsByTagName('g');
if (edges && edges.length) {
  for (var i=0;i<edges.length;i++) {
    if (edges[i].id.substr(0,4)=='edge') {
      edges[i].setAttribute('class','edge');
    }
  }
}
]]></script>
        <defs>
                <circle id="rim" cx="0" cy="0" r="7"/>
                <circle id="rim2" cx="0" cy="0" r="3.5"/>
                <g id="zoomPlus">
                        <use xlink:href="#rim" fill="#404040">
                                <set attributeName="fill" to="#808080" begin="zoomplus.mouseover" end="zoomplus.mouseout"/>
                        </use>
                        <path d="M-4,0h8M0,-4v8" fill="none" stroke="white" stroke-width="1.5" pointer-events="none"/>
                </g>
                <g id="zoomMin">
                        <use xlink:href="#rim" fill="#404040">
                                <set attributeName="fill" to="#808080" begin="zoomminus.mouseover" end="zoomminus.mouseout"/>
                        </use>
                        <path d="M-4,0h8" fill="none" stroke="white" stroke-width="1.5" pointer-events="none"/>
                </g>
                <g id="dirArrow">
                        <path fill="none" stroke="white" stroke-width="1.5" d="M0,-3.0v7 M-2.5,-0.5L0,-3.0L2.5,-0.5"/>
                </g>
               <g id="resetDef">
                       <use xlink:href="#rim2" fill="#404040">
                               <set attributeName="fill" to="#808080" begin="reset.mouseover" end="reset.mouseout"/>
                       </use>
               </g>
        </defs>

<script type="text/javascript">
var viewWidth = 774;
var viewHeight = 204;
var sectionId = 'dynsection-0';
</script>
<script xlink:href="svgpan.js"/>
<svg id="graph" class="graph">
<g id="viewport">
<title>MonoBehaviour</title>
<polygon fill="white" stroke="transparent" points="-4,4 -4,-200 769.5,-200 769.5,4 -4,4"/>
<!-- Node1 -->
<g id="node1" class="node">
<title>Node1</title>
<g id="a_node1"><a xlink:title=" ">
<polygon fill="#bfbfbf" stroke="black" points="283.5,-138.5 283.5,-195.5 376.5,-195.5 376.5,-138.5 283.5,-138.5"/>
<text text-anchor="middle" x="330" y="-183.5" font-family="Helvetica,sans-Serif" font-size="10.00">MonoBehaviour</text>
<polyline fill="none" stroke="black" points="283.5,-176.5 376.5,-176.5 "/>
<text text-anchor="middle" x="330" y="-164.5" font-family="Helvetica,sans-Serif" font-size="10.00"> </text>
<polyline fill="none" stroke="black" points="283.5,-157.5 376.5,-157.5 "/>
<text text-anchor="middle" x="330" y="-145.5" font-family="Helvetica,sans-Serif" font-size="10.00"> </text>
</a>
</g>
</g>
<!-- Node2 -->
<g id="node2" class="node">
<title>Node2</title>
<g id="a_node2"><a xlink:href="classGameInitialiser.html" target="_top" xlink:title=" ">
<polygon fill="white" stroke="black" points="0,-6 0,-96 104,-96 104,-6 0,-6"/>
<text text-anchor="middle" x="52" y="-84" font-family="Helvetica,sans-Serif" font-size="10.00">GameInitialiser</text>
<polyline fill="none" stroke="black" points="0,-77 104,-77 "/>
<text text-anchor="start" x="8" y="-65" font-family="Helvetica,sans-Serif" font-size="10.00">+ PlayFieldPrefab</text>
<text text-anchor="start" x="8" y="-54" font-family="Helvetica,sans-Serif" font-size="10.00">+ TilePrefab</text>
<text text-anchor="start" x="8" y="-43" font-family="Helvetica,sans-Serif" font-size="10.00">+ _loginButton</text>
<text text-anchor="start" x="8" y="-32" font-family="Helvetica,sans-Serif" font-size="10.00">+ Dispatcher</text>
<polyline fill="none" stroke="black" points="0,-25 104,-25 "/>
<text text-anchor="start" x="8" y="-13" font-family="Helvetica,sans-Serif" font-size="10.00">&#45; Start()</text>
</a>
</g>
</g>
<!-- Node1&#45;&gt;Node2 -->
<g id="edge1" class="edge">
<title>Node1&#45;&gt;Node2</title>
<path fill="none" stroke="midnightblue" d="M273.56,-155.83C228.32,-146.18 164.16,-129.07 113,-102 109.61,-100.21 106.23,-98.21 102.91,-96.07"/>
<polygon fill="none" stroke="midnightblue" points="272.99,-159.29 283.49,-157.89 274.41,-152.43 272.99,-159.29"/>
</g>
<!-- Node3 -->
<g id="node3" class="node">
<title>Node3</title>
<g id="a_node3"><a xlink:href="classLoginButton.html" target="_top" xlink:title=" ">
<polygon fill="white" stroke="black" points="122,-6 122,-96 210,-96 210,-6 122,-6"/>
<text text-anchor="middle" x="166" y="-84" font-family="Helvetica,sans-Serif" font-size="10.00">LoginButton</text>
<polyline fill="none" stroke="black" points="122,-77 210,-77 "/>
<text text-anchor="start" x="130" y="-65" font-family="Helvetica,sans-Serif" font-size="10.00">&#45; _eventQueue</text>
<polyline fill="none" stroke="black" points="122,-58 210,-58 "/>
<text text-anchor="start" x="130" y="-46" font-family="Helvetica,sans-Serif" font-size="10.00">+ Link()</text>
<text text-anchor="start" x="130" y="-35" font-family="Helvetica,sans-Serif" font-size="10.00">+ OnClick()</text>
<text text-anchor="start" x="130" y="-24" font-family="Helvetica,sans-Serif" font-size="10.00">&#45; Start()</text>
<text text-anchor="start" x="130" y="-13" font-family="Helvetica,sans-Serif" font-size="10.00">&#45; Update()</text>
</a>
</g>
</g>
<!-- Node1&#45;&gt;Node3 -->
<g id="edge2" class="edge">
<title>Node1&#45;&gt;Node3</title>
<path fill="none" stroke="midnightblue" d="M274.58,-137.41C256.31,-127.11 236.25,-114.84 219,-102 216.06,-99.81 213.1,-97.47 210.17,-95.06"/>
<polygon fill="none" stroke="midnightblue" points="272.95,-140.5 283.39,-142.3 276.35,-134.38 272.95,-140.5"/>
</g>
<!-- Node4 -->
<g id="node4" class="node">
<title>Node4</title>
<g id="a_node4"><a xlink:href="classScoreSubmit.html" target="_top" xlink:title=" ">
<polygon fill="white" stroke="black" points="228,-11.5 228,-90.5 306,-90.5 306,-11.5 228,-11.5"/>
<text text-anchor="middle" x="267" y="-78.5" font-family="Helvetica,sans-Serif" font-size="10.00">ScoreSubmit</text>
<polyline fill="none" stroke="black" points="228,-71.5 306,-71.5 "/>
<text text-anchor="start" x="236" y="-59.5" font-family="Helvetica,sans-Serif" font-size="10.00">&#45; _inputField</text>
<polyline fill="none" stroke="black" points="228,-52.5 306,-52.5 "/>
<text text-anchor="start" x="236" y="-40.5" font-family="Helvetica,sans-Serif" font-size="10.00">+ Win()</text>
<text text-anchor="start" x="236" y="-29.5" font-family="Helvetica,sans-Serif" font-size="10.00">&#45; Start()</text>
<text text-anchor="start" x="236" y="-18.5" font-family="Helvetica,sans-Serif" font-size="10.00">&#45; Update()</text>
</a>
</g>
</g>
<!-- Node1&#45;&gt;Node4 -->
<g id="edge3" class="edge">
<title>Node1&#45;&gt;Node4</title>
<path fill="none" stroke="midnightblue" d="M309.9,-129.64C303.01,-117.17 295.28,-103.18 288.3,-90.54"/>
<polygon fill="none" stroke="midnightblue" points="306.85,-131.34 314.75,-138.4 312.98,-127.96 306.85,-131.34"/>
</g>
<!-- Node5 -->
<g id="node5" class="node">
<title>Node5</title>
<g id="a_node5"><a xlink:href="classgame_1_1logic_1_1playfield_1_1PlayFieldView.html" target="_top" xlink:title=" ">
<polygon fill="white" stroke="black" points="324,-0.5 324,-101.5 464,-101.5 464,-0.5 324,-0.5"/>
<text text-anchor="start" x="332" y="-89.5" font-family="Helvetica,sans-Serif" font-size="10.00">game.logic.playfield.Play</text>
<text text-anchor="middle" x="394" y="-78.5" font-family="Helvetica,sans-Serif" font-size="10.00">FieldView</text>
<polyline fill="none" stroke="black" points="324,-71.5 464,-71.5 "/>
<text text-anchor="start" x="332" y="-59.5" font-family="Helvetica,sans-Serif" font-size="10.00">+ TileAnchor</text>
<text text-anchor="start" x="332" y="-48.5" font-family="Helvetica,sans-Serif" font-size="10.00">&#45; _playFieldVM</text>
<polyline fill="none" stroke="black" points="324,-41.5 464,-41.5 "/>
<text text-anchor="start" x="332" y="-29.5" font-family="Helvetica,sans-Serif" font-size="10.00">+ Link()</text>
<text text-anchor="start" x="332" y="-18.5" font-family="Helvetica,sans-Serif" font-size="10.00">&#45; Start()</text>
<text text-anchor="start" x="332" y="-7.5" font-family="Helvetica,sans-Serif" font-size="10.00">&#45; Update()</text>
</a>
</g>
</g>
<!-- Node1&#45;&gt;Node5 -->
<g id="edge4" class="edge">
<title>Node1&#45;&gt;Node5</title>
<path fill="none" stroke="midnightblue" d="M350.5,-129.48C355.48,-120.61 360.89,-110.97 366.15,-101.61"/>
<polygon fill="none" stroke="midnightblue" points="347.34,-127.97 345.49,-138.4 353.44,-131.4 347.34,-127.97"/>
</g>
<!-- Node6 -->
<g id="node6" class="node">
<title>Node6</title>
<g id="a_node6"><a xlink:href="classgame_1_1logic_1_1tile_1_1TileView.html" target="_top" xlink:title=" ">
<polygon fill="white" stroke="black" points="482,-6 482,-96 616,-96 616,-6 482,-6"/>
<text text-anchor="middle" x="549" y="-84" font-family="Helvetica,sans-Serif" font-size="10.00">game.logic.tile.TileView</text>
<polyline fill="none" stroke="black" points="482,-77 616,-77 "/>
<text text-anchor="start" x="490" y="-65" font-family="Helvetica,sans-Serif" font-size="10.00">+ TileSprite</text>
<text text-anchor="start" x="490" y="-54" font-family="Helvetica,sans-Serif" font-size="10.00">&#45; _tileVM</text>
<polyline fill="none" stroke="black" points="482,-47 616,-47 "/>
<text text-anchor="start" x="490" y="-35" font-family="Helvetica,sans-Serif" font-size="10.00">+ Link()</text>
<text text-anchor="start" x="490" y="-24" font-family="Helvetica,sans-Serif" font-size="10.00">&#45; Start()</text>
<text text-anchor="start" x="490" y="-13" font-family="Helvetica,sans-Serif" font-size="10.00">&#45; Update()</text>
</a>
</g>
</g>
<!-- Node1&#45;&gt;Node6 -->
<g id="edge5" class="edge">
<title>Node1&#45;&gt;Node6</title>
<path fill="none" stroke="midnightblue" d="M385.89,-143.47C412.72,-132.02 445.05,-117.32 473,-102 476.46,-100.1 479.97,-98.1 483.49,-96.03"/>
<polygon fill="none" stroke="midnightblue" points="384.49,-140.26 376.64,-147.37 387.21,-146.71 384.49,-140.26"/>
</g>
<!-- Node7 -->
<g id="node7" class="node">
<title>Node7</title>
<g id="a_node7"><a xlink:href="classgamerunner_1_1Dispatcher.html" target="_top" xlink:title=" ">
<polygon fill="white" stroke="black" points="634.5,-11.5 634.5,-90.5 765.5,-90.5 765.5,-11.5 634.5,-11.5"/>
<text text-anchor="middle" x="700" y="-78.5" font-family="Helvetica,sans-Serif" font-size="10.00">gamerunner.Dispatcher</text>
<polyline fill="none" stroke="black" points="634.5,-71.5 765.5,-71.5 "/>
<text text-anchor="start" x="642.5" y="-59.5" font-family="Helvetica,sans-Serif" font-size="10.00">&#45; _updatables</text>
<polyline fill="none" stroke="black" points="634.5,-52.5 765.5,-52.5 "/>
<text text-anchor="start" x="642.5" y="-40.5" font-family="Helvetica,sans-Serif" font-size="10.00">+ addUpdatable()</text>
<text text-anchor="start" x="642.5" y="-29.5" font-family="Helvetica,sans-Serif" font-size="10.00">&#45; Awake()</text>
<text text-anchor="start" x="642.5" y="-18.5" font-family="Helvetica,sans-Serif" font-size="10.00">&#45; Update()</text>
</a>
</g>
</g>
<!-- Node1&#45;&gt;Node7 -->
<g id="edge6" class="edge">
<title>Node1&#45;&gt;Node7</title>
<path fill="none" stroke="midnightblue" d="M386.77,-160.07C447.61,-152.27 546.09,-135.44 625,-102 632.49,-98.82 640.04,-94.88 647.3,-90.6"/>
<polygon fill="none" stroke="midnightblue" points="386.09,-156.63 376.6,-161.34 386.95,-163.58 386.09,-156.63"/>
</g>
</g>
</svg>
        <g id="navigator" transform="translate(0 0)" fill="#404254">
                <rect fill="#f2f5e9" fill-opacity="0.5" stroke="#606060" stroke-width=".5" x="0" y="0" width="60" height="60"/>
                <use id="zoomplus" xlink:href="#zoomPlus" x="17" y="9" onmousedown="handleZoom(evt,'in')"/>
                <use id="zoomminus" xlink:href="#zoomMin" x="42" y="9" onmousedown="handleZoom(evt,'out')"/>
                <use id="reset" xlink:href="#resetDef" x="30" y="36" onmousedown="handleReset()"/>
                <g id="arrowUp" xlink:href="#dirArrow" transform="translate(30 24)" onmousedown="handlePan(0,-1)">
                  <use xlink:href="#rim" fill="#404040">
                        <set attributeName="fill" to="#808080" begin="arrowUp.mouseover" end="arrowUp.mouseout"/>
                  </use>
                  <path fill="none" stroke="white" stroke-width="1.5" d="M0,-3.0v7 M-2.5,-0.5L0,-3.0L2.5,-0.5"/>
                </g>
                <g id="arrowRight" xlink:href="#dirArrow" transform="rotate(90) translate(36 -43)" onmousedown="handlePan(1,0)">
                  <use xlink:href="#rim" fill="#404040">
                        <set attributeName="fill" to="#808080" begin="arrowRight.mouseover" end="arrowRight.mouseout"/>
                  </use>
                  <path fill="none" stroke="white" stroke-width="1.5" d="M0,-3.0v7 M-2.5,-0.5L0,-3.0L2.5,-0.5"/>
                </g>
                <g id="arrowDown" xlink:href="#dirArrow" transform="rotate(180) translate(-30 -48)" onmousedown="handlePan(0,1)">
                  <use xlink:href="#rim" fill="#404040">
                        <set attributeName="fill" to="#808080" begin="arrowDown.mouseover" end="arrowDown.mouseout"/>
                  </use>
                  <path fill="none" stroke="white" stroke-width="1.5" d="M0,-3.0v7 M-2.5,-0.5L0,-3.0L2.5,-0.5"/>
                </g>
                <g id="arrowLeft" xlink:href="#dirArrow" transform="rotate(270) translate(-36 17)" onmousedown="handlePan(-1,0)">
                  <use xlink:href="#rim" fill="#404040">
                        <set attributeName="fill" to="#808080" begin="arrowLeft.mouseover" end="arrowLeft.mouseout"/>
                  </use>
                  <path fill="none" stroke="white" stroke-width="1.5" d="M0,-3.0v7 M-2.5,-0.5L0,-3.0L2.5,-0.5"/>
                </g>
        </g>
        <svg viewBox="0 0 15 15" width="100%" height="30px" preserveAspectRatio="xMaxYMin meet">
         <g id="arrow_out" transform="scale(0.3 0.3)">
          <a xlink:href="classMonoBehaviour__inherit__graph_org.svg" target="_base">
           <rect id="button" ry="5" rx="5" y="6" x="6" height="38" width="38"
                fill="#f2f5e9" fill-opacity="0.5" stroke="#606060" stroke-width="1.0"/>
           <path id="arrow"
             d="M 11.500037,31.436501 C 11.940474,20.09759 22.043105,11.32322 32.158766,21.979434 L 37.068811,17.246167 C 37.068811,17.246167 37.088388,32 37.088388,32 L 22.160133,31.978069 C 22.160133,31.978069 26.997745,27.140456 26.997745,27.140456 C 18.528582,18.264221 13.291696,25.230495 11.500037,31.436501 z"
             style="fill:#404040;"/>
          </a>
         </g>
        </svg>
</svg>
