<?xml version="1.0" encoding="UTF-8" standalone="no"?>
<!DOCTYPE svg PUBLIC "-//W3C//DTD SVG 1.1//EN"
 "http://www.w3.org/Graphics/SVG/1.1/DTD/svg11.dtd">
<!-- Generated by graphviz version 2.43.0 (0)
 -->
<!-- Title: game.logic.LevelBasedGravityStrategy Pages: 1 -->
<svg width="322pt" height="237pt"
 viewBox="0.00 0.00 322.00 237.00" xmlns="http://www.w3.org/2000/svg" xmlns:xlink="http://www.w3.org/1999/xlink">
<g id="graph0" class="graph" transform="scale(1 1) rotate(0) translate(4 233)">
<title>game.logic.LevelBasedGravityStrategy</title>
<polygon fill="white" stroke="transparent" points="-4,4 -4,-233 318,-233 318,4 -4,4"/>
<!-- Node1 -->
<g id="node1" class="node">
<title>Node1</title>
<g id="a_node1"><a xlink:title=" ">
<polygon fill="#bfbfbf" stroke="black" points="54,-0.5 54,-101.5 220,-101.5 220,-0.5 54,-0.5"/>
<text text-anchor="start" x="62" y="-89.5" font-family="Helvetica,sans-Serif" font-size="10.00">game.logic.LevelBasedGravity</text>
<text text-anchor="middle" x="137" y="-78.5" font-family="Helvetica,sans-Serif" font-size="10.00">Strategy</text>
<polyline fill="none" stroke="black" points="54,-71.5 220,-71.5 "/>
<text text-anchor="start" x="62" y="-59.5" font-family="Helvetica,sans-Serif" font-size="10.00">+ CurrentGravity</text>
<text text-anchor="start" x="62" y="-48.5" font-family="Helvetica,sans-Serif" font-size="10.00">+ Gravity</text>
<polyline fill="none" stroke="black" points="54,-41.5 220,-41.5 "/>
<text text-anchor="start" x="62" y="-29.5" font-family="Helvetica,sans-Serif" font-size="10.00">+ SetLevel()</text>
<text text-anchor="start" x="62" y="-18.5" font-family="Helvetica,sans-Serif" font-size="10.00">+ LevelUp()</text>
<text text-anchor="start" x="62" y="-7.5" font-family="Helvetica,sans-Serif" font-size="10.00">+ ResetLevel()</text>
</a>
</g>
</g>
<!-- Node2 -->
<g id="node2" class="node">
<title>Node2</title>
<g id="a_node2"><a xlink:href="interfacegame_1_1logic_1_1IGravityStrategy.html" target="_top" xlink:title=" ">
<polygon fill="white" stroke="black" points="0,-160.5 0,-228.5 100,-228.5 100,-160.5 0,-160.5"/>
<text text-anchor="middle" x="50" y="-216.5" font-family="Helvetica,sans-Serif" font-size="10.00">IGravityStrategy</text>
<polyline fill="none" stroke="black" points="0,-209.5 100,-209.5 "/>
<text text-anchor="start" x="8" y="-197.5" font-family="Helvetica,sans-Serif" font-size="10.00">+ CurrentGravity</text>
<text text-anchor="start" x="8" y="-186.5" font-family="Helvetica,sans-Serif" font-size="10.00">+ Gravity</text>
<polyline fill="none" stroke="black" points="0,-179.5 100,-179.5 "/>
<text text-anchor="middle" x="50" y="-167.5" font-family="Helvetica,sans-Serif" font-size="10.00"> </text>
</a>
</g>
</g>
<!-- Node2&#45;&gt;Node1 -->
<g id="edge1" class="edge">
<title>Node2&#45;&gt;Node1</title>
<path fill="none" stroke="midnightblue" d="M75.88,-151.4C85.5,-135.76 96.51,-117.86 106.5,-101.61"/>
<polygon fill="none" stroke="midnightblue" points="72.65,-149.97 70.4,-160.32 78.62,-153.64 72.65,-149.97"/>
</g>
<!-- Node3 -->
<g id="node3" class="node">
<title>Node3</title>
<g id="a_node3"><a xlink:title=" ">
<polygon fill="white" stroke="black" points="118,-166 118,-223 156,-223 156,-166 118,-166"/>
<text text-anchor="middle" x="137" y="-211" font-family="Helvetica,sans-Serif" font-size="10.00">float</text>
<polyline fill="none" stroke="black" points="118,-204 156,-204 "/>
<text text-anchor="middle" x="137" y="-192" font-family="Helvetica,sans-Serif" font-size="10.00"> </text>
<polyline fill="none" stroke="black" points="118,-185 156,-185 "/>
<text text-anchor="middle" x="137" y="-173" font-family="Helvetica,sans-Serif" font-size="10.00"> </text>
</a>
</g>
</g>
<!-- Node3&#45;&gt;Node1 -->
<g id="edge2" class="edge">
<title>Node3&#45;&gt;Node1</title>
<path fill="none" stroke="#404040" d="M137,-165.88C137,-150.98 137,-131.94 137,-113.72"/>
<polygon fill="none" stroke="#404040" points="137,-113.6 133,-107.6 137,-101.6 141,-107.6 137,-113.6"/>
<text text-anchor="middle" x="200.5" y="-134" font-family="Helvetica,sans-Serif" font-size="10.00"> &#45;GravityIncreasePerLevel</text>
<text text-anchor="middle" x="200.5" y="-123" font-family="Helvetica,sans-Serif" font-size="10.00">&#45;_gravityBase</text>
</g>
<!-- Node4 -->
<g id="node4" class="node">
<title>Node4</title>
<g id="a_node4"><a xlink:title=" ">
<polygon fill="white" stroke="black" points="272.5,-166 272.5,-223 301.5,-223 301.5,-166 272.5,-166"/>
<text text-anchor="middle" x="287" y="-211" font-family="Helvetica,sans-Serif" font-size="10.00">int</text>
<polyline fill="none" stroke="black" points="272.5,-204 301.5,-204 "/>
<text text-anchor="middle" x="287" y="-192" font-family="Helvetica,sans-Serif" font-size="10.00"> </text>
<polyline fill="none" stroke="black" points="272.5,-185 301.5,-185 "/>
<text text-anchor="middle" x="287" y="-173" font-family="Helvetica,sans-Serif" font-size="10.00"> </text>
</a>
</g>
</g>
<!-- Node4&#45;&gt;Node1 -->
<g id="edge3" class="edge">
<title>Node4&#45;&gt;Node1</title>
<path fill="none" stroke="#404040" d="M283.97,-165.93C281.14,-150.99 275.64,-132.98 265,-120 255.5,-108.41 243.48,-98.53 230.65,-90.19"/>
<polygon fill="none" stroke="#404040" points="230.45,-90.07 223.25,-90.37 220.2,-83.83 227.41,-83.54 230.45,-90.07"/>
<text text-anchor="middle" x="295.5" y="-128.5" font-family="Helvetica,sans-Serif" font-size="10.00"> &#45;_level</text>
</g>
</g>
</svg>
