<?xml version="1.0" encoding="UTF-8" standalone="no"?>
<!DOCTYPE svg PUBLIC "-//W3C//DTD SVG 1.1//EN"
 "http://www.w3.org/Graphics/SVG/1.1/DTD/svg11.dtd">
<!-- Generated by graphviz version 2.43.0 (0)
 -->
<!-- Title: game.logic.tilespawner.TileSpawnerService Pages: 1 -->
<svg width="335pt" height="292pt"
 viewBox="0.00 0.00 334.50 292.00" xmlns="http://www.w3.org/2000/svg" xmlns:xlink="http://www.w3.org/1999/xlink">
<g id="graph0" class="graph" transform="scale(1 1) rotate(0) translate(4 288)">
<title>game.logic.tilespawner.TileSpawnerService</title>
<polygon fill="white" stroke="transparent" points="-4,4 -4,-288 330.5,-288 330.5,4 -4,4"/>
<!-- Node1 -->
<g id="node1" class="node">
<title>Node1</title>
<g id="a_node1"><a xlink:title=" ">
<polygon fill="#bfbfbf" stroke="black" points="85,-0.5 85,-178.5 245,-178.5 245,-0.5 85,-0.5"/>
<text text-anchor="start" x="93" y="-166.5" font-family="Helvetica,sans-Serif" font-size="10.00">game.logic.tilespawner.Tile</text>
<text text-anchor="middle" x="165" y="-155.5" font-family="Helvetica,sans-Serif" font-size="10.00">SpawnerService</text>
<polyline fill="none" stroke="black" points="85,-148.5 245,-148.5 "/>
<text text-anchor="middle" x="165" y="-136.5" font-family="Helvetica,sans-Serif" font-size="10.00"> </text>
<polyline fill="none" stroke="black" points="85,-129.5 245,-129.5 "/>
<text text-anchor="start" x="93" y="-117.5" font-family="Helvetica,sans-Serif" font-size="10.00">+ CreateTileShapeDelegate()</text>
<text text-anchor="start" x="93" y="-106.5" font-family="Helvetica,sans-Serif" font-size="10.00">+ TileSpawnerService()</text>
<text text-anchor="start" x="93" y="-95.5" font-family="Helvetica,sans-Serif" font-size="10.00">+ Spawn()</text>
<text text-anchor="start" x="93" y="-84.5" font-family="Helvetica,sans-Serif" font-size="10.00">&#45; Shuffle()</text>
<text text-anchor="start" x="93" y="-73.5" font-family="Helvetica,sans-Serif" font-size="10.00">&#45; SpawnIPiece()</text>
<text text-anchor="start" x="93" y="-62.5" font-family="Helvetica,sans-Serif" font-size="10.00">&#45; SpawnJPiece()</text>
<text text-anchor="start" x="93" y="-51.5" font-family="Helvetica,sans-Serif" font-size="10.00">&#45; SpawnLPiece()</text>
<text text-anchor="start" x="93" y="-40.5" font-family="Helvetica,sans-Serif" font-size="10.00">&#45; SpawnOPiece()</text>
<text text-anchor="start" x="93" y="-29.5" font-family="Helvetica,sans-Serif" font-size="10.00">&#45; SpawnSPiece()</text>
<text text-anchor="start" x="93" y="-18.5" font-family="Helvetica,sans-Serif" font-size="10.00">&#45; SpawnTPiece()</text>
<text text-anchor="start" x="93" y="-7.5" font-family="Helvetica,sans-Serif" font-size="10.00">&#45; SpawnZPiece()</text>
</a>
</g>
</g>
<!-- Node2 -->
<g id="node2" class="node">
<title>Node2</title>
<g id="a_node2"><a xlink:href="interfacegame_1_1service_1_1IService.html" target="_top" xlink:title=" ">
<polygon fill="white" stroke="black" points="0,-226.5 0,-283.5 56,-283.5 56,-226.5 0,-226.5"/>
<text text-anchor="middle" x="28" y="-271.5" font-family="Helvetica,sans-Serif" font-size="10.00">IService</text>
<polyline fill="none" stroke="black" points="0,-264.5 56,-264.5 "/>
<text text-anchor="middle" x="28" y="-252.5" font-family="Helvetica,sans-Serif" font-size="10.00"> </text>
<polyline fill="none" stroke="black" points="0,-245.5 56,-245.5 "/>
<text text-anchor="middle" x="28" y="-233.5" font-family="Helvetica,sans-Serif" font-size="10.00"> </text>
</a>
</g>
</g>
<!-- Node2&#45;&gt;Node1 -->
<g id="edge1" class="edge">
<title>Node2&#45;&gt;Node1</title>
<path fill="none" stroke="midnightblue" d="M57.84,-218.38C67.78,-206.52 79.33,-192.74 91.1,-178.7"/>
<polygon fill="none" stroke="midnightblue" points="54.98,-216.35 51.24,-226.26 60.35,-220.85 54.98,-216.35"/>
</g>
<!-- Node3 -->
<g id="node3" class="node">
<title>Node3</title>
<g id="a_node3"><a xlink:title=" ">
<polygon fill="white" stroke="black" points="74.5,-226.5 74.5,-283.5 255.5,-283.5 255.5,-226.5 74.5,-226.5"/>
<text text-anchor="middle" x="165" y="-271.5" font-family="Helvetica,sans-Serif" font-size="10.00">List&lt; CreateTileShapeDelegate &gt;</text>
<polyline fill="none" stroke="black" points="74.5,-264.5 255.5,-264.5 "/>
<text text-anchor="middle" x="165" y="-252.5" font-family="Helvetica,sans-Serif" font-size="10.00"> </text>
<polyline fill="none" stroke="black" points="74.5,-245.5 255.5,-245.5 "/>
<text text-anchor="middle" x="165" y="-233.5" font-family="Helvetica,sans-Serif" font-size="10.00"> </text>
</a>
</g>
</g>
<!-- Node3&#45;&gt;Node1 -->
<g id="edge2" class="edge">
<title>Node3&#45;&gt;Node1</title>
<path fill="none" stroke="#404040" d="M165,-226.26C165,-216.01 165,-203.7 165,-190.74"/>
<polygon fill="none" stroke="#404040" points="165,-190.7 161,-184.7 165,-178.7 169,-184.7 165,-190.7"/>
<text text-anchor="middle" x="187" y="-200" font-family="Helvetica,sans-Serif" font-size="10.00"> &#45;_pieces</text>
</g>
<!-- Node4 -->
<g id="node4" class="node">
<title>Node4</title>
<g id="a_node4"><a xlink:title=" ">
<polygon fill="white" stroke="black" points="273.5,-226.5 273.5,-283.5 326.5,-283.5 326.5,-226.5 273.5,-226.5"/>
<text text-anchor="middle" x="300" y="-271.5" font-family="Helvetica,sans-Serif" font-size="10.00">System</text>
<polyline fill="none" stroke="black" points="273.5,-264.5 326.5,-264.5 "/>
<text text-anchor="middle" x="300" y="-252.5" font-family="Helvetica,sans-Serif" font-size="10.00"> </text>
<polyline fill="none" stroke="black" points="273.5,-245.5 326.5,-245.5 "/>
<text text-anchor="middle" x="300" y="-233.5" font-family="Helvetica,sans-Serif" font-size="10.00"> </text>
</a>
</g>
</g>
<!-- Node4&#45;&gt;Node1 -->
<g id="edge3" class="edge">
<title>Node4&#45;&gt;Node1</title>
<path fill="none" stroke="#404040" d="M277.1,-226.26C268.03,-215.28 257.01,-201.94 245.47,-187.96"/>
<polygon fill="none" stroke="#404040" points="245.46,-187.95 238.56,-185.87 237.82,-178.7 244.73,-180.78 245.46,-187.95"/>
<text text-anchor="middle" x="271.5" y="-200" font-family="Helvetica,sans-Serif" font-size="10.00"> &#45;rng</text>
</g>
</g>
</svg>
