<?xml version="1.0" encoding="UTF-8" standalone="no"?>
<!DOCTYPE svg PUBLIC "-//W3C//DTD SVG 1.1//EN"
 "http://www.w3.org/Graphics/SVG/1.1/DTD/svg11.dtd">
<!-- Generated by graphviz version 2.43.0 (0)
 -->
<!-- Title: game.logic.tile.TileViewModel Pages: 1 -->
<!--zoomable 535 -->
<svg id="main" version="1.1" xmlns="http://www.w3.org/2000/svg" xmlns:xlink="http://www.w3.org/1999/xlink" xml:space="preserve" onload="init(evt)">
<style type="text/css"><![CDATA[
.edge:hover path { stroke: red; }
.edge:hover polygon { stroke: red; fill: red; }
]]></style>
<script type="text/javascript"><![CDATA[
var edges = document.getElementsByTagName('g');
if (edges && edges.length) {
  for (var i=0;i<edges.length;i++) {
    if (edges[i].id.substr(0,4)=='edge') {
      edges[i].setAttribute('class','edge');
    }
  }
}
]]></script>
        <defs>
                <circle id="rim" cx="0" cy="0" r="7"/>
                <circle id="rim2" cx="0" cy="0" r="3.5"/>
                <g id="zoomPlus">
                        <use xlink:href="#rim" fill="#404040">
                                <set attributeName="fill" to="#808080" begin="zoomplus.mouseover" end="zoomplus.mouseout"/>
                        </use>
                        <path d="M-4,0h8M0,-4v8" fill="none" stroke="white" stroke-width="1.5" pointer-events="none"/>
                </g>
                <g id="zoomMin">
                        <use xlink:href="#rim" fill="#404040">
                                <set attributeName="fill" to="#808080" begin="zoomminus.mouseover" end="zoomminus.mouseout"/>
                        </use>
                        <path d="M-4,0h8" fill="none" stroke="white" stroke-width="1.5" pointer-events="none"/>
                </g>
                <g id="dirArrow">
                        <path fill="none" stroke="white" stroke-width="1.5" d="M0,-3.0v7 M-2.5,-0.5L0,-3.0L2.5,-0.5"/>
                </g>
               <g id="resetDef">
                       <use xlink:href="#rim2" fill="#404040">
                               <set attributeName="fill" to="#808080" begin="reset.mouseover" end="reset.mouseout"/>
                       </use>
               </g>
        </defs>

<script type="text/javascript">
var viewWidth = 459;
var viewHeight = 535;
var sectionId = 'dynsection-0';
</script>
<script xlink:href="svgpan.js"/>
<svg id="graph" class="graph">
<g id="viewport">
<title>game.logic.tile.TileViewModel</title>
<polygon fill="white" stroke="transparent" points="-4,4 -4,-531 454.5,-531 454.5,4 -4,4"/>
<!-- Node1 -->
<g id="node1" class="node">
<title>Node1</title>
<g id="a_node1"><a xlink:title=" ">
<polygon fill="#bfbfbf" stroke="black" points="0,-0.5 0,-90.5 134,-90.5 134,-0.5 0,-0.5"/>
<text text-anchor="start" x="8" y="-78.5" font-family="Helvetica,sans-Serif" font-size="10.00">game.logic.tile.TileView</text>
<text text-anchor="middle" x="67" y="-67.5" font-family="Helvetica,sans-Serif" font-size="10.00">Model</text>
<polyline fill="none" stroke="black" points="0,-60.5 134,-60.5 "/>
<text text-anchor="start" x="8" y="-48.5" font-family="Helvetica,sans-Serif" font-size="10.00">+ X</text>
<text text-anchor="start" x="8" y="-37.5" font-family="Helvetica,sans-Serif" font-size="10.00">+ Y</text>
<text text-anchor="start" x="8" y="-26.5" font-family="Helvetica,sans-Serif" font-size="10.00">+ Color</text>
<polyline fill="none" stroke="black" points="0,-19.5 134,-19.5 "/>
<text text-anchor="start" x="8" y="-7.5" font-family="Helvetica,sans-Serif" font-size="10.00">+ TileViewModel()</text>
</a>
</g>
</g>
<!-- Node2 -->
<g id="node2" class="node">
<title>Node2</title>
<g id="a_node2"><a xlink:href="classgame_1_1logic_1_1playfield_1_1PlayFieldViewModel.html" target="_top" xlink:title=" ">
<polygon fill="white" stroke="black" points="149,-138.5 149,-261.5 289,-261.5 289,-138.5 149,-138.5"/>
<text text-anchor="start" x="157" y="-249.5" font-family="Helvetica,sans-Serif" font-size="10.00">game.logic.playfield.Play</text>
<text text-anchor="middle" x="219" y="-238.5" font-family="Helvetica,sans-Serif" font-size="10.00">FieldViewModel</text>
<polyline fill="none" stroke="black" points="149,-231.5 289,-231.5 "/>
<text text-anchor="start" x="157" y="-219.5" font-family="Helvetica,sans-Serif" font-size="10.00">+ Width</text>
<text text-anchor="start" x="157" y="-208.5" font-family="Helvetica,sans-Serif" font-size="10.00">+ Height</text>
<text text-anchor="start" x="157" y="-197.5" font-family="Helvetica,sans-Serif" font-size="10.00">+ Tiles</text>
<polyline fill="none" stroke="black" points="149,-190.5 289,-190.5 "/>
<text text-anchor="start" x="157" y="-178.5" font-family="Helvetica,sans-Serif" font-size="10.00">+ PlayFieldViewModel()</text>
<text text-anchor="start" x="157" y="-167.5" font-family="Helvetica,sans-Serif" font-size="10.00">+ GetTile()</text>
<text text-anchor="start" x="157" y="-156.5" font-family="Helvetica,sans-Serif" font-size="10.00">+ PlaceTile()</text>
<text text-anchor="start" x="157" y="-145.5" font-family="Helvetica,sans-Serif" font-size="10.00">+ Update()</text>
</a>
</g>
</g>
<!-- Node2&#45;&gt;Node1 -->
<g id="edge1" class="edge">
<title>Node2&#45;&gt;Node1</title>
<path fill="none" stroke="#404040" d="M158.49,-138.29C145.57,-125.33 132.04,-111.75 119.45,-99.13"/>
<polygon fill="none" stroke="#404040" points="119.39,-99.06 112.32,-97.63 110.91,-90.56 117.98,-91.98 119.39,-99.06"/>
<text text-anchor="middle" x="175.5" y="-112" font-family="Helvetica,sans-Serif" font-size="10.00"> &#45;_playFieldVM</text>
</g>
<!-- Node3 -->
<g id="node3" class="node">
<title>Node3</title>
<g id="a_node3"><a xlink:href="interfacegamerunner_1_1IUpdatable.html" target="_top" xlink:title=" ">
<polygon fill="white" stroke="black" points="379.5,-331.5 379.5,-388.5 450.5,-388.5 450.5,-331.5 379.5,-331.5"/>
<text text-anchor="middle" x="415" y="-376.5" font-family="Helvetica,sans-Serif" font-size="10.00">IUpdatable</text>
<polyline fill="none" stroke="black" points="379.5,-369.5 450.5,-369.5 "/>
<text text-anchor="middle" x="415" y="-357.5" font-family="Helvetica,sans-Serif" font-size="10.00"> </text>
<polyline fill="none" stroke="black" points="379.5,-350.5 450.5,-350.5 "/>
<text text-anchor="start" x="387.5" y="-338.5" font-family="Helvetica,sans-Serif" font-size="10.00">+ Update()</text>
</a>
</g>
</g>
<!-- Node3&#45;&gt;Node2 -->
<g id="edge2" class="edge">
<title>Node3&#45;&gt;Node2</title>
<path fill="none" stroke="midnightblue" d="M387.78,-323.43C375.83,-309.04 361.1,-292.84 346,-280 328.69,-265.28 308.38,-251.4 289.14,-239.49"/>
<polygon fill="none" stroke="midnightblue" points="385.09,-325.66 394.12,-331.2 390.51,-321.24 385.09,-325.66"/>
</g>
<!-- Node4 -->
<g id="node4" class="node">
<title>Node4</title>
<g id="a_node4"><a xlink:href="classgame_1_1logic_1_1playfield_1_1PlayField.html" target="_top" xlink:title=" ">
<polygon fill="white" stroke="black" points="45,-320.5 45,-399.5 185,-399.5 185,-320.5 45,-320.5"/>
<text text-anchor="start" x="53" y="-387.5" font-family="Helvetica,sans-Serif" font-size="10.00">game.logic.playfield.Play</text>
<text text-anchor="middle" x="115" y="-376.5" font-family="Helvetica,sans-Serif" font-size="10.00">Field</text>
<polyline fill="none" stroke="black" points="45,-369.5 185,-369.5 "/>
<text text-anchor="start" x="53" y="-357.5" font-family="Helvetica,sans-Serif" font-size="10.00">+ Width</text>
<text text-anchor="start" x="53" y="-346.5" font-family="Helvetica,sans-Serif" font-size="10.00">+ Height</text>
<polyline fill="none" stroke="black" points="45,-339.5 185,-339.5 "/>
<text text-anchor="middle" x="115" y="-327.5" font-family="Helvetica,sans-Serif" font-size="10.00"> </text>
</a>
</g>
</g>
<!-- Node4&#45;&gt;Node2 -->
<g id="edge3" class="edge">
<title>Node4&#45;&gt;Node2</title>
<path fill="none" stroke="#404040" d="M140.44,-320.35C150.05,-305.75 161.32,-288.63 172.27,-271.99"/>
<polygon fill="none" stroke="#404040" points="172.43,-271.75 172.39,-264.54 179.03,-261.72 179.07,-268.94 172.43,-271.75"/>
<text text-anchor="middle" x="195.5" y="-288.5" font-family="Helvetica,sans-Serif" font-size="10.00"> &#45;_playField</text>
</g>
<!-- Node5 -->
<g id="node5" class="node">
<title>Node5</title>
<g id="a_node5"><a xlink:title=" ">
<polygon fill="white" stroke="black" points="7.5,-464 7.5,-521 36.5,-521 36.5,-464 7.5,-464"/>
<text text-anchor="middle" x="22" y="-509" font-family="Helvetica,sans-Serif" font-size="10.00">int</text>
<polyline fill="none" stroke="black" points="7.5,-502 36.5,-502 "/>
<text text-anchor="middle" x="22" y="-490" font-family="Helvetica,sans-Serif" font-size="10.00"> </text>
<polyline fill="none" stroke="black" points="7.5,-483 36.5,-483 "/>
<text text-anchor="middle" x="22" y="-471" font-family="Helvetica,sans-Serif" font-size="10.00"> </text>
</a>
</g>
</g>
<!-- Node5&#45;&gt;Node1 -->
<g id="edge8" class="edge">
<title>Node5&#45;&gt;Node1</title>
<path fill="none" stroke="#404040" d="M23.99,-463.85C26.49,-429.94 31.06,-370.69 36,-320 43.35,-244.61 53.48,-157.72 60.13,-102.48"/>
<polygon fill="none" stroke="#404040" points="60.14,-102.42 56.89,-95.99 61.58,-90.51 64.83,-96.95 60.14,-102.42"/>
<text text-anchor="middle" x="49.5" y="-294" font-family="Helvetica,sans-Serif" font-size="10.00"> &#45;_x</text>
<text text-anchor="middle" x="49.5" y="-283" font-family="Helvetica,sans-Serif" font-size="10.00">&#45;_y</text>
</g>
<!-- Node5&#45;&gt;Node4 -->
<g id="edge4" class="edge">
<title>Node5&#45;&gt;Node4</title>
<path fill="none" stroke="#404040" d="M32.03,-463.66C37.87,-449.33 46.06,-431.98 56,-418 58.16,-414.96 60.49,-411.95 62.94,-408.99"/>
<polygon fill="none" stroke="#404040" points="63.15,-408.75 64.12,-401.61 71.09,-399.75 70.12,-406.9 63.15,-408.75"/>
<text text-anchor="middle" x="87.5" y="-432" font-family="Helvetica,sans-Serif" font-size="10.00"> &#45;FieldHeight</text>
<text text-anchor="middle" x="87.5" y="-421" font-family="Helvetica,sans-Serif" font-size="10.00">&#45;FieldWidth</text>
</g>
<!-- Node6 -->
<g id="node6" class="node">
<title>Node6</title>
<g id="a_node6"><a xlink:href="interfacegame_1_1logic_1_1tile_1_1ITileable.html" target="_top" xlink:title=" ">
<polygon fill="white" stroke="black" points="64,-464 64,-521 198,-521 198,-464 64,-464"/>
<text text-anchor="middle" x="131" y="-509" font-family="Helvetica,sans-Serif" font-size="10.00">game.logic.tile.ITileable</text>
<polyline fill="none" stroke="black" points="64,-502 198,-502 "/>
<text text-anchor="start" x="72" y="-490" font-family="Helvetica,sans-Serif" font-size="10.00">+ Color</text>
<polyline fill="none" stroke="black" points="64,-483 198,-483 "/>
<text text-anchor="middle" x="131" y="-471" font-family="Helvetica,sans-Serif" font-size="10.00"> </text>
</a>
</g>
</g>
<!-- Node6&#45;&gt;Node4 -->
<g id="edge5" class="edge">
<title>Node6&#45;&gt;Node4</title>
<path fill="none" stroke="#404040" d="M127.61,-463.82C125.74,-448.63 123.37,-429.3 121.19,-411.52"/>
<polygon fill="none" stroke="#404040" points="121.18,-411.44 116.48,-405.97 119.72,-399.53 124.42,-404.99 121.18,-411.44"/>
<text text-anchor="middle" x="142.5" y="-426.5" font-family="Helvetica,sans-Serif" font-size="10.00"> +Field</text>
</g>
<!-- Node7 -->
<g id="node7" class="node">
<title>Node7</title>
<g id="a_node7"><a xlink:href="classgame_1_1service_1_1ServiceLocator.html" target="_top" xlink:title=" ">
<polygon fill="white" stroke="black" points="203,-320.5 203,-399.5 361,-399.5 361,-320.5 203,-320.5"/>
<text text-anchor="middle" x="282" y="-387.5" font-family="Helvetica,sans-Serif" font-size="10.00">game.service.ServiceLocator</text>
<polyline fill="none" stroke="black" points="203,-380.5 361,-380.5 "/>
<text text-anchor="middle" x="282" y="-368.5" font-family="Helvetica,sans-Serif" font-size="10.00"> </text>
<polyline fill="none" stroke="black" points="203,-361.5 361,-361.5 "/>
<text text-anchor="start" x="211" y="-349.5" font-family="Helvetica,sans-Serif" font-size="10.00">+ ServiceLocator()</text>
<text text-anchor="start" x="211" y="-338.5" font-family="Helvetica,sans-Serif" font-size="10.00">+ GetService&lt; T &gt;()</text>
<text text-anchor="start" x="211" y="-327.5" font-family="Helvetica,sans-Serif" font-size="10.00">+ RegisterService&lt; T &gt;()</text>
</a>
</g>
</g>
<!-- Node7&#45;&gt;Node2 -->
<g id="edge6" class="edge">
<title>Node7&#45;&gt;Node2</title>
<path fill="none" stroke="#404040" d="M266.59,-320.35C260.88,-306.02 254.2,-289.28 247.68,-272.94"/>
<polygon fill="none" stroke="#404040" points="247.66,-272.87 241.72,-268.78 243.21,-261.72 249.15,-265.82 247.66,-272.87"/>
<text text-anchor="middle" x="300" y="-288.5" font-family="Helvetica,sans-Serif" font-size="10.00"> &#45;_serviceLocator</text>
</g>
<!-- Node8 -->
<g id="node8" class="node">
<title>Node8</title>
<g id="a_node8"><a xlink:title=" ">
<polygon fill="white" stroke="black" points="216.5,-458.5 216.5,-526.5 355.5,-526.5 355.5,-458.5 216.5,-458.5"/>
<text text-anchor="start" x="224.5" y="-514.5" font-family="Helvetica,sans-Serif" font-size="10.00">IDictionary&lt; object,</text>
<text text-anchor="middle" x="286" y="-503.5" font-family="Helvetica,sans-Serif" font-size="10.00"> game.service.IService &gt;</text>
<polyline fill="none" stroke="black" points="216.5,-496.5 355.5,-496.5 "/>
<text text-anchor="middle" x="286" y="-484.5" font-family="Helvetica,sans-Serif" font-size="10.00"> </text>
<polyline fill="none" stroke="black" points="216.5,-477.5 355.5,-477.5 "/>
<text text-anchor="middle" x="286" y="-465.5" font-family="Helvetica,sans-Serif" font-size="10.00"> </text>
</a>
</g>
</g>
<!-- Node8&#45;&gt;Node7 -->
<g id="edge7" class="edge">
<title>Node8&#45;&gt;Node7</title>
<path fill="none" stroke="#404040" d="M284.98,-458.23C284.55,-444.17 284.04,-427.47 283.56,-411.92"/>
<polygon fill="none" stroke="#404040" points="283.56,-411.76 279.37,-405.88 283.19,-399.77 287.37,-405.64 283.56,-411.76"/>
<text text-anchor="middle" x="309" y="-426.5" font-family="Helvetica,sans-Serif" font-size="10.00"> &#45;services</text>
</g>
</g>
</svg>
        <g id="navigator" transform="translate(0 0)" fill="#404254">
                <rect fill="#f2f5e9" fill-opacity="0.5" stroke="#606060" stroke-width=".5" x="0" y="0" width="60" height="60"/>
                <use id="zoomplus" xlink:href="#zoomPlus" x="17" y="9" onmousedown="handleZoom(evt,'in')"/>
                <use id="zoomminus" xlink:href="#zoomMin" x="42" y="9" onmousedown="handleZoom(evt,'out')"/>
                <use id="reset" xlink:href="#resetDef" x="30" y="36" onmousedown="handleReset()"/>
                <g id="arrowUp" xlink:href="#dirArrow" transform="translate(30 24)" onmousedown="handlePan(0,-1)">
                  <use xlink:href="#rim" fill="#404040">
                        <set attributeName="fill" to="#808080" begin="arrowUp.mouseover" end="arrowUp.mouseout"/>
                  </use>
                  <path fill="none" stroke="white" stroke-width="1.5" d="M0,-3.0v7 M-2.5,-0.5L0,-3.0L2.5,-0.5"/>
                </g>
                <g id="arrowRight" xlink:href="#dirArrow" transform="rotate(90) translate(36 -43)" onmousedown="handlePan(1,0)">
                  <use xlink:href="#rim" fill="#404040">
                        <set attributeName="fill" to="#808080" begin="arrowRight.mouseover" end="arrowRight.mouseout"/>
                  </use>
                  <path fill="none" stroke="white" stroke-width="1.5" d="M0,-3.0v7 M-2.5,-0.5L0,-3.0L2.5,-0.5"/>
                </g>
                <g id="arrowDown" xlink:href="#dirArrow" transform="rotate(180) translate(-30 -48)" onmousedown="handlePan(0,1)">
                  <use xlink:href="#rim" fill="#404040">
                        <set attributeName="fill" to="#808080" begin="arrowDown.mouseover" end="arrowDown.mouseout"/>
                  </use>
                  <path fill="none" stroke="white" stroke-width="1.5" d="M0,-3.0v7 M-2.5,-0.5L0,-3.0L2.5,-0.5"/>
                </g>
                <g id="arrowLeft" xlink:href="#dirArrow" transform="rotate(270) translate(-36 17)" onmousedown="handlePan(-1,0)">
                  <use xlink:href="#rim" fill="#404040">
                        <set attributeName="fill" to="#808080" begin="arrowLeft.mouseover" end="arrowLeft.mouseout"/>
                  </use>
                  <path fill="none" stroke="white" stroke-width="1.5" d="M0,-3.0v7 M-2.5,-0.5L0,-3.0L2.5,-0.5"/>
                </g>
        </g>
        <svg viewBox="0 0 15 15" width="100%" height="30px" preserveAspectRatio="xMaxYMin meet">
         <g id="arrow_out" transform="scale(0.3 0.3)">
          <a xlink:href="classgame_1_1logic_1_1tile_1_1TileViewModel__coll__graph_org.svg" target="_base">
           <rect id="button" ry="5" rx="5" y="6" x="6" height="38" width="38"
                fill="#f2f5e9" fill-opacity="0.5" stroke="#606060" stroke-width="1.0"/>
           <path id="arrow"
             d="M 11.500037,31.436501 C 11.940474,20.09759 22.043105,11.32322 32.158766,21.979434 L 37.068811,17.246167 C 37.068811,17.246167 37.088388,32 37.088388,32 L 22.160133,31.978069 C 22.160133,31.978069 26.997745,27.140456 26.997745,27.140456 C 18.528582,18.264221 13.291696,25.230495 11.500037,31.436501 z"
             style="fill:#404040;"/>
          </a>
         </g>
        </svg>
</svg>
