<?xml version="1.0" encoding="UTF-8" standalone="no"?>
<!DOCTYPE svg PUBLIC "-//W3C//DTD SVG 1.1//EN"
 "http://www.w3.org/Graphics/SVG/1.1/DTD/svg11.dtd">
<!-- Generated by graphviz version 2.43.0 (0)
 -->
<!-- Title: game.logic.tile.TileView Pages: 1 -->
<!--zoomable 662 -->
<svg id="main" version="1.1" xmlns="http://www.w3.org/2000/svg" xmlns:xlink="http://www.w3.org/1999/xlink" xml:space="preserve" onload="init(evt)">
<style type="text/css"><![CDATA[
.edge:hover path { stroke: red; }
.edge:hover polygon { stroke: red; fill: red; }
]]></style>
<script type="text/javascript"><![CDATA[
var edges = document.getElementsByTagName('g');
if (edges && edges.length) {
  for (var i=0;i<edges.length;i++) {
    if (edges[i].id.substr(0,4)=='edge') {
      edges[i].setAttribute('class','edge');
    }
  }
}
]]></script>
        <defs>
                <circle id="rim" cx="0" cy="0" r="7"/>
                <circle id="rim2" cx="0" cy="0" r="3.5"/>
                <g id="zoomPlus">
                        <use xlink:href="#rim" fill="#404040">
                                <set attributeName="fill" to="#808080" begin="zoomplus.mouseover" end="zoomplus.mouseout"/>
                        </use>
                        <path d="M-4,0h8M0,-4v8" fill="none" stroke="white" stroke-width="1.5" pointer-events="none"/>
                </g>
                <g id="zoomMin">
                        <use xlink:href="#rim" fill="#404040">
                                <set attributeName="fill" to="#808080" begin="zoomminus.mouseover" end="zoomminus.mouseout"/>
                        </use>
                        <path d="M-4,0h8" fill="none" stroke="white" stroke-width="1.5" pointer-events="none"/>
                </g>
                <g id="dirArrow">
                        <path fill="none" stroke="white" stroke-width="1.5" d="M0,-3.0v7 M-2.5,-0.5L0,-3.0L2.5,-0.5"/>
                </g>
               <g id="resetDef">
                       <use xlink:href="#rim2" fill="#404040">
                               <set attributeName="fill" to="#808080" begin="reset.mouseover" end="reset.mouseout"/>
                       </use>
               </g>
        </defs>

<script type="text/javascript">
var viewWidth = 677;
var viewHeight = 662;
var sectionId = 'dynsection-1';
</script>
<script xlink:href="svgpan.js"/>
<svg id="graph" class="graph">
<g id="viewport">
<title>game.logic.tile.TileView</title>
<polygon fill="white" stroke="transparent" points="-4,4 -4,-658 673,-658 673,4 -4,4"/>
<!-- Node1 -->
<g id="node1" class="node">
<title>Node1</title>
<g id="a_node1"><a xlink:title=" ">
<polygon fill="#bfbfbf" stroke="black" points="88.5,-0.5 88.5,-79.5 222.5,-79.5 222.5,-0.5 88.5,-0.5"/>
<text text-anchor="middle" x="155.5" y="-67.5" font-family="Helvetica,sans-Serif" font-size="10.00">game.logic.tile.TileView</text>
<polyline fill="none" stroke="black" points="88.5,-60.5 222.5,-60.5 "/>
<text text-anchor="middle" x="155.5" y="-48.5" font-family="Helvetica,sans-Serif" font-size="10.00"> </text>
<polyline fill="none" stroke="black" points="88.5,-41.5 222.5,-41.5 "/>
<text text-anchor="start" x="96.5" y="-29.5" font-family="Helvetica,sans-Serif" font-size="10.00">+ Link()</text>
<text text-anchor="start" x="96.5" y="-18.5" font-family="Helvetica,sans-Serif" font-size="10.00">&#45; Start()</text>
<text text-anchor="start" x="96.5" y="-7.5" font-family="Helvetica,sans-Serif" font-size="10.00">&#45; Update()</text>
</a>
</g>
</g>
<!-- Node2 -->
<g id="node2" class="node">
<title>Node2</title>
<g id="a_node2"><a xlink:href="classMonoBehaviour.html" target="_top" xlink:title=" ">
<polygon fill="white" stroke="black" points="0,-144 0,-201 93,-201 93,-144 0,-144"/>
<text text-anchor="middle" x="46.5" y="-189" font-family="Helvetica,sans-Serif" font-size="10.00">MonoBehaviour</text>
<polyline fill="none" stroke="black" points="0,-182 93,-182 "/>
<text text-anchor="middle" x="46.5" y="-170" font-family="Helvetica,sans-Serif" font-size="10.00"> </text>
<polyline fill="none" stroke="black" points="0,-163 93,-163 "/>
<text text-anchor="middle" x="46.5" y="-151" font-family="Helvetica,sans-Serif" font-size="10.00"> </text>
</a>
</g>
</g>
<!-- Node2&#45;&gt;Node1 -->
<g id="edge1" class="edge">
<title>Node2&#45;&gt;Node1</title>
<path fill="none" stroke="midnightblue" d="M76.1,-136.07C90.71,-118.57 108.37,-97.42 123.32,-79.53"/>
<polygon fill="none" stroke="midnightblue" points="73.34,-133.91 69.62,-143.82 78.71,-138.39 73.34,-133.91"/>
</g>
<!-- Node3 -->
<g id="node3" class="node">
<title>Node3</title>
<g id="a_node3"><a xlink:title=" ">
<polygon fill="white" stroke="black" points="111,-144 111,-201 200,-201 200,-144 111,-144"/>
<text text-anchor="middle" x="155.5" y="-189" font-family="Helvetica,sans-Serif" font-size="10.00">SpriteRenderer</text>
<polyline fill="none" stroke="black" points="111,-182 200,-182 "/>
<text text-anchor="middle" x="155.5" y="-170" font-family="Helvetica,sans-Serif" font-size="10.00"> </text>
<polyline fill="none" stroke="black" points="111,-163 200,-163 "/>
<text text-anchor="middle" x="155.5" y="-151" font-family="Helvetica,sans-Serif" font-size="10.00"> </text>
</a>
</g>
</g>
<!-- Node3&#45;&gt;Node1 -->
<g id="edge2" class="edge">
<title>Node3&#45;&gt;Node1</title>
<path fill="none" stroke="#404040" d="M155.5,-143.82C155.5,-128.7 155.5,-109.49 155.5,-91.78"/>
<polygon fill="none" stroke="#404040" points="155.5,-91.53 151.5,-85.53 155.5,-79.53 159.5,-85.53 155.5,-91.53"/>
<text text-anchor="middle" x="184.5" y="-101" font-family="Helvetica,sans-Serif" font-size="10.00"> +TileSprite</text>
</g>
<!-- Node4 -->
<g id="node4" class="node">
<title>Node4</title>
<g id="a_node4"><a xlink:href="classgame_1_1logic_1_1tile_1_1TileViewModel.html" target="_top" xlink:title=" ">
<polygon fill="white" stroke="black" points="218.5,-127.5 218.5,-217.5 352.5,-217.5 352.5,-127.5 218.5,-127.5"/>
<text text-anchor="start" x="226.5" y="-205.5" font-family="Helvetica,sans-Serif" font-size="10.00">game.logic.tile.TileView</text>
<text text-anchor="middle" x="285.5" y="-194.5" font-family="Helvetica,sans-Serif" font-size="10.00">Model</text>
<polyline fill="none" stroke="black" points="218.5,-187.5 352.5,-187.5 "/>
<text text-anchor="start" x="226.5" y="-175.5" font-family="Helvetica,sans-Serif" font-size="10.00">+ X</text>
<text text-anchor="start" x="226.5" y="-164.5" font-family="Helvetica,sans-Serif" font-size="10.00">+ Y</text>
<text text-anchor="start" x="226.5" y="-153.5" font-family="Helvetica,sans-Serif" font-size="10.00">+ Color</text>
<polyline fill="none" stroke="black" points="218.5,-146.5 352.5,-146.5 "/>
<text text-anchor="start" x="226.5" y="-134.5" font-family="Helvetica,sans-Serif" font-size="10.00">+ TileViewModel()</text>
</a>
</g>
</g>
<!-- Node4&#45;&gt;Node1 -->
<g id="edge3" class="edge">
<title>Node4&#45;&gt;Node1</title>
<path fill="none" stroke="#404040" d="M245.8,-127.42C236.65,-117.59 226.86,-107.33 217.5,-98 214.31,-94.82 210.99,-91.58 207.62,-88.34"/>
<polygon fill="none" stroke="#404040" points="207.32,-88.06 200.22,-86.83 198.62,-79.8 205.72,-81.03 207.32,-88.06"/>
<text text-anchor="middle" x="249.5" y="-101" font-family="Helvetica,sans-Serif" font-size="10.00"> &#45;_tileVM</text>
</g>
<!-- Node5 -->
<g id="node5" class="node">
<title>Node5</title>
<g id="a_node5"><a xlink:href="classgame_1_1logic_1_1playfield_1_1PlayFieldViewModel.html" target="_top" xlink:title=" ">
<polygon fill="white" stroke="black" points="367.5,-265.5 367.5,-388.5 507.5,-388.5 507.5,-265.5 367.5,-265.5"/>
<text text-anchor="start" x="375.5" y="-376.5" font-family="Helvetica,sans-Serif" font-size="10.00">game.logic.playfield.Play</text>
<text text-anchor="middle" x="437.5" y="-365.5" font-family="Helvetica,sans-Serif" font-size="10.00">FieldViewModel</text>
<polyline fill="none" stroke="black" points="367.5,-358.5 507.5,-358.5 "/>
<text text-anchor="start" x="375.5" y="-346.5" font-family="Helvetica,sans-Serif" font-size="10.00">+ Width</text>
<text text-anchor="start" x="375.5" y="-335.5" font-family="Helvetica,sans-Serif" font-size="10.00">+ Height</text>
<text text-anchor="start" x="375.5" y="-324.5" font-family="Helvetica,sans-Serif" font-size="10.00">+ Tiles</text>
<polyline fill="none" stroke="black" points="367.5,-317.5 507.5,-317.5 "/>
<text text-anchor="start" x="375.5" y="-305.5" font-family="Helvetica,sans-Serif" font-size="10.00">+ PlayFieldViewModel()</text>
<text text-anchor="start" x="375.5" y="-294.5" font-family="Helvetica,sans-Serif" font-size="10.00">+ GetTile()</text>
<text text-anchor="start" x="375.5" y="-283.5" font-family="Helvetica,sans-Serif" font-size="10.00">+ PlaceTile()</text>
<text text-anchor="start" x="375.5" y="-272.5" font-family="Helvetica,sans-Serif" font-size="10.00">+ Update()</text>
</a>
</g>
</g>
<!-- Node5&#45;&gt;Node4 -->
<g id="edge4" class="edge">
<title>Node5&#45;&gt;Node4</title>
<path fill="none" stroke="#404040" d="M376.99,-265.29C364.07,-252.33 350.54,-238.75 337.95,-226.13"/>
<polygon fill="none" stroke="#404040" points="337.89,-226.06 330.82,-224.63 329.41,-217.56 336.48,-218.98 337.89,-226.06"/>
<text text-anchor="middle" x="394" y="-239" font-family="Helvetica,sans-Serif" font-size="10.00"> &#45;_playFieldVM</text>
</g>
<!-- Node6 -->
<g id="node6" class="node">
<title>Node6</title>
<g id="a_node6"><a xlink:href="interfacegamerunner_1_1IUpdatable.html" target="_top" xlink:title=" ">
<polygon fill="white" stroke="black" points="598,-458.5 598,-515.5 669,-515.5 669,-458.5 598,-458.5"/>
<text text-anchor="middle" x="633.5" y="-503.5" font-family="Helvetica,sans-Serif" font-size="10.00">IUpdatable</text>
<polyline fill="none" stroke="black" points="598,-496.5 669,-496.5 "/>
<text text-anchor="middle" x="633.5" y="-484.5" font-family="Helvetica,sans-Serif" font-size="10.00"> </text>
<polyline fill="none" stroke="black" points="598,-477.5 669,-477.5 "/>
<text text-anchor="start" x="606" y="-465.5" font-family="Helvetica,sans-Serif" font-size="10.00">+ Update()</text>
</a>
</g>
</g>
<!-- Node6&#45;&gt;Node5 -->
<g id="edge5" class="edge">
<title>Node6&#45;&gt;Node5</title>
<path fill="none" stroke="midnightblue" d="M606.28,-450.43C594.33,-436.04 579.6,-419.84 564.5,-407 547.19,-392.28 526.88,-378.4 507.64,-366.49"/>
<polygon fill="none" stroke="midnightblue" points="603.59,-452.66 612.62,-458.2 609.01,-448.24 603.59,-452.66"/>
</g>
<!-- Node7 -->
<g id="node7" class="node">
<title>Node7</title>
<g id="a_node7"><a xlink:href="classgame_1_1logic_1_1playfield_1_1PlayField.html" target="_top" xlink:title=" ">
<polygon fill="white" stroke="black" points="263.5,-447.5 263.5,-526.5 403.5,-526.5 403.5,-447.5 263.5,-447.5"/>
<text text-anchor="start" x="271.5" y="-514.5" font-family="Helvetica,sans-Serif" font-size="10.00">game.logic.playfield.Play</text>
<text text-anchor="middle" x="333.5" y="-503.5" font-family="Helvetica,sans-Serif" font-size="10.00">Field</text>
<polyline fill="none" stroke="black" points="263.5,-496.5 403.5,-496.5 "/>
<text text-anchor="start" x="271.5" y="-484.5" font-family="Helvetica,sans-Serif" font-size="10.00">+ Width</text>
<text text-anchor="start" x="271.5" y="-473.5" font-family="Helvetica,sans-Serif" font-size="10.00">+ Height</text>
<polyline fill="none" stroke="black" points="263.5,-466.5 403.5,-466.5 "/>
<text text-anchor="middle" x="333.5" y="-454.5" font-family="Helvetica,sans-Serif" font-size="10.00"> </text>
</a>
</g>
</g>
<!-- Node7&#45;&gt;Node5 -->
<g id="edge6" class="edge">
<title>Node7&#45;&gt;Node5</title>
<path fill="none" stroke="#404040" d="M358.94,-447.35C368.55,-432.75 379.82,-415.63 390.77,-398.99"/>
<polygon fill="none" stroke="#404040" points="390.93,-398.75 390.89,-391.54 397.53,-388.72 397.57,-395.94 390.93,-398.75"/>
<text text-anchor="middle" x="414" y="-415.5" font-family="Helvetica,sans-Serif" font-size="10.00"> &#45;_playField</text>
</g>
<!-- Node8 -->
<g id="node8" class="node">
<title>Node8</title>
<g id="a_node8"><a xlink:title=" ">
<polygon fill="white" stroke="black" points="226,-591 226,-648 255,-648 255,-591 226,-591"/>
<text text-anchor="middle" x="240.5" y="-636" font-family="Helvetica,sans-Serif" font-size="10.00">int</text>
<polyline fill="none" stroke="black" points="226,-629 255,-629 "/>
<text text-anchor="middle" x="240.5" y="-617" font-family="Helvetica,sans-Serif" font-size="10.00"> </text>
<polyline fill="none" stroke="black" points="226,-610 255,-610 "/>
<text text-anchor="middle" x="240.5" y="-598" font-family="Helvetica,sans-Serif" font-size="10.00"> </text>
</a>
</g>
</g>
<!-- Node8&#45;&gt;Node4 -->
<g id="edge11" class="edge">
<title>Node8&#45;&gt;Node4</title>
<path fill="none" stroke="#404040" d="M242.49,-590.85C244.99,-556.94 249.56,-497.69 254.5,-447 261.85,-371.61 271.98,-284.72 278.63,-229.48"/>
<polygon fill="none" stroke="#404040" points="278.64,-229.42 275.39,-222.99 280.08,-217.51 283.33,-223.95 278.64,-229.42"/>
<text text-anchor="middle" x="268" y="-421" font-family="Helvetica,sans-Serif" font-size="10.00"> &#45;_x</text>
<text text-anchor="middle" x="268" y="-410" font-family="Helvetica,sans-Serif" font-size="10.00">&#45;_y</text>
</g>
<!-- Node8&#45;&gt;Node7 -->
<g id="edge7" class="edge">
<title>Node8&#45;&gt;Node7</title>
<path fill="none" stroke="#404040" d="M250.53,-590.66C256.37,-576.33 264.56,-558.98 274.5,-545 276.66,-541.96 278.99,-538.95 281.44,-535.99"/>
<polygon fill="none" stroke="#404040" points="281.65,-535.75 282.62,-528.61 289.59,-526.75 288.62,-533.9 281.65,-535.75"/>
<text text-anchor="middle" x="306" y="-559" font-family="Helvetica,sans-Serif" font-size="10.00"> &#45;FieldHeight</text>
<text text-anchor="middle" x="306" y="-548" font-family="Helvetica,sans-Serif" font-size="10.00">&#45;FieldWidth</text>
</g>
<!-- Node9 -->
<g id="node9" class="node">
<title>Node9</title>
<g id="a_node9"><a xlink:href="interfacegame_1_1logic_1_1tile_1_1ITileable.html" target="_top" xlink:title=" ">
<polygon fill="white" stroke="black" points="282.5,-591 282.5,-648 416.5,-648 416.5,-591 282.5,-591"/>
<text text-anchor="middle" x="349.5" y="-636" font-family="Helvetica,sans-Serif" font-size="10.00">game.logic.tile.ITileable</text>
<polyline fill="none" stroke="black" points="282.5,-629 416.5,-629 "/>
<text text-anchor="start" x="290.5" y="-617" font-family="Helvetica,sans-Serif" font-size="10.00">+ Color</text>
<polyline fill="none" stroke="black" points="282.5,-610 416.5,-610 "/>
<text text-anchor="middle" x="349.5" y="-598" font-family="Helvetica,sans-Serif" font-size="10.00"> </text>
</a>
</g>
</g>
<!-- Node9&#45;&gt;Node7 -->
<g id="edge8" class="edge">
<title>Node9&#45;&gt;Node7</title>
<path fill="none" stroke="#404040" d="M346.11,-590.82C344.24,-575.63 341.87,-556.3 339.69,-538.52"/>
<polygon fill="none" stroke="#404040" points="339.68,-538.44 334.98,-532.97 338.22,-526.53 342.92,-531.99 339.68,-538.44"/>
<text text-anchor="middle" x="361" y="-553.5" font-family="Helvetica,sans-Serif" font-size="10.00"> +Field</text>
</g>
<!-- Node10 -->
<g id="node10" class="node">
<title>Node10</title>
<g id="a_node10"><a xlink:href="classgame_1_1service_1_1ServiceLocator.html" target="_top" xlink:title=" ">
<polygon fill="white" stroke="black" points="421.5,-447.5 421.5,-526.5 579.5,-526.5 579.5,-447.5 421.5,-447.5"/>
<text text-anchor="middle" x="500.5" y="-514.5" font-family="Helvetica,sans-Serif" font-size="10.00">game.service.ServiceLocator</text>
<polyline fill="none" stroke="black" points="421.5,-507.5 579.5,-507.5 "/>
<text text-anchor="middle" x="500.5" y="-495.5" font-family="Helvetica,sans-Serif" font-size="10.00"> </text>
<polyline fill="none" stroke="black" points="421.5,-488.5 579.5,-488.5 "/>
<text text-anchor="start" x="429.5" y="-476.5" font-family="Helvetica,sans-Serif" font-size="10.00">+ ServiceLocator()</text>
<text text-anchor="start" x="429.5" y="-465.5" font-family="Helvetica,sans-Serif" font-size="10.00">+ GetService&lt; T &gt;()</text>
<text text-anchor="start" x="429.5" y="-454.5" font-family="Helvetica,sans-Serif" font-size="10.00">+ RegisterService&lt; T &gt;()</text>
</a>
</g>
</g>
<!-- Node10&#45;&gt;Node5 -->
<g id="edge9" class="edge">
<title>Node10&#45;&gt;Node5</title>
<path fill="none" stroke="#404040" d="M485.09,-447.35C479.38,-433.02 472.7,-416.28 466.18,-399.94"/>
<polygon fill="none" stroke="#404040" points="466.16,-399.87 460.22,-395.78 461.71,-388.72 467.65,-392.82 466.16,-399.87"/>
<text text-anchor="middle" x="518.5" y="-415.5" font-family="Helvetica,sans-Serif" font-size="10.00"> &#45;_serviceLocator</text>
</g>
<!-- Node11 -->
<g id="node11" class="node">
<title>Node11</title>
<g id="a_node11"><a xlink:title=" ">
<polygon fill="white" stroke="black" points="435,-585.5 435,-653.5 574,-653.5 574,-585.5 435,-585.5"/>
<text text-anchor="start" x="443" y="-641.5" font-family="Helvetica,sans-Serif" font-size="10.00">IDictionary&lt; object,</text>
<text text-anchor="middle" x="504.5" y="-630.5" font-family="Helvetica,sans-Serif" font-size="10.00"> game.service.IService &gt;</text>
<polyline fill="none" stroke="black" points="435,-623.5 574,-623.5 "/>
<text text-anchor="middle" x="504.5" y="-611.5" font-family="Helvetica,sans-Serif" font-size="10.00"> </text>
<polyline fill="none" stroke="black" points="435,-604.5 574,-604.5 "/>
<text text-anchor="middle" x="504.5" y="-592.5" font-family="Helvetica,sans-Serif" font-size="10.00"> </text>
</a>
</g>
</g>
<!-- Node11&#45;&gt;Node10 -->
<g id="edge10" class="edge">
<title>Node11&#45;&gt;Node10</title>
<path fill="none" stroke="#404040" d="M503.48,-585.23C503.05,-571.17 502.54,-554.47 502.06,-538.92"/>
<polygon fill="none" stroke="#404040" points="502.06,-538.76 497.87,-532.88 501.69,-526.77 505.87,-532.64 502.06,-538.76"/>
<text text-anchor="middle" x="527.5" y="-553.5" font-family="Helvetica,sans-Serif" font-size="10.00"> &#45;services</text>
</g>
</g>
</svg>
        <g id="navigator" transform="translate(0 0)" fill="#404254">
                <rect fill="#f2f5e9" fill-opacity="0.5" stroke="#606060" stroke-width=".5" x="0" y="0" width="60" height="60"/>
                <use id="zoomplus" xlink:href="#zoomPlus" x="17" y="9" onmousedown="handleZoom(evt,'in')"/>
                <use id="zoomminus" xlink:href="#zoomMin" x="42" y="9" onmousedown="handleZoom(evt,'out')"/>
                <use id="reset" xlink:href="#resetDef" x="30" y="36" onmousedown="handleReset()"/>
                <g id="arrowUp" xlink:href="#dirArrow" transform="translate(30 24)" onmousedown="handlePan(0,-1)">
                  <use xlink:href="#rim" fill="#404040">
                        <set attributeName="fill" to="#808080" begin="arrowUp.mouseover" end="arrowUp.mouseout"/>
                  </use>
                  <path fill="none" stroke="white" stroke-width="1.5" d="M0,-3.0v7 M-2.5,-0.5L0,-3.0L2.5,-0.5"/>
                </g>
                <g id="arrowRight" xlink:href="#dirArrow" transform="rotate(90) translate(36 -43)" onmousedown="handlePan(1,0)">
                  <use xlink:href="#rim" fill="#404040">
                        <set attributeName="fill" to="#808080" begin="arrowRight.mouseover" end="arrowRight.mouseout"/>
                  </use>
                  <path fill="none" stroke="white" stroke-width="1.5" d="M0,-3.0v7 M-2.5,-0.5L0,-3.0L2.5,-0.5"/>
                </g>
                <g id="arrowDown" xlink:href="#dirArrow" transform="rotate(180) translate(-30 -48)" onmousedown="handlePan(0,1)">
                  <use xlink:href="#rim" fill="#404040">
                        <set attributeName="fill" to="#808080" begin="arrowDown.mouseover" end="arrowDown.mouseout"/>
                  </use>
                  <path fill="none" stroke="white" stroke-width="1.5" d="M0,-3.0v7 M-2.5,-0.5L0,-3.0L2.5,-0.5"/>
                </g>
                <g id="arrowLeft" xlink:href="#dirArrow" transform="rotate(270) translate(-36 17)" onmousedown="handlePan(-1,0)">
                  <use xlink:href="#rim" fill="#404040">
                        <set attributeName="fill" to="#808080" begin="arrowLeft.mouseover" end="arrowLeft.mouseout"/>
                  </use>
                  <path fill="none" stroke="white" stroke-width="1.5" d="M0,-3.0v7 M-2.5,-0.5L0,-3.0L2.5,-0.5"/>
                </g>
        </g>
        <svg viewBox="0 0 15 15" width="100%" height="30px" preserveAspectRatio="xMaxYMin meet">
         <g id="arrow_out" transform="scale(0.3 0.3)">
          <a xlink:href="classgame_1_1logic_1_1tile_1_1TileView__coll__graph_org.svg" target="_base">
           <rect id="button" ry="5" rx="5" y="6" x="6" height="38" width="38"
                fill="#f2f5e9" fill-opacity="0.5" stroke="#606060" stroke-width="1.0"/>
           <path id="arrow"
             d="M 11.500037,31.436501 C 11.940474,20.09759 22.043105,11.32322 32.158766,21.979434 L 37.068811,17.246167 C 37.068811,17.246167 37.088388,32 37.088388,32 L 22.160133,31.978069 C 22.160133,31.978069 26.997745,27.140456 26.997745,27.140456 C 18.528582,18.264221 13.291696,25.230495 11.500037,31.436501 z"
             style="fill:#404040;"/>
          </a>
         </g>
        </svg>
</svg>
