<?xml version="1.0" encoding="UTF-8" standalone="no"?>
<!DOCTYPE svg PUBLIC "-//W3C//DTD SVG 1.1//EN"
 "http://www.w3.org/Graphics/SVG/1.1/DTD/svg11.dtd">
<!-- Generated by graphviz version 2.43.0 (0)
 -->
<!-- Title: GameRunner Pages: 1 -->
<!--zoomable 419 -->
<svg id="main" version="1.1" xmlns="http://www.w3.org/2000/svg" xmlns:xlink="http://www.w3.org/1999/xlink" xml:space="preserve" onload="init(evt)">
<style type="text/css"><![CDATA[
.edge:hover path { stroke: red; }
.edge:hover polygon { stroke: red; fill: red; }
]]></style>
<script type="text/javascript"><![CDATA[
var edges = document.getElementsByTagName('g');
if (edges && edges.length) {
  for (var i=0;i<edges.length;i++) {
    if (edges[i].id.substr(0,4)=='edge') {
      edges[i].setAttribute('class','edge');
    }
  }
}
]]></script>
        <defs>
                <circle id="rim" cx="0" cy="0" r="7"/>
                <circle id="rim2" cx="0" cy="0" r="3.5"/>
                <g id="zoomPlus">
                        <use xlink:href="#rim" fill="#404040">
                                <set attributeName="fill" to="#808080" begin="zoomplus.mouseover" end="zoomplus.mouseout"/>
                        </use>
                        <path d="M-4,0h8M0,-4v8" fill="none" stroke="white" stroke-width="1.5" pointer-events="none"/>
                </g>
                <g id="zoomMin">
                        <use xlink:href="#rim" fill="#404040">
                                <set attributeName="fill" to="#808080" begin="zoomminus.mouseover" end="zoomminus.mouseout"/>
                        </use>
                        <path d="M-4,0h8" fill="none" stroke="white" stroke-width="1.5" pointer-events="none"/>
                </g>
                <g id="dirArrow">
                        <path fill="none" stroke="white" stroke-width="1.5" d="M0,-3.0v7 M-2.5,-0.5L0,-3.0L2.5,-0.5"/>
                </g>
               <g id="resetDef">
                       <use xlink:href="#rim2" fill="#404040">
                               <set attributeName="fill" to="#808080" begin="reset.mouseover" end="reset.mouseout"/>
                       </use>
               </g>
        </defs>

<script type="text/javascript">
var viewWidth = 656;
var viewHeight = 419;
var sectionId = 'dynsection-1';
</script>
<script xlink:href="svgpan.js"/>
<svg id="graph" class="graph">
<g id="viewport">
<title>GameRunner</title>
<polygon fill="white" stroke="transparent" points="-4,4 -4,-415 652,-415 652,4 -4,4"/>
<!-- Node1 -->
<g id="node1" class="node">
<title>Node1</title>
<g id="a_node1"><a xlink:title=" ">
<polygon fill="#bfbfbf" stroke="black" points="232,-0.5 232,-68.5 331,-68.5 331,-0.5 232,-0.5"/>
<text text-anchor="middle" x="281.5" y="-56.5" font-family="Helvetica,sans-Serif" font-size="10.00">GameRunner</text>
<polyline fill="none" stroke="black" points="232,-49.5 331,-49.5 "/>
<text text-anchor="middle" x="281.5" y="-37.5" font-family="Helvetica,sans-Serif" font-size="10.00"> </text>
<polyline fill="none" stroke="black" points="232,-30.5 331,-30.5 "/>
<text text-anchor="start" x="240" y="-18.5" font-family="Helvetica,sans-Serif" font-size="10.00">+ GameRunner()</text>
<text text-anchor="start" x="240" y="-7.5" font-family="Helvetica,sans-Serif" font-size="10.00">+ Update()</text>
</a>
</g>
</g>
<!-- Node2 -->
<g id="node2" class="node">
<title>Node2</title>
<g id="a_node2"><a xlink:href="interfacegamerunner_1_1IUpdatable.html" target="_top" xlink:title=" ">
<polygon fill="white" stroke="black" points="0,-177 0,-234 71,-234 71,-177 0,-177"/>
<text text-anchor="middle" x="35.5" y="-222" font-family="Helvetica,sans-Serif" font-size="10.00">IUpdatable</text>
<polyline fill="none" stroke="black" points="0,-215 71,-215 "/>
<text text-anchor="middle" x="35.5" y="-203" font-family="Helvetica,sans-Serif" font-size="10.00"> </text>
<polyline fill="none" stroke="black" points="0,-196 71,-196 "/>
<text text-anchor="start" x="8" y="-184" font-family="Helvetica,sans-Serif" font-size="10.00">+ Update()</text>
</a>
</g>
</g>
<!-- Node2&#45;&gt;Node1 -->
<g id="edge1" class="edge">
<title>Node2&#45;&gt;Node1</title>
<path fill="none" stroke="midnightblue" d="M47.37,-167.47C54.58,-149.93 65.37,-129.84 80.5,-116 123.36,-76.81 187.7,-55.6 231.98,-44.95"/>
<polygon fill="none" stroke="midnightblue" points="44.07,-166.31 43.73,-176.9 50.59,-168.83 44.07,-166.31"/>
</g>
<!-- Node3 -->
<g id="node3" class="node">
<title>Node3</title>
<g id="a_node3"><a xlink:href="classgame_1_1service_1_1ServiceLocator.html" target="_top" xlink:title=" ">
<polygon fill="white" stroke="black" points="89.5,-166 89.5,-245 247.5,-245 247.5,-166 89.5,-166"/>
<text text-anchor="middle" x="168.5" y="-233" font-family="Helvetica,sans-Serif" font-size="10.00">game.service.ServiceLocator</text>
<polyline fill="none" stroke="black" points="89.5,-226 247.5,-226 "/>
<text text-anchor="middle" x="168.5" y="-214" font-family="Helvetica,sans-Serif" font-size="10.00"> </text>
<polyline fill="none" stroke="black" points="89.5,-207 247.5,-207 "/>
<text text-anchor="start" x="97.5" y="-195" font-family="Helvetica,sans-Serif" font-size="10.00">+ ServiceLocator()</text>
<text text-anchor="start" x="97.5" y="-184" font-family="Helvetica,sans-Serif" font-size="10.00">+ GetService&lt; T &gt;()</text>
<text text-anchor="start" x="97.5" y="-173" font-family="Helvetica,sans-Serif" font-size="10.00">+ RegisterService&lt; T &gt;()</text>
</a>
</g>
</g>
<!-- Node3&#45;&gt;Node1 -->
<g id="edge2" class="edge">
<title>Node3&#45;&gt;Node1</title>
<path fill="none" stroke="#404040" d="M169.34,-165.87C171.63,-141.27 177.95,-109.84 194.5,-87 201.61,-77.19 211.2,-68.93 221.43,-62.09"/>
<polygon fill="none" stroke="#404040" points="221.57,-62.01 224.59,-55.46 231.8,-55.73 228.78,-62.28 221.57,-62.01"/>
<text text-anchor="middle" x="236.5" y="-90" font-family="Helvetica,sans-Serif" font-size="10.00"> &#45;_serviceLocator</text>
</g>
<!-- Node4 -->
<g id="node4" class="node">
<title>Node4</title>
<g id="a_node4"><a xlink:title=" ">
<polygon fill="white" stroke="black" points="99,-342.5 99,-410.5 238,-410.5 238,-342.5 99,-342.5"/>
<text text-anchor="start" x="107" y="-398.5" font-family="Helvetica,sans-Serif" font-size="10.00">IDictionary&lt; object,</text>
<text text-anchor="middle" x="168.5" y="-387.5" font-family="Helvetica,sans-Serif" font-size="10.00"> game.service.IService &gt;</text>
<polyline fill="none" stroke="black" points="99,-380.5 238,-380.5 "/>
<text text-anchor="middle" x="168.5" y="-368.5" font-family="Helvetica,sans-Serif" font-size="10.00"> </text>
<polyline fill="none" stroke="black" points="99,-361.5 238,-361.5 "/>
<text text-anchor="middle" x="168.5" y="-349.5" font-family="Helvetica,sans-Serif" font-size="10.00"> </text>
</a>
</g>
</g>
<!-- Node4&#45;&gt;Node3 -->
<g id="edge3" class="edge">
<title>Node4&#45;&gt;Node3</title>
<path fill="none" stroke="#404040" d="M168.5,-342.11C168.5,-317.92 168.5,-284.78 168.5,-257.31"/>
<polygon fill="none" stroke="#404040" points="168.5,-257.14 164.5,-251.14 168.5,-245.14 172.5,-251.14 168.5,-257.14"/>
<text text-anchor="middle" x="192.5" y="-316" font-family="Helvetica,sans-Serif" font-size="10.00"> &#45;services</text>
</g>
<!-- Node5 -->
<g id="node5" class="node">
<title>Node5</title>
<g id="a_node5"><a xlink:title=" ">
<polygon fill="white" stroke="black" points="265.5,-177 265.5,-234 303.5,-234 303.5,-177 265.5,-177"/>
<text text-anchor="middle" x="284.5" y="-222" font-family="Helvetica,sans-Serif" font-size="10.00">float</text>
<polyline fill="none" stroke="black" points="265.5,-215 303.5,-215 "/>
<text text-anchor="middle" x="284.5" y="-203" font-family="Helvetica,sans-Serif" font-size="10.00"> </text>
<polyline fill="none" stroke="black" points="265.5,-196 303.5,-196 "/>
<text text-anchor="middle" x="284.5" y="-184" font-family="Helvetica,sans-Serif" font-size="10.00"> </text>
</a>
</g>
</g>
<!-- Node5&#45;&gt;Node1 -->
<g id="edge4" class="edge">
<title>Node5&#45;&gt;Node1</title>
<path fill="none" stroke="#404040" d="M283.96,-176.92C283.55,-155.42 282.97,-124.81 282.5,-98 282.4,-92.48 282.31,-86.69 282.21,-80.94"/>
<polygon fill="none" stroke="#404040" points="282.21,-80.58 278.11,-74.65 282.01,-68.59 286.11,-74.52 282.21,-80.58"/>
<text text-anchor="middle" x="317" y="-90" font-family="Helvetica,sans-Serif" font-size="10.00"> &#45;_gravitySum</text>
</g>
<!-- Node6 -->
<g id="node6" class="node">
<title>Node6</title>
<g id="a_node6"><a xlink:title=" ">
<polygon fill="white" stroke="black" points="359,-177 359,-234 388,-234 388,-177 359,-177"/>
<text text-anchor="middle" x="373.5" y="-222" font-family="Helvetica,sans-Serif" font-size="10.00">int</text>
<polyline fill="none" stroke="black" points="359,-215 388,-215 "/>
<text text-anchor="middle" x="373.5" y="-203" font-family="Helvetica,sans-Serif" font-size="10.00"> </text>
<polyline fill="none" stroke="black" points="359,-196 388,-196 "/>
<text text-anchor="middle" x="373.5" y="-184" font-family="Helvetica,sans-Serif" font-size="10.00"> </text>
</a>
</g>
</g>
<!-- Node6&#45;&gt;Node1 -->
<g id="edge5" class="edge">
<title>Node6&#45;&gt;Node1</title>
<path fill="none" stroke="#404040" d="M373.92,-176.78C373.07,-151.57 368.61,-114.24 351.5,-87 348.36,-81.99 344.53,-77.31 340.31,-72.98"/>
<polygon fill="none" stroke="#404040" points="340.01,-72.7 332.89,-71.57 331.19,-64.56 338.31,-65.69 340.01,-72.7"/>
<text text-anchor="middle" x="377.5" y="-90" font-family="Helvetica,sans-Serif" font-size="10.00"> &#45;frames</text>
</g>
<!-- Node7 -->
<g id="node7" class="node">
<title>Node7</title>
<g id="a_node7"><a xlink:href="classgame_1_1logic_1_1tilespawner_1_1TileSpawnerService.html" target="_top" xlink:title=" ">
<polygon fill="white" stroke="black" points="406.5,-116.5 406.5,-294.5 566.5,-294.5 566.5,-116.5 406.5,-116.5"/>
<text text-anchor="start" x="414.5" y="-282.5" font-family="Helvetica,sans-Serif" font-size="10.00">game.logic.tilespawner.Tile</text>
<text text-anchor="middle" x="486.5" y="-271.5" font-family="Helvetica,sans-Serif" font-size="10.00">SpawnerService</text>
<polyline fill="none" stroke="black" points="406.5,-264.5 566.5,-264.5 "/>
<text text-anchor="middle" x="486.5" y="-252.5" font-family="Helvetica,sans-Serif" font-size="10.00"> </text>
<polyline fill="none" stroke="black" points="406.5,-245.5 566.5,-245.5 "/>
<text text-anchor="start" x="414.5" y="-233.5" font-family="Helvetica,sans-Serif" font-size="10.00">+ CreateTileShapeDelegate()</text>
<text text-anchor="start" x="414.5" y="-222.5" font-family="Helvetica,sans-Serif" font-size="10.00">+ TileSpawnerService()</text>
<text text-anchor="start" x="414.5" y="-211.5" font-family="Helvetica,sans-Serif" font-size="10.00">+ Spawn()</text>
<text text-anchor="start" x="414.5" y="-200.5" font-family="Helvetica,sans-Serif" font-size="10.00">&#45; Shuffle()</text>
<text text-anchor="start" x="414.5" y="-189.5" font-family="Helvetica,sans-Serif" font-size="10.00">&#45; SpawnIPiece()</text>
<text text-anchor="start" x="414.5" y="-178.5" font-family="Helvetica,sans-Serif" font-size="10.00">&#45; SpawnJPiece()</text>
<text text-anchor="start" x="414.5" y="-167.5" font-family="Helvetica,sans-Serif" font-size="10.00">&#45; SpawnLPiece()</text>
<text text-anchor="start" x="414.5" y="-156.5" font-family="Helvetica,sans-Serif" font-size="10.00">&#45; SpawnOPiece()</text>
<text text-anchor="start" x="414.5" y="-145.5" font-family="Helvetica,sans-Serif" font-size="10.00">&#45; SpawnSPiece()</text>
<text text-anchor="start" x="414.5" y="-134.5" font-family="Helvetica,sans-Serif" font-size="10.00">&#45; SpawnTPiece()</text>
<text text-anchor="start" x="414.5" y="-123.5" font-family="Helvetica,sans-Serif" font-size="10.00">&#45; SpawnZPiece()</text>
</a>
</g>
</g>
<!-- Node7&#45;&gt;Node1 -->
<g id="edge6" class="edge">
<title>Node7&#45;&gt;Node1</title>
<path fill="none" stroke="#404040" d="M431.86,-116.31C422.9,-105.6 413.06,-95.48 402.5,-87 384.93,-72.9 362.92,-62.02 342.52,-53.97"/>
<polygon fill="none" stroke="#404040" points="342.29,-53.88 335.27,-55.52 331.06,-49.67 338.08,-48.03 342.29,-53.88"/>
<text text-anchor="middle" x="460.5" y="-90" font-family="Helvetica,sans-Serif" font-size="10.00"> +CreateTileShape</text>
</g>
<!-- Node8 -->
<g id="node8" class="node">
<title>Node8</title>
<g id="a_node8"><a xlink:href="interfacegame_1_1service_1_1IService.html" target="_top" xlink:title=" ">
<polygon fill="white" stroke="black" points="321.5,-348 321.5,-405 377.5,-405 377.5,-348 321.5,-348"/>
<text text-anchor="middle" x="349.5" y="-393" font-family="Helvetica,sans-Serif" font-size="10.00">IService</text>
<polyline fill="none" stroke="black" points="321.5,-386 377.5,-386 "/>
<text text-anchor="middle" x="349.5" y="-374" font-family="Helvetica,sans-Serif" font-size="10.00"> </text>
<polyline fill="none" stroke="black" points="321.5,-367 377.5,-367 "/>
<text text-anchor="middle" x="349.5" y="-355" font-family="Helvetica,sans-Serif" font-size="10.00"> </text>
</a>
</g>
</g>
<!-- Node8&#45;&gt;Node7 -->
<g id="edge7" class="edge">
<title>Node8&#45;&gt;Node7</title>
<path fill="none" stroke="midnightblue" d="M378.29,-339.99C389.13,-326.61 402,-310.73 415.02,-294.68"/>
<polygon fill="none" stroke="midnightblue" points="375.39,-338 371.82,-347.97 380.83,-342.41 375.39,-338"/>
</g>
<!-- Node9 -->
<g id="node9" class="node">
<title>Node9</title>
<g id="a_node9"><a xlink:title=" ">
<polygon fill="white" stroke="black" points="396,-348 396,-405 577,-405 577,-348 396,-348"/>
<text text-anchor="middle" x="486.5" y="-393" font-family="Helvetica,sans-Serif" font-size="10.00">List&lt; CreateTileShapeDelegate &gt;</text>
<polyline fill="none" stroke="black" points="396,-386 577,-386 "/>
<text text-anchor="middle" x="486.5" y="-374" font-family="Helvetica,sans-Serif" font-size="10.00"> </text>
<polyline fill="none" stroke="black" points="396,-367 577,-367 "/>
<text text-anchor="middle" x="486.5" y="-355" font-family="Helvetica,sans-Serif" font-size="10.00"> </text>
</a>
</g>
</g>
<!-- Node9&#45;&gt;Node7 -->
<g id="edge8" class="edge">
<title>Node9&#45;&gt;Node7</title>
<path fill="none" stroke="#404040" d="M486.5,-347.97C486.5,-336.31 486.5,-321.94 486.5,-306.87"/>
<polygon fill="none" stroke="#404040" points="486.5,-306.68 482.5,-300.68 486.5,-294.68 490.5,-300.68 486.5,-306.68"/>
<text text-anchor="middle" x="508.5" y="-316" font-family="Helvetica,sans-Serif" font-size="10.00"> &#45;_pieces</text>
</g>
<!-- Node10 -->
<g id="node10" class="node">
<title>Node10</title>
<g id="a_node10"><a xlink:title=" ">
<polygon fill="white" stroke="black" points="595,-348 595,-405 648,-405 648,-348 595,-348"/>
<text text-anchor="middle" x="621.5" y="-393" font-family="Helvetica,sans-Serif" font-size="10.00">System</text>
<polyline fill="none" stroke="black" points="595,-386 648,-386 "/>
<text text-anchor="middle" x="621.5" y="-374" font-family="Helvetica,sans-Serif" font-size="10.00"> </text>
<polyline fill="none" stroke="black" points="595,-367 648,-367 "/>
<text text-anchor="middle" x="621.5" y="-355" font-family="Helvetica,sans-Serif" font-size="10.00"> </text>
</a>
</g>
</g>
<!-- Node10&#45;&gt;Node7 -->
<g id="edge9" class="edge">
<title>Node10&#45;&gt;Node7</title>
<path fill="none" stroke="#404040" d="M599.51,-347.97C589.64,-335.62 577.34,-320.22 564.53,-304.18"/>
<polygon fill="none" stroke="#404040" points="564.43,-304.05 557.56,-301.86 556.94,-294.68 563.81,-296.87 564.43,-304.05"/>
<text text-anchor="middle" x="590" y="-316" font-family="Helvetica,sans-Serif" font-size="10.00"> &#45;rng</text>
</g>
</g>
</svg>
        <g id="navigator" transform="translate(0 0)" fill="#404254">
                <rect fill="#f2f5e9" fill-opacity="0.5" stroke="#606060" stroke-width=".5" x="0" y="0" width="60" height="60"/>
                <use id="zoomplus" xlink:href="#zoomPlus" x="17" y="9" onmousedown="handleZoom(evt,'in')"/>
                <use id="zoomminus" xlink:href="#zoomMin" x="42" y="9" onmousedown="handleZoom(evt,'out')"/>
                <use id="reset" xlink:href="#resetDef" x="30" y="36" onmousedown="handleReset()"/>
                <g id="arrowUp" xlink:href="#dirArrow" transform="translate(30 24)" onmousedown="handlePan(0,-1)">
                  <use xlink:href="#rim" fill="#404040">
                        <set attributeName="fill" to="#808080" begin="arrowUp.mouseover" end="arrowUp.mouseout"/>
                  </use>
                  <path fill="none" stroke="white" stroke-width="1.5" d="M0,-3.0v7 M-2.5,-0.5L0,-3.0L2.5,-0.5"/>
                </g>
                <g id="arrowRight" xlink:href="#dirArrow" transform="rotate(90) translate(36 -43)" onmousedown="handlePan(1,0)">
                  <use xlink:href="#rim" fill="#404040">
                        <set attributeName="fill" to="#808080" begin="arrowRight.mouseover" end="arrowRight.mouseout"/>
                  </use>
                  <path fill="none" stroke="white" stroke-width="1.5" d="M0,-3.0v7 M-2.5,-0.5L0,-3.0L2.5,-0.5"/>
                </g>
                <g id="arrowDown" xlink:href="#dirArrow" transform="rotate(180) translate(-30 -48)" onmousedown="handlePan(0,1)">
                  <use xlink:href="#rim" fill="#404040">
                        <set attributeName="fill" to="#808080" begin="arrowDown.mouseover" end="arrowDown.mouseout"/>
                  </use>
                  <path fill="none" stroke="white" stroke-width="1.5" d="M0,-3.0v7 M-2.5,-0.5L0,-3.0L2.5,-0.5"/>
                </g>
                <g id="arrowLeft" xlink:href="#dirArrow" transform="rotate(270) translate(-36 17)" onmousedown="handlePan(-1,0)">
                  <use xlink:href="#rim" fill="#404040">
                        <set attributeName="fill" to="#808080" begin="arrowLeft.mouseover" end="arrowLeft.mouseout"/>
                  </use>
                  <path fill="none" stroke="white" stroke-width="1.5" d="M0,-3.0v7 M-2.5,-0.5L0,-3.0L2.5,-0.5"/>
                </g>
        </g>
        <svg viewBox="0 0 15 15" width="100%" height="30px" preserveAspectRatio="xMaxYMin meet">
         <g id="arrow_out" transform="scale(0.3 0.3)">
          <a xlink:href="classGameRunner__coll__graph_org.svg" target="_base">
           <rect id="button" ry="5" rx="5" y="6" x="6" height="38" width="38"
                fill="#f2f5e9" fill-opacity="0.5" stroke="#606060" stroke-width="1.0"/>
           <path id="arrow"
             d="M 11.500037,31.436501 C 11.940474,20.09759 22.043105,11.32322 32.158766,21.979434 L 37.068811,17.246167 C 37.068811,17.246167 37.088388,32 37.088388,32 L 22.160133,31.978069 C 22.160133,31.978069 26.997745,27.140456 26.997745,27.140456 C 18.528582,18.264221 13.291696,25.230495 11.500037,31.436501 z"
             style="fill:#404040;"/>
          </a>
         </g>
        </svg>
</svg>
