<?xml version="1.0" encoding="UTF-8" standalone="no"?>
<!DOCTYPE svg PUBLIC "-//W3C//DTD SVG 1.1//EN"
 "http://www.w3.org/Graphics/SVG/1.1/DTD/svg11.dtd">
<!-- Generated by graphviz version 2.43.0 (0)
 -->
<!-- Title: LoginButton.OnClick Pages: 1 -->
<svg width="324pt" height="88pt"
 viewBox="0.00 0.00 324.00 88.00" xmlns="http://www.w3.org/2000/svg" xmlns:xlink="http://www.w3.org/1999/xlink">
<g id="graph0" class="graph" transform="scale(1 1) rotate(0) translate(4 84)">
<title>LoginButton.OnClick</title>
<polygon fill="white" stroke="transparent" points="-4,4 -4,-84 320,-84 320,4 -4,4"/>
<!-- Node1 -->
<g id="node1" class="node">
<title>Node1</title>
<g id="a_node1"><a xlink:title="Handles the click event by retrieving the user&#39;s name and enqueuing a user login event.">
<polygon fill="#bfbfbf" stroke="black" points="0,-30 0,-49 116,-49 116,-30 0,-30"/>
<text text-anchor="middle" x="58" y="-37" font-family="Helvetica,sans-Serif" font-size="10.00">LoginButton.OnClick</text>
</a>
</g>
</g>
<!-- Node2 -->
<g id="node2" class="node">
<title>Node2</title>
<g id="a_node2"><a xlink:href="classgame_1_1logic_1_1EventQueue_1_1EventQueue.html#a47b03d45a78dd2897b1edffa85e3c1f0" target="_top" xlink:title="Adds an event to the appropriate queue based on its identifier.">
<polygon fill="white" stroke="black" points="152,-49.5 152,-79.5 316,-79.5 316,-49.5 152,-49.5"/>
<text text-anchor="start" x="160" y="-67.5" font-family="Helvetica,sans-Serif" font-size="10.00">game.logic.EventQueue.Event</text>
<text text-anchor="middle" x="234" y="-56.5" font-family="Helvetica,sans-Serif" font-size="10.00">Queue.Enqueue</text>
</a>
</g>
</g>
<!-- Node1&#45;&gt;Node2 -->
<g id="edge1" class="edge">
<title>Node1&#45;&gt;Node2</title>
<path fill="none" stroke="midnightblue" d="M116.46,-47.76C124.64,-48.93 133.22,-50.16 141.85,-51.4"/>
<polygon fill="midnightblue" stroke="midnightblue" points="141.59,-54.9 151.99,-52.86 142.59,-47.97 141.59,-54.9"/>
</g>
<!-- Node3 -->
<g id="node3" class="node">
<title>Node3</title>
<g id="a_node3"><a xlink:href="classnetwork_1_1user_1_1UserService.html#ac4ef94bbb341b2f32a63ca022042f29d" target="_top" xlink:title="Retrieves the username from a remote API endpoint.">
<polygon fill="white" stroke="black" points="162,-0.5 162,-30.5 306,-30.5 306,-0.5 162,-0.5"/>
<text text-anchor="start" x="170" y="-18.5" font-family="Helvetica,sans-Serif" font-size="10.00">network.user.UserService.</text>
<text text-anchor="middle" x="234" y="-7.5" font-family="Helvetica,sans-Serif" font-size="10.00">GetUserName</text>
</a>
</g>
</g>
<!-- Node1&#45;&gt;Node3 -->
<g id="edge2" class="edge">
<title>Node1&#45;&gt;Node3</title>
<path fill="none" stroke="midnightblue" d="M116.46,-31.57C127.82,-30.01 139.96,-28.33 151.94,-26.68"/>
<polygon fill="midnightblue" stroke="midnightblue" points="152.52,-30.13 161.95,-25.3 151.56,-23.2 152.52,-30.13"/>
</g>
</g>
</svg>
