<?xml version="1.0" encoding="UTF-8" standalone="no"?>
<!DOCTYPE svg PUBLIC "-//W3C//DTD SVG 1.1//EN"
 "http://www.w3.org/Graphics/SVG/1.1/DTD/svg11.dtd">
<!-- Generated by graphviz version 2.43.0 (0)
 -->
<!-- Title: Graphical Class Hierarchy Pages: 1 -->
<svg width="400pt" height="256pt"
 viewBox="0.00 0.00 400.00 256.00" xmlns="http://www.w3.org/2000/svg" xmlns:xlink="http://www.w3.org/1999/xlink">
<g id="graph0" class="graph" transform="scale(1 1) rotate(0) translate(4 252)">
<title>Graphical Class Hierarchy</title>
<polygon fill="white" stroke="transparent" points="-4,4 -4,-252 396,-252 396,4 -4,4"/>
<!-- Node0 -->
<g id="node1" class="node">
<title>Node0</title>
<g id="a_node1"><a xlink:href="interfacegame_1_1logic_1_1tilespawner_1_1ISpawnable.html" target="_top" xlink:title=" ">
<polygon fill="white" stroke="black" points="0,-114.5 0,-133.5 189,-133.5 189,-114.5 0,-114.5"/>
<text text-anchor="middle" x="94.5" y="-121.5" font-family="Helvetica,sans-Serif" font-size="10.00">game.logic.tilespawner.ISpawnable</text>
</a>
</g>
</g>
<!-- Node1 -->
<g id="node2" class="node">
<title>Node1</title>
<g id="a_node2"><a xlink:href="classgame_1_1logic_1_1tilespawner_1_1IPiece.html" target="_top" xlink:title=" ">
<polygon fill="white" stroke="black" points="227.5,-228.5 227.5,-247.5 389.5,-247.5 389.5,-228.5 227.5,-228.5"/>
<text text-anchor="middle" x="308.5" y="-235.5" font-family="Helvetica,sans-Serif" font-size="10.00">game.logic.tilespawner.IPiece</text>
</a>
</g>
</g>
<!-- Node0&#45;&gt;Node1 -->
<g id="edge1" class="edge">
<title>Node0&#45;&gt;Node1</title>
<path fill="none" stroke="midnightblue" d="M113.1,-140.62C136.7,-161.98 180.78,-198.74 225,-219 233.42,-222.86 242.69,-225.97 251.88,-228.46"/>
<polygon fill="midnightblue" stroke="midnightblue" points="115.36,-137.95 105.63,-133.75 110.62,-143.1 115.36,-137.95"/>
</g>
<!-- Node2 -->
<g id="node3" class="node">
<title>Node2</title>
<g id="a_node3"><a xlink:href="classgame_1_1logic_1_1tilespawner_1_1JPiece.html" target="_top" xlink:title=" ">
<polygon fill="white" stroke="black" points="227.5,-190.5 227.5,-209.5 389.5,-209.5 389.5,-190.5 227.5,-190.5"/>
<text text-anchor="middle" x="308.5" y="-197.5" font-family="Helvetica,sans-Serif" font-size="10.00">game.logic.tilespawner.JPiece</text>
</a>
</g>
</g>
<!-- Node0&#45;&gt;Node2 -->
<g id="edge2" class="edge">
<title>Node0&#45;&gt;Node2</title>
<path fill="none" stroke="midnightblue" d="M123.55,-138.19C149.38,-150.81 189.03,-169.06 225,-181 235.88,-184.61 247.79,-187.79 259.09,-190.46"/>
<polygon fill="midnightblue" stroke="midnightblue" points="124.88,-134.94 114.36,-133.65 121.78,-141.22 124.88,-134.94"/>
</g>
<!-- Node3 -->
<g id="node4" class="node">
<title>Node3</title>
<g id="a_node4"><a xlink:href="classgame_1_1logic_1_1tilespawner_1_1LPiece.html" target="_top" xlink:title=" ">
<polygon fill="white" stroke="black" points="226.5,-152.5 226.5,-171.5 390.5,-171.5 390.5,-152.5 226.5,-152.5"/>
<text text-anchor="middle" x="308.5" y="-159.5" font-family="Helvetica,sans-Serif" font-size="10.00">game.logic.tilespawner.LPiece</text>
</a>
</g>
</g>
<!-- Node0&#45;&gt;Node3 -->
<g id="edge3" class="edge">
<title>Node0&#45;&gt;Node3</title>
<path fill="none" stroke="midnightblue" d="M158.8,-135.35C189.22,-140.8 225.27,-147.26 254.26,-152.46"/>
<polygon fill="midnightblue" stroke="midnightblue" points="159.18,-131.86 148.72,-133.54 157.95,-138.75 159.18,-131.86"/>
</g>
<!-- Node4 -->
<g id="node5" class="node">
<title>Node4</title>
<g id="a_node5"><a xlink:href="classgame_1_1logic_1_1tilespawner_1_1OPiece.html" target="_top" xlink:title=" ">
<polygon fill="white" stroke="black" points="225,-114.5 225,-133.5 392,-133.5 392,-114.5 225,-114.5"/>
<text text-anchor="middle" x="308.5" y="-121.5" font-family="Helvetica,sans-Serif" font-size="10.00">game.logic.tilespawner.OPiece</text>
</a>
</g>
</g>
<!-- Node0&#45;&gt;Node4 -->
<g id="edge4" class="edge">
<title>Node0&#45;&gt;Node4</title>
<path fill="none" stroke="midnightblue" d="M199.15,-124C207.74,-124 216.34,-124 224.73,-124"/>
<polygon fill="midnightblue" stroke="midnightblue" points="199.1,-120.5 189.1,-124 199.1,-127.5 199.1,-120.5"/>
</g>
<!-- Node5 -->
<g id="node6" class="node">
<title>Node5</title>
<g id="a_node6"><a xlink:href="classgame_1_1logic_1_1tilespawner_1_1SPiece.html" target="_top" xlink:title=" ">
<polygon fill="white" stroke="black" points="226,-76.5 226,-95.5 391,-95.5 391,-76.5 226,-76.5"/>
<text text-anchor="middle" x="308.5" y="-83.5" font-family="Helvetica,sans-Serif" font-size="10.00">game.logic.tilespawner.SPiece</text>
</a>
</g>
</g>
<!-- Node0&#45;&gt;Node5 -->
<g id="edge5" class="edge">
<title>Node0&#45;&gt;Node5</title>
<path fill="none" stroke="midnightblue" d="M158.8,-112.65C189.22,-107.2 225.27,-100.74 254.26,-95.54"/>
<polygon fill="midnightblue" stroke="midnightblue" points="157.95,-109.25 148.72,-114.46 159.18,-116.14 157.95,-109.25"/>
</g>
<!-- Node6 -->
<g id="node7" class="node">
<title>Node6</title>
<g id="a_node7"><a xlink:href="classgame_1_1logic_1_1tilespawner_1_1TPiece.html" target="_top" xlink:title=" ">
<polygon fill="white" stroke="black" points="226,-38.5 226,-57.5 391,-57.5 391,-38.5 226,-38.5"/>
<text text-anchor="middle" x="308.5" y="-45.5" font-family="Helvetica,sans-Serif" font-size="10.00">game.logic.tilespawner.TPiece</text>
</a>
</g>
</g>
<!-- Node0&#45;&gt;Node6 -->
<g id="edge6" class="edge">
<title>Node0&#45;&gt;Node6</title>
<path fill="none" stroke="midnightblue" d="M123.55,-109.81C149.38,-97.19 189.03,-78.94 225,-67 235.88,-63.39 247.79,-60.21 259.09,-57.54"/>
<polygon fill="midnightblue" stroke="midnightblue" points="121.78,-106.78 114.36,-114.35 124.88,-113.06 121.78,-106.78"/>
</g>
<!-- Node7 -->
<g id="node8" class="node">
<title>Node7</title>
<g id="a_node8"><a xlink:href="classgame_1_1logic_1_1tilespawner_1_1ZPiece.html" target="_top" xlink:title=" ">
<polygon fill="white" stroke="black" points="225.5,-0.5 225.5,-19.5 391.5,-19.5 391.5,-0.5 225.5,-0.5"/>
<text text-anchor="middle" x="308.5" y="-7.5" font-family="Helvetica,sans-Serif" font-size="10.00">game.logic.tilespawner.ZPiece</text>
</a>
</g>
</g>
<!-- Node0&#45;&gt;Node7 -->
<g id="edge7" class="edge">
<title>Node0&#45;&gt;Node7</title>
<path fill="none" stroke="midnightblue" d="M113.1,-107.38C136.7,-86.02 180.78,-49.26 225,-29 233.42,-25.14 242.69,-22.03 251.88,-19.54"/>
<polygon fill="midnightblue" stroke="midnightblue" points="110.62,-104.9 105.63,-114.25 115.36,-110.05 110.62,-104.9"/>
</g>
</g>
</svg>
