<?xml version="1.0" encoding="UTF-8" standalone="no"?>
<!DOCTYPE svg PUBLIC "-//W3C//DTD SVG 1.1//EN"
 "http://www.w3.org/Graphics/SVG/1.1/DTD/svg11.dtd">
<!-- Generated by graphviz version 2.43.0 (0)
 -->
<!-- Title: Graphical Class Hierarchy Pages: 1 -->
<svg width="277pt" height="230pt"
 viewBox="0.00 0.00 277.00 230.00" xmlns="http://www.w3.org/2000/svg" xmlns:xlink="http://www.w3.org/1999/xlink">
<g id="graph0" class="graph" transform="scale(1 1) rotate(0) translate(4 226)">
<title>Graphical Class Hierarchy</title>
<polygon fill="white" stroke="transparent" points="-4,4 -4,-226 273,-226 273,4 -4,4"/>
<!-- Node0 -->
<g id="node1" class="node">
<title>Node0</title>
<g id="a_node1"><a xlink:href="classMonoBehaviour.html" target="_top" xlink:title=" ">
<polygon fill="white" stroke="black" points="0,-104.5 0,-123.5 93,-123.5 93,-104.5 0,-104.5"/>
<text text-anchor="middle" x="46.5" y="-111.5" font-family="Helvetica,sans-Serif" font-size="10.00">MonoBehaviour</text>
</a>
</g>
</g>
<!-- Node1 -->
<g id="node2" class="node">
<title>Node1</title>
<g id="a_node2"><a xlink:href="classGameInitialiser.html" target="_top" xlink:title=" ">
<polygon fill="white" stroke="black" points="153,-202.5 153,-221.5 245,-221.5 245,-202.5 153,-202.5"/>
<text text-anchor="middle" x="199" y="-209.5" font-family="Helvetica,sans-Serif" font-size="10.00">GameInitialiser</text>
</a>
</g>
</g>
<!-- Node0&#45;&gt;Node1 -->
<g id="edge1" class="edge">
<title>Node0&#45;&gt;Node1</title>
<path fill="none" stroke="midnightblue" d="M61.07,-131.58C75.88,-149.59 101.21,-177.12 129,-193 136.34,-197.19 144.64,-200.5 152.89,-203.09"/>
<polygon fill="midnightblue" stroke="midnightblue" points="63.66,-129.22 54.68,-123.6 58.2,-133.6 63.66,-129.22"/>
</g>
<!-- Node2 -->
<g id="node3" class="node">
<title>Node2</title>
<g id="a_node3"><a xlink:href="classLoginButton.html" target="_top" xlink:title=" ">
<polygon fill="white" stroke="black" points="161.5,-164.5 161.5,-183.5 236.5,-183.5 236.5,-164.5 161.5,-164.5"/>
<text text-anchor="middle" x="199" y="-171.5" font-family="Helvetica,sans-Serif" font-size="10.00">LoginButton</text>
</a>
</g>
</g>
<!-- Node0&#45;&gt;Node2 -->
<g id="edge2" class="edge">
<title>Node0&#45;&gt;Node2</title>
<path fill="none" stroke="midnightblue" d="M73.32,-128.64C89.06,-137.14 109.78,-147.6 129,-155 139.32,-158.97 150.8,-162.48 161.4,-165.36"/>
<polygon fill="midnightblue" stroke="midnightblue" points="74.68,-125.39 64.23,-123.65 71.31,-131.53 74.68,-125.39"/>
</g>
<!-- Node3 -->
<g id="node4" class="node">
<title>Node3</title>
<g id="a_node4"><a xlink:href="classScoreSubmit.html" target="_top" xlink:title=" ">
<polygon fill="white" stroke="black" points="160,-126.5 160,-145.5 238,-145.5 238,-126.5 160,-126.5"/>
<text text-anchor="middle" x="199" y="-133.5" font-family="Helvetica,sans-Serif" font-size="10.00">ScoreSubmit</text>
</a>
</g>
</g>
<!-- Node0&#45;&gt;Node3 -->
<g id="edge3" class="edge">
<title>Node0&#45;&gt;Node3</title>
<path fill="none" stroke="midnightblue" d="M103.02,-122.12C121.87,-124.87 142.49,-127.89 159.69,-130.4"/>
<polygon fill="midnightblue" stroke="midnightblue" points="103.46,-118.64 93.06,-120.66 102.45,-125.57 103.46,-118.64"/>
</g>
<!-- Node4 -->
<g id="node5" class="node">
<title>Node4</title>
<g id="a_node5"><a xlink:href="classgame_1_1logic_1_1playfield_1_1PlayFieldView.html" target="_top" xlink:title=" ">
<polygon fill="white" stroke="black" points="129,-77 129,-107 269,-107 269,-77 129,-77"/>
<text text-anchor="start" x="137" y="-95" font-family="Helvetica,sans-Serif" font-size="10.00">game.logic.playfield.Play</text>
<text text-anchor="middle" x="199" y="-84" font-family="Helvetica,sans-Serif" font-size="10.00">FieldView</text>
</a>
</g>
</g>
<!-- Node0&#45;&gt;Node4 -->
<g id="edge4" class="edge">
<title>Node0&#45;&gt;Node4</title>
<path fill="none" stroke="midnightblue" d="M103.13,-105.87C111.55,-104.64 120.32,-103.35 128.98,-102.09"/>
<polygon fill="midnightblue" stroke="midnightblue" points="102.45,-102.43 93.06,-107.34 103.46,-109.36 102.45,-102.43"/>
</g>
<!-- Node5 -->
<g id="node6" class="node">
<title>Node5</title>
<g id="a_node6"><a xlink:href="classgame_1_1logic_1_1tile_1_1TileView.html" target="_top" xlink:title=" ">
<polygon fill="white" stroke="black" points="132,-38.5 132,-57.5 266,-57.5 266,-38.5 132,-38.5"/>
<text text-anchor="middle" x="199" y="-45.5" font-family="Helvetica,sans-Serif" font-size="10.00">game.logic.tile.TileView</text>
</a>
</g>
</g>
<!-- Node0&#45;&gt;Node5 -->
<g id="edge5" class="edge">
<title>Node0&#45;&gt;Node5</title>
<path fill="none" stroke="midnightblue" d="M70.63,-99.03C86.55,-89.21 108.47,-76.63 129,-68 138.54,-63.99 149.15,-60.48 159.13,-57.56"/>
<polygon fill="midnightblue" stroke="midnightblue" points="68.61,-96.17 61.99,-104.45 72.33,-102.1 68.61,-96.17"/>
</g>
<!-- Node6 -->
<g id="node7" class="node">
<title>Node6</title>
<g id="a_node7"><a xlink:href="classgamerunner_1_1Dispatcher.html" target="_top" xlink:title=" ">
<polygon fill="white" stroke="black" points="133.5,-0.5 133.5,-19.5 264.5,-19.5 264.5,-0.5 133.5,-0.5"/>
<text text-anchor="middle" x="199" y="-7.5" font-family="Helvetica,sans-Serif" font-size="10.00">gamerunner.Dispatcher</text>
</a>
</g>
</g>
<!-- Node0&#45;&gt;Node6 -->
<g id="edge6" class="edge">
<title>Node0&#45;&gt;Node6</title>
<path fill="none" stroke="midnightblue" d="M59.89,-96.23C74.31,-76.87 99.89,-46.35 129,-29 135.51,-25.12 142.84,-22.01 150.22,-19.52"/>
<polygon fill="midnightblue" stroke="midnightblue" points="56.94,-94.33 53.91,-104.49 62.61,-98.44 56.94,-94.33"/>
</g>
</g>
</svg>
