<?xml version="1.0" encoding="UTF-8" standalone="no"?>
<!DOCTYPE svg PUBLIC "-//W3C//DTD SVG 1.1//EN"
 "http://www.w3.org/Graphics/SVG/1.1/DTD/svg11.dtd">
<!-- Generated by graphviz version 2.43.0 (0)
 -->
<!-- Title: Graphical Class Hierarchy Pages: 1 -->
<svg width="535pt" height="264pt"
 viewBox="0.00 0.00 535.00 264.00" xmlns="http://www.w3.org/2000/svg" xmlns:xlink="http://www.w3.org/1999/xlink">
<g id="graph0" class="graph" transform="scale(1 1) rotate(0) translate(4 260)">
<title>Graphical Class Hierarchy</title>
<polygon fill="white" stroke="transparent" points="-4,4 -4,-260 531,-260 531,4 -4,4"/>
<!-- Node0 -->
<g id="node1" class="node">
<title>Node0</title>
<g id="a_node1"><a xlink:href="interfacegame_1_1logic_1_1IGravityStrategy.html" target="_top" xlink:title=" ">
<polygon fill="white" stroke="black" points="166,-206 166,-225 320,-225 320,-206 166,-206"/>
<text text-anchor="middle" x="243" y="-213" font-family="Helvetica,sans-Serif" font-size="10.00">game.logic.IGravityStrategy</text>
</a>
</g>
</g>
<!-- Node1 -->
<g id="node2" class="node">
<title>Node1</title>
<g id="a_node2"><a xlink:href="classgame_1_1logic_1_1LevelBasedGravityStrategy.html" target="_top" xlink:title=" ">
<polygon fill="white" stroke="black" points="361,-225.5 361,-255.5 527,-255.5 527,-225.5 361,-225.5"/>
<text text-anchor="start" x="369" y="-243.5" font-family="Helvetica,sans-Serif" font-size="10.00">game.logic.LevelBasedGravity</text>
<text text-anchor="middle" x="444" y="-232.5" font-family="Helvetica,sans-Serif" font-size="10.00">Strategy</text>
</a>
</g>
</g>
<!-- Node0&#45;&gt;Node1 -->
<g id="edge1" class="edge">
<title>Node0&#45;&gt;Node1</title>
<path fill="none" stroke="midnightblue" d="M329.95,-226.3C340.18,-227.58 350.6,-228.89 360.78,-230.17"/>
<polygon fill="midnightblue" stroke="midnightblue" points="330.16,-222.8 319.8,-225.02 329.29,-229.74 330.16,-222.8"/>
</g>
<!-- Node2 -->
<g id="node3" class="node">
<title>Node2</title>
<g id="a_node3"><a xlink:href="classgame_1_1logic_1_1TimeBasedGravityStrategy.html" target="_top" xlink:title=" ">
<polygon fill="white" stroke="black" points="362,-176.5 362,-206.5 526,-206.5 526,-176.5 362,-176.5"/>
<text text-anchor="start" x="370" y="-194.5" font-family="Helvetica,sans-Serif" font-size="10.00">game.logic.TimeBasedGravity</text>
<text text-anchor="middle" x="444" y="-183.5" font-family="Helvetica,sans-Serif" font-size="10.00">Strategy</text>
</a>
</g>
</g>
<!-- Node0&#45;&gt;Node2 -->
<g id="edge2" class="edge">
<title>Node0&#45;&gt;Node2</title>
<path fill="none" stroke="midnightblue" d="M330.15,-205.11C340.72,-203.84 351.5,-202.54 361.99,-201.27"/>
<polygon fill="midnightblue" stroke="midnightblue" points="329.59,-201.65 320.09,-206.32 330.43,-208.6 329.59,-201.65"/>
</g>
<!-- Node7 -->
<g id="node4" class="node">
<title>Node7</title>
<g id="a_node4"><a xlink:href="interfacegame_1_1service_1_1IService.html" target="_top" xlink:title=" ">
<polygon fill="white" stroke="black" points="0,-50 0,-69 125,-69 125,-50 0,-50"/>
<text text-anchor="middle" x="62.5" y="-57" font-family="Helvetica,sans-Serif" font-size="10.00">game.service.IService</text>
</a>
</g>
</g>
<!-- Node8 -->
<g id="node5" class="node">
<title>Node8</title>
<g id="a_node5"><a xlink:href="classgame_1_1logic_1_1EventQueue_1_1EventQueue.html" target="_top" xlink:title=" ">
<polygon fill="white" stroke="black" points="161,-88.5 161,-118.5 325,-118.5 325,-88.5 161,-88.5"/>
<text text-anchor="start" x="169" y="-106.5" font-family="Helvetica,sans-Serif" font-size="10.00">game.logic.EventQueue.Event</text>
<text text-anchor="middle" x="243" y="-95.5" font-family="Helvetica,sans-Serif" font-size="10.00">Queue</text>
</a>
</g>
</g>
<!-- Node7&#45;&gt;Node8 -->
<g id="edge3" class="edge">
<title>Node7&#45;&gt;Node8</title>
<path fill="none" stroke="midnightblue" d="M112,-71.46C133.23,-76.69 158.39,-82.89 180.88,-88.43"/>
<polygon fill="midnightblue" stroke="midnightblue" points="112.78,-68.04 102.23,-69.05 111.1,-74.84 112.78,-68.04"/>
</g>
<!-- Node6 -->
<g id="node6" class="node">
<title>Node6</title>
<g id="a_node6"><a xlink:href="interfacegame_1_1logic_1_1IGravityService.html" target="_top" xlink:title=" ">
<polygon fill="white" stroke="black" points="168.5,-50 168.5,-69 317.5,-69 317.5,-50 168.5,-50"/>
<text text-anchor="middle" x="243" y="-57" font-family="Helvetica,sans-Serif" font-size="10.00">game.logic.IGravityService</text>
</a>
</g>
</g>
<!-- Node7&#45;&gt;Node6 -->
<g id="edge4" class="edge">
<title>Node7&#45;&gt;Node6</title>
<path fill="none" stroke="midnightblue" d="M135.44,-59.5C146.27,-59.5 157.46,-59.5 168.33,-59.5"/>
<polygon fill="midnightblue" stroke="midnightblue" points="135.18,-56 125.18,-59.5 135.18,-63 135.18,-56"/>
</g>
<!-- Node9 -->
<g id="node8" class="node">
<title>Node9</title>
<g id="a_node8"><a xlink:href="classgame_1_1logic_1_1tilespawner_1_1TileSpawnerService.html" target="_top" xlink:title=" ">
<polygon fill="white" stroke="black" points="167.5,-0.5 167.5,-30.5 318.5,-30.5 318.5,-0.5 167.5,-0.5"/>
<text text-anchor="start" x="175.5" y="-18.5" font-family="Helvetica,sans-Serif" font-size="10.00">game.logic.tilespawner.Tile</text>
<text text-anchor="middle" x="243" y="-7.5" font-family="Helvetica,sans-Serif" font-size="10.00">SpawnerService</text>
</a>
</g>
</g>
<!-- Node7&#45;&gt;Node9 -->
<g id="edge6" class="edge">
<title>Node7&#45;&gt;Node9</title>
<path fill="none" stroke="midnightblue" d="M112,-47.54C133.23,-42.31 158.39,-36.11 180.88,-30.57"/>
<polygon fill="midnightblue" stroke="midnightblue" points="111.1,-44.16 102.23,-49.95 112.78,-50.96 111.1,-44.16"/>
</g>
<!-- Node5 -->
<g id="node7" class="node">
<title>Node5</title>
<g id="a_node7"><a xlink:href="classgame_1_1logic_1_1GravityService.html" target="_top" xlink:title=" ">
<polygon fill="white" stroke="black" points="371,-50 371,-69 517,-69 517,-50 371,-50"/>
<text text-anchor="middle" x="444" y="-57" font-family="Helvetica,sans-Serif" font-size="10.00">game.logic.GravityService</text>
</a>
</g>
</g>
<!-- Node6&#45;&gt;Node5 -->
<g id="edge5" class="edge">
<title>Node6&#45;&gt;Node5</title>
<path fill="none" stroke="midnightblue" d="M327.83,-59.5C342.11,-59.5 356.82,-59.5 370.76,-59.5"/>
<polygon fill="midnightblue" stroke="midnightblue" points="327.53,-56 317.53,-59.5 327.53,-63 327.53,-56"/>
</g>
<!-- Node3 -->
<g id="node9" class="node">
<title>Node3</title>
<g id="a_node9"><a xlink:href="interfacegamerunner_1_1IUpdatable.html" target="_top" xlink:title=" ">
<polygon fill="white" stroke="black" points="177.5,-138 177.5,-157 308.5,-157 308.5,-138 177.5,-138"/>
<text text-anchor="middle" x="243" y="-145" font-family="Helvetica,sans-Serif" font-size="10.00">gamerunner.IUpdatable</text>
</a>
</g>
</g>
<!-- Node3&#45;&gt;Node2 -->
<g id="edge9" class="edge">
<title>Node3&#45;&gt;Node2</title>
<path fill="none" stroke="midnightblue" d="M297.11,-159.24C320.98,-164.52 349.44,-170.81 374.86,-176.43"/>
<polygon fill="midnightblue" stroke="midnightblue" points="297.7,-155.79 287.18,-157.05 296.19,-162.62 297.7,-155.79"/>
</g>
<!-- Node3&#45;&gt;Node5 -->
<g id="edge8" class="edge">
<title>Node3&#45;&gt;Node5</title>
<path fill="none" stroke="midnightblue" d="M315.06,-134.07C318.53,-132.42 321.86,-130.57 325,-128.5 347.55,-113.61 338.52,-94.49 361,-79.5 367.58,-75.11 375.04,-71.68 382.7,-69"/>
<polygon fill="midnightblue" stroke="midnightblue" points="313.54,-130.91 305.65,-137.97 316.23,-137.37 313.54,-130.91"/>
</g>
<!-- Node4 -->
<g id="node10" class="node">
<title>Node4</title>
<g id="a_node10"><a xlink:href="classGameRunner.html" target="_top" xlink:title=" ">
<polygon fill="white" stroke="black" points="404,-138 404,-157 484,-157 484,-138 404,-138"/>
<text text-anchor="middle" x="444" y="-145" font-family="Helvetica,sans-Serif" font-size="10.00">GameRunner</text>
</a>
</g>
</g>
<!-- Node3&#45;&gt;Node4 -->
<g id="edge7" class="edge">
<title>Node3&#45;&gt;Node4</title>
<path fill="none" stroke="midnightblue" d="M318.72,-147.5C347.69,-147.5 379.66,-147.5 403.92,-147.5"/>
<polygon fill="midnightblue" stroke="midnightblue" points="318.61,-144 308.61,-147.5 318.61,-151 318.61,-144"/>
</g>
<!-- Node10 -->
<g id="node11" class="node">
<title>Node10</title>
<g id="a_node11"><a xlink:href="classgame_1_1logic_1_1playfield_1_1PlayFieldViewModel.html" target="_top" xlink:title=" ">
<polygon fill="white" stroke="black" points="374,-88.5 374,-118.5 514,-118.5 514,-88.5 374,-88.5"/>
<text text-anchor="start" x="382" y="-106.5" font-family="Helvetica,sans-Serif" font-size="10.00">game.logic.playfield.Play</text>
<text text-anchor="middle" x="444" y="-95.5" font-family="Helvetica,sans-Serif" font-size="10.00">FieldViewModel</text>
</a>
</g>
</g>
<!-- Node3&#45;&gt;Node10 -->
<g id="edge10" class="edge">
<title>Node3&#45;&gt;Node10</title>
<path fill="none" stroke="midnightblue" d="M297.11,-135.76C320.98,-130.48 349.44,-124.19 374.86,-118.57"/>
<polygon fill="midnightblue" stroke="midnightblue" points="296.19,-132.38 287.18,-137.95 297.7,-139.21 296.19,-132.38"/>
</g>
</g>
</svg>
