<?xml version="1.0" encoding="UTF-8" standalone="no"?>
<!DOCTYPE svg PUBLIC "-//W3C//DTD SVG 1.1//EN"
 "http://www.w3.org/Graphics/SVG/1.1/DTD/svg11.dtd">
<!-- Generated by graphviz version 2.43.0 (0)
 -->
<!-- Title: game.logic.tilespawner.ISpawnable Pages: 1 -->
<!--zoomable 160 -->
<svg id="main" version="1.1" xmlns="http://www.w3.org/2000/svg" xmlns:xlink="http://www.w3.org/1999/xlink" xml:space="preserve" onload="init(evt)">
<style type="text/css"><![CDATA[
.edge:hover path { stroke: red; }
.edge:hover polygon { stroke: red; fill: red; }
]]></style>
<script type="text/javascript"><![CDATA[
var edges = document.getElementsByTagName('g');
if (edges && edges.length) {
  for (var i=0;i<edges.length;i++) {
    if (edges[i].id.substr(0,4)=='edge') {
      edges[i].setAttribute('class','edge');
    }
  }
}
]]></script>
        <defs>
                <circle id="rim" cx="0" cy="0" r="7"/>
                <circle id="rim2" cx="0" cy="0" r="3.5"/>
                <g id="zoomPlus">
                        <use xlink:href="#rim" fill="#404040">
                                <set attributeName="fill" to="#808080" begin="zoomplus.mouseover" end="zoomplus.mouseout"/>
                        </use>
                        <path d="M-4,0h8M0,-4v8" fill="none" stroke="white" stroke-width="1.5" pointer-events="none"/>
                </g>
                <g id="zoomMin">
                        <use xlink:href="#rim" fill="#404040">
                                <set attributeName="fill" to="#808080" begin="zoomminus.mouseover" end="zoomminus.mouseout"/>
                        </use>
                        <path d="M-4,0h8" fill="none" stroke="white" stroke-width="1.5" pointer-events="none"/>
                </g>
                <g id="dirArrow">
                        <path fill="none" stroke="white" stroke-width="1.5" d="M0,-3.0v7 M-2.5,-0.5L0,-3.0L2.5,-0.5"/>
                </g>
               <g id="resetDef">
                       <use xlink:href="#rim2" fill="#404040">
                               <set attributeName="fill" to="#808080" begin="reset.mouseover" end="reset.mouseout"/>
                       </use>
               </g>
        </defs>

<script type="text/javascript">
var viewWidth = 1268;
var viewHeight = 160;
var sectionId = 'dynsection-0';
</script>
<script xlink:href="svgpan.js"/>
<svg id="graph" class="graph">
<g id="viewport">
<title>game.logic.tilespawner.ISpawnable</title>
<polygon fill="white" stroke="transparent" points="-4,4 -4,-156 1264,-156 1264,4 -4,4"/>
<!-- Node1 -->
<g id="node1" class="node">
<title>Node1</title>
<g id="a_node1"><a xlink:title=" ">
<polygon fill="#bfbfbf" stroke="black" points="531.5,-94.5 531.5,-151.5 720.5,-151.5 720.5,-94.5 531.5,-94.5"/>
<text text-anchor="middle" x="626" y="-139.5" font-family="Helvetica,sans-Serif" font-size="10.00">game.logic.tilespawner.ISpawnable</text>
<polyline fill="none" stroke="black" points="531.5,-132.5 720.5,-132.5 "/>
<text text-anchor="middle" x="626" y="-120.5" font-family="Helvetica,sans-Serif" font-size="10.00"> </text>
<polyline fill="none" stroke="black" points="531.5,-113.5 720.5,-113.5 "/>
<text text-anchor="start" x="539.5" y="-101.5" font-family="Helvetica,sans-Serif" font-size="10.00">+ Spawn()</text>
</a>
</g>
</g>
<!-- Node2 -->
<g id="node2" class="node">
<title>Node2</title>
<g id="a_node2"><a xlink:href="classgame_1_1logic_1_1tilespawner_1_1IPiece.html" target="_top" xlink:title=" ">
<polygon fill="white" stroke="black" points="0,-0.5 0,-57.5 162,-57.5 162,-0.5 0,-0.5"/>
<text text-anchor="middle" x="81" y="-45.5" font-family="Helvetica,sans-Serif" font-size="10.00">game.logic.tilespawner.IPiece</text>
<polyline fill="none" stroke="black" points="0,-38.5 162,-38.5 "/>
<text text-anchor="middle" x="81" y="-26.5" font-family="Helvetica,sans-Serif" font-size="10.00"> </text>
<polyline fill="none" stroke="black" points="0,-19.5 162,-19.5 "/>
<text text-anchor="start" x="8" y="-7.5" font-family="Helvetica,sans-Serif" font-size="10.00">+ Spawn()</text>
</a>
</g>
</g>
<!-- Node1&#45;&gt;Node2 -->
<g id="edge1" class="edge">
<title>Node1&#45;&gt;Node2</title>
<path fill="none" stroke="midnightblue" d="M521.13,-112.12C428.34,-102.23 289.66,-84.62 171,-58 168.13,-57.36 165.21,-56.66 162.28,-55.93"/>
<polygon fill="none" stroke="midnightblue" points="520.77,-115.6 531.08,-113.17 521.51,-108.64 520.77,-115.6"/>
</g>
<!-- Node3 -->
<g id="node3" class="node">
<title>Node3</title>
<g id="a_node3"><a xlink:href="classgame_1_1logic_1_1tilespawner_1_1JPiece.html" target="_top" xlink:title=" ">
<polygon fill="white" stroke="black" points="180,-0.5 180,-57.5 342,-57.5 342,-0.5 180,-0.5"/>
<text text-anchor="middle" x="261" y="-45.5" font-family="Helvetica,sans-Serif" font-size="10.00">game.logic.tilespawner.JPiece</text>
<polyline fill="none" stroke="black" points="180,-38.5 342,-38.5 "/>
<text text-anchor="middle" x="261" y="-26.5" font-family="Helvetica,sans-Serif" font-size="10.00"> </text>
<polyline fill="none" stroke="black" points="180,-19.5 342,-19.5 "/>
<text text-anchor="start" x="188" y="-7.5" font-family="Helvetica,sans-Serif" font-size="10.00">+ Spawn()</text>
</a>
</g>
</g>
<!-- Node1&#45;&gt;Node3 -->
<g id="edge2" class="edge">
<title>Node1&#45;&gt;Node3</title>
<path fill="none" stroke="midnightblue" d="M521.57,-99.58C470,-88.03 407,-73.2 351,-58 348.16,-57.23 345.27,-56.43 342.36,-55.6"/>
<polygon fill="none" stroke="midnightblue" points="520.87,-103.01 531.39,-101.77 522.39,-96.18 520.87,-103.01"/>
</g>
<!-- Node4 -->
<g id="node4" class="node">
<title>Node4</title>
<g id="a_node4"><a xlink:href="classgame_1_1logic_1_1tilespawner_1_1LPiece.html" target="_top" xlink:title=" ">
<polygon fill="white" stroke="black" points="360,-0.5 360,-57.5 524,-57.5 524,-0.5 360,-0.5"/>
<text text-anchor="middle" x="442" y="-45.5" font-family="Helvetica,sans-Serif" font-size="10.00">game.logic.tilespawner.LPiece</text>
<polyline fill="none" stroke="black" points="360,-38.5 524,-38.5 "/>
<text text-anchor="middle" x="442" y="-26.5" font-family="Helvetica,sans-Serif" font-size="10.00"> </text>
<polyline fill="none" stroke="black" points="360,-19.5 524,-19.5 "/>
<text text-anchor="start" x="368" y="-7.5" font-family="Helvetica,sans-Serif" font-size="10.00">+ Spawn()</text>
</a>
</g>
</g>
<!-- Node1&#45;&gt;Node4 -->
<g id="edge3" class="edge">
<title>Node1&#45;&gt;Node4</title>
<path fill="none" stroke="midnightblue" d="M561.62,-89.81C540.59,-79.3 517.45,-67.72 497.17,-57.58"/>
<polygon fill="none" stroke="midnightblue" points="560.28,-93.06 570.79,-94.4 563.41,-86.79 560.28,-93.06"/>
</g>
<!-- Node5 -->
<g id="node5" class="node">
<title>Node5</title>
<g id="a_node5"><a xlink:href="classgame_1_1logic_1_1tilespawner_1_1OPiece.html" target="_top" xlink:title=" ">
<polygon fill="white" stroke="black" points="542.5,-0.5 542.5,-57.5 709.5,-57.5 709.5,-0.5 542.5,-0.5"/>
<text text-anchor="middle" x="626" y="-45.5" font-family="Helvetica,sans-Serif" font-size="10.00">game.logic.tilespawner.OPiece</text>
<polyline fill="none" stroke="black" points="542.5,-38.5 709.5,-38.5 "/>
<text text-anchor="middle" x="626" y="-26.5" font-family="Helvetica,sans-Serif" font-size="10.00"> </text>
<polyline fill="none" stroke="black" points="542.5,-19.5 709.5,-19.5 "/>
<text text-anchor="start" x="550.5" y="-7.5" font-family="Helvetica,sans-Serif" font-size="10.00">+ Spawn()</text>
</a>
</g>
</g>
<!-- Node1&#45;&gt;Node5 -->
<g id="edge4" class="edge">
<title>Node1&#45;&gt;Node5</title>
<path fill="none" stroke="midnightblue" d="M626,-84.21C626,-75.29 626,-65.95 626,-57.58"/>
<polygon fill="none" stroke="midnightblue" points="622.5,-84.4 626,-94.4 629.5,-84.4 622.5,-84.4"/>
</g>
<!-- Node6 -->
<g id="node6" class="node">
<title>Node6</title>
<g id="a_node6"><a xlink:href="classgame_1_1logic_1_1tilespawner_1_1SPiece.html" target="_top" xlink:title=" ">
<polygon fill="white" stroke="black" points="727.5,-0.5 727.5,-57.5 892.5,-57.5 892.5,-0.5 727.5,-0.5"/>
<text text-anchor="middle" x="810" y="-45.5" font-family="Helvetica,sans-Serif" font-size="10.00">game.logic.tilespawner.SPiece</text>
<polyline fill="none" stroke="black" points="727.5,-38.5 892.5,-38.5 "/>
<text text-anchor="middle" x="810" y="-26.5" font-family="Helvetica,sans-Serif" font-size="10.00"> </text>
<polyline fill="none" stroke="black" points="727.5,-19.5 892.5,-19.5 "/>
<text text-anchor="start" x="735.5" y="-7.5" font-family="Helvetica,sans-Serif" font-size="10.00">+ Spawn()</text>
</a>
</g>
</g>
<!-- Node1&#45;&gt;Node6 -->
<g id="edge5" class="edge">
<title>Node1&#45;&gt;Node6</title>
<path fill="none" stroke="midnightblue" d="M690.38,-89.81C711.41,-79.3 734.55,-67.72 754.83,-57.58"/>
<polygon fill="none" stroke="midnightblue" points="688.59,-86.79 681.21,-94.4 691.72,-93.06 688.59,-86.79"/>
</g>
<!-- Node7 -->
<g id="node7" class="node">
<title>Node7</title>
<g id="a_node7"><a xlink:href="classgame_1_1logic_1_1tilespawner_1_1TPiece.html" target="_top" xlink:title=" ">
<polygon fill="white" stroke="black" points="910.5,-0.5 910.5,-57.5 1075.5,-57.5 1075.5,-0.5 910.5,-0.5"/>
<text text-anchor="middle" x="993" y="-45.5" font-family="Helvetica,sans-Serif" font-size="10.00">game.logic.tilespawner.TPiece</text>
<polyline fill="none" stroke="black" points="910.5,-38.5 1075.5,-38.5 "/>
<text text-anchor="middle" x="993" y="-26.5" font-family="Helvetica,sans-Serif" font-size="10.00"> </text>
<polyline fill="none" stroke="black" points="910.5,-19.5 1075.5,-19.5 "/>
<text text-anchor="start" x="918.5" y="-7.5" font-family="Helvetica,sans-Serif" font-size="10.00">+ Spawn()</text>
</a>
</g>
</g>
<!-- Node1&#45;&gt;Node7 -->
<g id="edge6" class="edge">
<title>Node1&#45;&gt;Node7</title>
<path fill="none" stroke="midnightblue" d="M730.49,-99.6C782.29,-88.03 845.67,-73.18 902,-58 904.71,-57.27 907.47,-56.51 910.25,-55.73"/>
<polygon fill="none" stroke="midnightblue" points="729.62,-96.21 720.62,-101.79 731.14,-103.04 729.62,-96.21"/>
</g>
<!-- Node8 -->
<g id="node8" class="node">
<title>Node8</title>
<g id="a_node8"><a xlink:href="classgame_1_1logic_1_1tilespawner_1_1ZPiece.html" target="_top" xlink:title=" ">
<polygon fill="white" stroke="black" points="1094,-0.5 1094,-57.5 1260,-57.5 1260,-0.5 1094,-0.5"/>
<text text-anchor="middle" x="1177" y="-45.5" font-family="Helvetica,sans-Serif" font-size="10.00">game.logic.tilespawner.ZPiece</text>
<polyline fill="none" stroke="black" points="1094,-38.5 1260,-38.5 "/>
<text text-anchor="middle" x="1177" y="-26.5" font-family="Helvetica,sans-Serif" font-size="10.00"> </text>
<polyline fill="none" stroke="black" points="1094,-19.5 1260,-19.5 "/>
<text text-anchor="start" x="1102" y="-7.5" font-family="Helvetica,sans-Serif" font-size="10.00">+ Spawn()</text>
</a>
</g>
</g>
<!-- Node1&#45;&gt;Node8 -->
<g id="edge7" class="edge">
<title>Node1&#45;&gt;Node8</title>
<path fill="none" stroke="midnightblue" d="M730.87,-112.11C824.45,-102.17 964.84,-84.49 1085,-58 1087.93,-57.35 1090.91,-56.66 1093.91,-55.93"/>
<polygon fill="none" stroke="midnightblue" points="730.41,-108.64 720.83,-113.17 731.14,-115.6 730.41,-108.64"/>
</g>
</g>
</svg>
        <g id="navigator" transform="translate(0 0)" fill="#404254">
                <rect fill="#f2f5e9" fill-opacity="0.5" stroke="#606060" stroke-width=".5" x="0" y="0" width="60" height="60"/>
                <use id="zoomplus" xlink:href="#zoomPlus" x="17" y="9" onmousedown="handleZoom(evt,'in')"/>
                <use id="zoomminus" xlink:href="#zoomMin" x="42" y="9" onmousedown="handleZoom(evt,'out')"/>
                <use id="reset" xlink:href="#resetDef" x="30" y="36" onmousedown="handleReset()"/>
                <g id="arrowUp" xlink:href="#dirArrow" transform="translate(30 24)" onmousedown="handlePan(0,-1)">
                  <use xlink:href="#rim" fill="#404040">
                        <set attributeName="fill" to="#808080" begin="arrowUp.mouseover" end="arrowUp.mouseout"/>
                  </use>
                  <path fill="none" stroke="white" stroke-width="1.5" d="M0,-3.0v7 M-2.5,-0.5L0,-3.0L2.5,-0.5"/>
                </g>
                <g id="arrowRight" xlink:href="#dirArrow" transform="rotate(90) translate(36 -43)" onmousedown="handlePan(1,0)">
                  <use xlink:href="#rim" fill="#404040">
                        <set attributeName="fill" to="#808080" begin="arrowRight.mouseover" end="arrowRight.mouseout"/>
                  </use>
                  <path fill="none" stroke="white" stroke-width="1.5" d="M0,-3.0v7 M-2.5,-0.5L0,-3.0L2.5,-0.5"/>
                </g>
                <g id="arrowDown" xlink:href="#dirArrow" transform="rotate(180) translate(-30 -48)" onmousedown="handlePan(0,1)">
                  <use xlink:href="#rim" fill="#404040">
                        <set attributeName="fill" to="#808080" begin="arrowDown.mouseover" end="arrowDown.mouseout"/>
                  </use>
                  <path fill="none" stroke="white" stroke-width="1.5" d="M0,-3.0v7 M-2.5,-0.5L0,-3.0L2.5,-0.5"/>
                </g>
                <g id="arrowLeft" xlink:href="#dirArrow" transform="rotate(270) translate(-36 17)" onmousedown="handlePan(-1,0)">
                  <use xlink:href="#rim" fill="#404040">
                        <set attributeName="fill" to="#808080" begin="arrowLeft.mouseover" end="arrowLeft.mouseout"/>
                  </use>
                  <path fill="none" stroke="white" stroke-width="1.5" d="M0,-3.0v7 M-2.5,-0.5L0,-3.0L2.5,-0.5"/>
                </g>
        </g>
        <svg viewBox="0 0 15 15" width="100%" height="30px" preserveAspectRatio="xMaxYMin meet">
         <g id="arrow_out" transform="scale(0.3 0.3)">
          <a xlink:href="interfacegame_1_1logic_1_1tilespawner_1_1ISpawnable__inherit__graph_org.svg" target="_base">
           <rect id="button" ry="5" rx="5" y="6" x="6" height="38" width="38"
                fill="#f2f5e9" fill-opacity="0.5" stroke="#606060" stroke-width="1.0"/>
           <path id="arrow"
             d="M 11.500037,31.436501 C 11.940474,20.09759 22.043105,11.32322 32.158766,21.979434 L 37.068811,17.246167 C 37.068811,17.246167 37.088388,32 37.088388,32 L 22.160133,31.978069 C 22.160133,31.978069 26.997745,27.140456 26.997745,27.140456 C 18.528582,18.264221 13.291696,25.230495 11.500037,31.436501 z"
             style="fill:#404040;"/>
          </a>
         </g>
        </svg>
</svg>
