<?xml version="1.0" encoding="UTF-8" standalone="no"?>
<!DOCTYPE svg PUBLIC "-//W3C//DTD SVG 1.1//EN"
 "http://www.w3.org/Graphics/SVG/1.1/DTD/svg11.dtd">
<!-- Generated by graphviz version 2.43.0 (0)
 -->
<!-- Title: game.service.IService Pages: 1 -->
<svg width="518pt" height="408pt"
 viewBox="0.00 0.00 518.00 408.00" xmlns="http://www.w3.org/2000/svg" xmlns:xlink="http://www.w3.org/1999/xlink">
<g id="graph0" class="graph" transform="scale(1 1) rotate(0) translate(4 404)">
<title>game.service.IService</title>
<polygon fill="white" stroke="transparent" points="-4,4 -4,-404 514,-404 514,4 -4,4"/>
<!-- Node1 -->
<g id="node1" class="node">
<title>Node1</title>
<g id="a_node1"><a xlink:title=" ">
<polygon fill="#bfbfbf" stroke="black" points="194.5,-342.5 194.5,-399.5 319.5,-399.5 319.5,-342.5 194.5,-342.5"/>
<text text-anchor="middle" x="257" y="-387.5" font-family="Helvetica,sans-Serif" font-size="10.00">game.service.IService</text>
<polyline fill="none" stroke="black" points="194.5,-380.5 319.5,-380.5 "/>
<text text-anchor="middle" x="257" y="-368.5" font-family="Helvetica,sans-Serif" font-size="10.00"> </text>
<polyline fill="none" stroke="black" points="194.5,-361.5 319.5,-361.5 "/>
<text text-anchor="middle" x="257" y="-349.5" font-family="Helvetica,sans-Serif" font-size="10.00"> </text>
</a>
</g>
</g>
<!-- Node2 -->
<g id="node2" class="node">
<title>Node2</title>
<g id="a_node2"><a xlink:href="classgame_1_1logic_1_1EventQueue_1_1EventQueue.html" target="_top" xlink:title=" ">
<polygon fill="white" stroke="black" points="0,-160.5 0,-261.5 164,-261.5 164,-160.5 0,-160.5"/>
<text text-anchor="start" x="8" y="-249.5" font-family="Helvetica,sans-Serif" font-size="10.00">game.logic.EventQueue.Event</text>
<text text-anchor="middle" x="82" y="-238.5" font-family="Helvetica,sans-Serif" font-size="10.00">Queue</text>
<polyline fill="none" stroke="black" points="0,-231.5 164,-231.5 "/>
<text text-anchor="start" x="8" y="-219.5" font-family="Helvetica,sans-Serif" font-size="10.00">&#45; _queues</text>
<polyline fill="none" stroke="black" points="0,-212.5 164,-212.5 "/>
<text text-anchor="start" x="8" y="-200.5" font-family="Helvetica,sans-Serif" font-size="10.00">+ EventQueue()</text>
<text text-anchor="start" x="8" y="-189.5" font-family="Helvetica,sans-Serif" font-size="10.00">+ Enqueue()</text>
<text text-anchor="start" x="8" y="-178.5" font-family="Helvetica,sans-Serif" font-size="10.00">+ HasEvent()</text>
<text text-anchor="start" x="8" y="-167.5" font-family="Helvetica,sans-Serif" font-size="10.00">+ Dequeue()</text>
</a>
</g>
</g>
<!-- Node1&#45;&gt;Node2 -->
<g id="edge1" class="edge">
<title>Node1&#45;&gt;Node2</title>
<path fill="none" stroke="midnightblue" d="M210.63,-336.07C198.44,-326.66 185.49,-316.21 174,-306 158.47,-292.2 142.35,-276.33 128.03,-261.61"/>
<polygon fill="none" stroke="midnightblue" points="208.85,-339.11 218.93,-342.4 213.1,-333.55 208.85,-339.11"/>
</g>
<!-- Node3 -->
<g id="node3" class="node">
<title>Node3</title>
<g id="a_node3"><a xlink:href="interfacegame_1_1logic_1_1IGravityService.html" target="_top" xlink:title=" ">
<polygon fill="white" stroke="black" points="182.5,-182.5 182.5,-239.5 331.5,-239.5 331.5,-182.5 182.5,-182.5"/>
<text text-anchor="middle" x="257" y="-227.5" font-family="Helvetica,sans-Serif" font-size="10.00">game.logic.IGravityService</text>
<polyline fill="none" stroke="black" points="182.5,-220.5 331.5,-220.5 "/>
<text text-anchor="start" x="190.5" y="-208.5" font-family="Helvetica,sans-Serif" font-size="10.00">+ CurrentGravity</text>
<polyline fill="none" stroke="black" points="182.5,-201.5 331.5,-201.5 "/>
<text text-anchor="middle" x="257" y="-189.5" font-family="Helvetica,sans-Serif" font-size="10.00"> </text>
</a>
</g>
</g>
<!-- Node1&#45;&gt;Node3 -->
<g id="edge2" class="edge">
<title>Node1&#45;&gt;Node3</title>
<path fill="none" stroke="midnightblue" d="M257,-332.11C257,-303.66 257,-265.37 257,-239.74"/>
<polygon fill="none" stroke="midnightblue" points="253.5,-332.48 257,-342.48 260.5,-332.48 253.5,-332.48"/>
</g>
<!-- Node5 -->
<g id="node5" class="node">
<title>Node5</title>
<g id="a_node5"><a xlink:href="classgame_1_1logic_1_1tilespawner_1_1TileSpawnerService.html" target="_top" xlink:title=" ">
<polygon fill="white" stroke="black" points="350,-116.5 350,-305.5 510,-305.5 510,-116.5 350,-116.5"/>
<text text-anchor="start" x="358" y="-293.5" font-family="Helvetica,sans-Serif" font-size="10.00">game.logic.tilespawner.Tile</text>
<text text-anchor="middle" x="430" y="-282.5" font-family="Helvetica,sans-Serif" font-size="10.00">SpawnerService</text>
<polyline fill="none" stroke="black" points="350,-275.5 510,-275.5 "/>
<text text-anchor="start" x="358" y="-263.5" font-family="Helvetica,sans-Serif" font-size="10.00">&#45; _pieces</text>
<text text-anchor="start" x="358" y="-252.5" font-family="Helvetica,sans-Serif" font-size="10.00">&#45; rng</text>
<polyline fill="none" stroke="black" points="350,-245.5 510,-245.5 "/>
<text text-anchor="start" x="358" y="-233.5" font-family="Helvetica,sans-Serif" font-size="10.00">+ CreateTileShapeDelegate()</text>
<text text-anchor="start" x="358" y="-222.5" font-family="Helvetica,sans-Serif" font-size="10.00">+ TileSpawnerService()</text>
<text text-anchor="start" x="358" y="-211.5" font-family="Helvetica,sans-Serif" font-size="10.00">+ Spawn()</text>
<text text-anchor="start" x="358" y="-200.5" font-family="Helvetica,sans-Serif" font-size="10.00">&#45; Shuffle()</text>
<text text-anchor="start" x="358" y="-189.5" font-family="Helvetica,sans-Serif" font-size="10.00">&#45; SpawnIPiece()</text>
<text text-anchor="start" x="358" y="-178.5" font-family="Helvetica,sans-Serif" font-size="10.00">&#45; SpawnJPiece()</text>
<text text-anchor="start" x="358" y="-167.5" font-family="Helvetica,sans-Serif" font-size="10.00">&#45; SpawnLPiece()</text>
<text text-anchor="start" x="358" y="-156.5" font-family="Helvetica,sans-Serif" font-size="10.00">&#45; SpawnOPiece()</text>
<text text-anchor="start" x="358" y="-145.5" font-family="Helvetica,sans-Serif" font-size="10.00">&#45; SpawnSPiece()</text>
<text text-anchor="start" x="358" y="-134.5" font-family="Helvetica,sans-Serif" font-size="10.00">&#45; SpawnTPiece()</text>
<text text-anchor="start" x="358" y="-123.5" font-family="Helvetica,sans-Serif" font-size="10.00">&#45; SpawnZPiece()</text>
</a>
</g>
</g>
<!-- Node1&#45;&gt;Node5 -->
<g id="edge4" class="edge">
<title>Node1&#45;&gt;Node5</title>
<path fill="none" stroke="midnightblue" d="M304.43,-335.98C316.66,-326.64 329.59,-316.25 341,-306 343.93,-303.37 346.87,-300.66 349.81,-297.9"/>
<polygon fill="none" stroke="midnightblue" points="301.97,-333.45 296.09,-342.27 306.19,-339.04 301.97,-333.45"/>
</g>
<!-- Node4 -->
<g id="node4" class="node">
<title>Node4</title>
<g id="a_node4"><a xlink:href="classgame_1_1logic_1_1GravityService.html" target="_top" xlink:title=" ">
<polygon fill="white" stroke="black" points="184,-0.5 184,-79.5 330,-79.5 330,-0.5 184,-0.5"/>
<text text-anchor="middle" x="257" y="-67.5" font-family="Helvetica,sans-Serif" font-size="10.00">game.logic.GravityService</text>
<polyline fill="none" stroke="black" points="184,-60.5 330,-60.5 "/>
<text text-anchor="start" x="192" y="-48.5" font-family="Helvetica,sans-Serif" font-size="10.00">+ CurrentGravity</text>
<text text-anchor="start" x="192" y="-37.5" font-family="Helvetica,sans-Serif" font-size="10.00">&#45; _gravityStrategy</text>
<polyline fill="none" stroke="black" points="184,-30.5 330,-30.5 "/>
<text text-anchor="start" x="192" y="-18.5" font-family="Helvetica,sans-Serif" font-size="10.00">+ GravityService()</text>
<text text-anchor="start" x="192" y="-7.5" font-family="Helvetica,sans-Serif" font-size="10.00">+ Update()</text>
</a>
</g>
</g>
<!-- Node3&#45;&gt;Node4 -->
<g id="edge3" class="edge">
<title>Node3&#45;&gt;Node4</title>
<path fill="none" stroke="midnightblue" d="M257,-172.41C257,-144.79 257,-107.4 257,-79.56"/>
<polygon fill="none" stroke="midnightblue" points="253.5,-172.47 257,-182.47 260.5,-172.47 253.5,-172.47"/>
</g>
</g>
</svg>
