<?xml version="1.0" encoding="UTF-8" standalone="no"?>
<!DOCTYPE svg PUBLIC "-//W3C//DTD SVG 1.1//EN"
 "http://www.w3.org/Graphics/SVG/1.1/DTD/svg11.dtd">
<!-- Generated by graphviz version 2.43.0 (0)
 -->
<!-- Title: game.logic.EventQueue.IEvent Pages: 1 -->
<svg width="352pt" height="204pt"
 viewBox="0.00 0.00 352.00 204.00" xmlns="http://www.w3.org/2000/svg" xmlns:xlink="http://www.w3.org/1999/xlink">
<g id="graph0" class="graph" transform="scale(1 1) rotate(0) translate(4 200)">
<title>game.logic.EventQueue.IEvent</title>
<polygon fill="white" stroke="transparent" points="-4,4 -4,-200 348,-200 348,4 -4,4"/>
<!-- Node1 -->
<g id="node1" class="node">
<title>Node1</title>
<g id="a_node1"><a xlink:title=" ">
<polygon fill="#bfbfbf" stroke="black" points="90.5,-127.5 90.5,-195.5 257.5,-195.5 257.5,-127.5 90.5,-127.5"/>
<text text-anchor="middle" x="174" y="-183.5" font-family="Helvetica,sans-Serif" font-size="10.00">game.logic.EventQueue.IEvent</text>
<polyline fill="none" stroke="black" points="90.5,-176.5 257.5,-176.5 "/>
<text text-anchor="start" x="98.5" y="-164.5" font-family="Helvetica,sans-Serif" font-size="10.00">+ Id</text>
<text text-anchor="start" x="98.5" y="-153.5" font-family="Helvetica,sans-Serif" font-size="10.00">+ Source</text>
<polyline fill="none" stroke="black" points="90.5,-146.5 257.5,-146.5 "/>
<text text-anchor="middle" x="174" y="-134.5" font-family="Helvetica,sans-Serif" font-size="10.00"> </text>
</a>
</g>
</g>
<!-- Node2 -->
<g id="node2" class="node">
<title>Node2</title>
<g id="a_node2"><a xlink:href="classgame_1_1logic_1_1EventQueue_1_1SpawnTileEvent.html" target="_top" xlink:title=" ">
<polygon fill="white" stroke="black" points="0,-0.5 0,-90.5 168,-90.5 168,-0.5 0,-0.5"/>
<text text-anchor="start" x="8" y="-78.5" font-family="Helvetica,sans-Serif" font-size="10.00">game.logic.EventQueue.Spawn</text>
<text text-anchor="middle" x="84" y="-67.5" font-family="Helvetica,sans-Serif" font-size="10.00">TileEvent</text>
<polyline fill="none" stroke="black" points="0,-60.5 168,-60.5 "/>
<text text-anchor="start" x="8" y="-48.5" font-family="Helvetica,sans-Serif" font-size="10.00">+ CreateTileShapeDelegate</text>
<text text-anchor="start" x="8" y="-37.5" font-family="Helvetica,sans-Serif" font-size="10.00">+ Id</text>
<text text-anchor="start" x="8" y="-26.5" font-family="Helvetica,sans-Serif" font-size="10.00">+ Source</text>
<polyline fill="none" stroke="black" points="0,-19.5 168,-19.5 "/>
<text text-anchor="start" x="8" y="-7.5" font-family="Helvetica,sans-Serif" font-size="10.00">+ SpawnTileEvent()</text>
</a>
</g>
</g>
<!-- Node1&#45;&gt;Node2 -->
<g id="edge1" class="edge">
<title>Node1&#45;&gt;Node2</title>
<path fill="none" stroke="midnightblue" d="M141.42,-119.24C134.09,-109.94 126.27,-100.04 118.85,-90.64"/>
<polygon fill="none" stroke="midnightblue" points="138.78,-121.54 147.73,-127.22 144.28,-117.2 138.78,-121.54"/>
</g>
<!-- Node3 -->
<g id="node3" class="node">
<title>Node3</title>
<g id="a_node3"><a xlink:href="classgame_1_1logic_1_1EventQueue_1_1UserLoginEvent.html" target="_top" xlink:title=" ">
<polygon fill="white" stroke="black" points="186,-0.5 186,-90.5 344,-90.5 344,-0.5 186,-0.5"/>
<text text-anchor="start" x="194" y="-78.5" font-family="Helvetica,sans-Serif" font-size="10.00">game.logic.EventQueue.User</text>
<text text-anchor="middle" x="265" y="-67.5" font-family="Helvetica,sans-Serif" font-size="10.00">LoginEvent</text>
<polyline fill="none" stroke="black" points="186,-60.5 344,-60.5 "/>
<text text-anchor="start" x="194" y="-48.5" font-family="Helvetica,sans-Serif" font-size="10.00">+ Username</text>
<text text-anchor="start" x="194" y="-37.5" font-family="Helvetica,sans-Serif" font-size="10.00">+ Id</text>
<text text-anchor="start" x="194" y="-26.5" font-family="Helvetica,sans-Serif" font-size="10.00">+ Source</text>
<polyline fill="none" stroke="black" points="186,-19.5 344,-19.5 "/>
<text text-anchor="start" x="194" y="-7.5" font-family="Helvetica,sans-Serif" font-size="10.00">+ UserLoginEvent()</text>
</a>
</g>
</g>
<!-- Node1&#45;&gt;Node3 -->
<g id="edge2" class="edge">
<title>Node1&#45;&gt;Node3</title>
<path fill="none" stroke="midnightblue" d="M206.94,-119.24C214.36,-109.94 222.26,-100.04 229.77,-90.64"/>
<polygon fill="none" stroke="midnightblue" points="204.07,-117.22 200.57,-127.22 209.54,-121.59 204.07,-117.22"/>
</g>
</g>
</svg>
