<?xml version="1.0" encoding="UTF-8" standalone="no"?>
<!DOCTYPE svg PUBLIC "-//W3C//DTD SVG 1.1//EN"
 "http://www.w3.org/Graphics/SVG/1.1/DTD/svg11.dtd">
<!-- Generated by graphviz version 2.43.0 (0)
 -->
<!-- Title: game.logic.IGravityStrategy Pages: 1 -->
<svg width="356pt" height="248pt"
 viewBox="0.00 0.00 356.00 248.00" xmlns="http://www.w3.org/2000/svg" xmlns:xlink="http://www.w3.org/1999/xlink">
<g id="graph0" class="graph" transform="scale(1 1) rotate(0) translate(4 244)">
<title>game.logic.IGravityStrategy</title>
<polygon fill="white" stroke="transparent" points="-4,4 -4,-244 352,-244 352,4 -4,4"/>
<!-- Node1 -->
<g id="node1" class="node">
<title>Node1</title>
<g id="a_node1"><a xlink:title=" ">
<polygon fill="#bfbfbf" stroke="black" points="97,-171.5 97,-239.5 251,-239.5 251,-171.5 97,-171.5"/>
<text text-anchor="middle" x="174" y="-227.5" font-family="Helvetica,sans-Serif" font-size="10.00">game.logic.IGravityStrategy</text>
<polyline fill="none" stroke="black" points="97,-220.5 251,-220.5 "/>
<text text-anchor="start" x="105" y="-208.5" font-family="Helvetica,sans-Serif" font-size="10.00">+ CurrentGravity</text>
<text text-anchor="start" x="105" y="-197.5" font-family="Helvetica,sans-Serif" font-size="10.00">+ Gravity</text>
<polyline fill="none" stroke="black" points="97,-190.5 251,-190.5 "/>
<text text-anchor="middle" x="174" y="-178.5" font-family="Helvetica,sans-Serif" font-size="10.00"> </text>
</a>
</g>
</g>
<!-- Node2 -->
<g id="node2" class="node">
<title>Node2</title>
<g id="a_node2"><a xlink:href="classgame_1_1logic_1_1LevelBasedGravityStrategy.html" target="_top" xlink:title=" ">
<polygon fill="white" stroke="black" points="0,-0.5 0,-134.5 166,-134.5 166,-0.5 0,-0.5"/>
<text text-anchor="start" x="8" y="-122.5" font-family="Helvetica,sans-Serif" font-size="10.00">game.logic.LevelBasedGravity</text>
<text text-anchor="middle" x="83" y="-111.5" font-family="Helvetica,sans-Serif" font-size="10.00">Strategy</text>
<polyline fill="none" stroke="black" points="0,-104.5 166,-104.5 "/>
<text text-anchor="start" x="8" y="-92.5" font-family="Helvetica,sans-Serif" font-size="10.00">+ CurrentGravity</text>
<text text-anchor="start" x="8" y="-81.5" font-family="Helvetica,sans-Serif" font-size="10.00">+ Gravity</text>
<text text-anchor="start" x="8" y="-70.5" font-family="Helvetica,sans-Serif" font-size="10.00">&#45; _gravityBase</text>
<text text-anchor="start" x="8" y="-59.5" font-family="Helvetica,sans-Serif" font-size="10.00">&#45; _level</text>
<text text-anchor="start" x="8" y="-48.5" font-family="Helvetica,sans-Serif" font-size="10.00">&#45; GravityIncreasePerLevel</text>
<polyline fill="none" stroke="black" points="0,-41.5 166,-41.5 "/>
<text text-anchor="start" x="8" y="-29.5" font-family="Helvetica,sans-Serif" font-size="10.00">+ SetLevel()</text>
<text text-anchor="start" x="8" y="-18.5" font-family="Helvetica,sans-Serif" font-size="10.00">+ LevelUp()</text>
<text text-anchor="start" x="8" y="-7.5" font-family="Helvetica,sans-Serif" font-size="10.00">+ ResetLevel()</text>
</a>
</g>
</g>
<!-- Node1&#45;&gt;Node2 -->
<g id="edge1" class="edge">
<title>Node1&#45;&gt;Node2</title>
<path fill="none" stroke="midnightblue" d="M146.17,-162.9C140.18,-153.96 133.72,-144.3 127.28,-134.68"/>
<polygon fill="none" stroke="midnightblue" points="143.27,-164.87 151.74,-171.23 149.09,-160.97 143.27,-164.87"/>
</g>
<!-- Node3 -->
<g id="node3" class="node">
<title>Node3</title>
<g id="a_node3"><a xlink:href="classgame_1_1logic_1_1TimeBasedGravityStrategy.html" target="_top" xlink:title=" ">
<polygon fill="white" stroke="black" points="184,-6 184,-129 348,-129 348,-6 184,-6"/>
<text text-anchor="start" x="192" y="-117" font-family="Helvetica,sans-Serif" font-size="10.00">game.logic.TimeBasedGravity</text>
<text text-anchor="middle" x="266" y="-106" font-family="Helvetica,sans-Serif" font-size="10.00">Strategy</text>
<polyline fill="none" stroke="black" points="184,-99 348,-99 "/>
<text text-anchor="start" x="192" y="-87" font-family="Helvetica,sans-Serif" font-size="10.00">+ CurrentGravity</text>
<text text-anchor="start" x="192" y="-76" font-family="Helvetica,sans-Serif" font-size="10.00">+ Gravity</text>
<text text-anchor="start" x="192" y="-65" font-family="Helvetica,sans-Serif" font-size="10.00">&#45; _gravityBase</text>
<text text-anchor="start" x="192" y="-54" font-family="Helvetica,sans-Serif" font-size="10.00">&#45; _gravityScale</text>
<text text-anchor="start" x="192" y="-43" font-family="Helvetica,sans-Serif" font-size="10.00">&#45; _gravityIncreasePerSecond</text>
<polyline fill="none" stroke="black" points="184,-36 348,-36 "/>
<text text-anchor="start" x="192" y="-24" font-family="Helvetica,sans-Serif" font-size="10.00">+ Update()</text>
<text text-anchor="start" x="192" y="-13" font-family="Helvetica,sans-Serif" font-size="10.00">+ setGravityScale()</text>
</a>
</g>
</g>
<!-- Node1&#45;&gt;Node3 -->
<g id="edge2" class="edge">
<title>Node1&#45;&gt;Node3</title>
<path fill="none" stroke="midnightblue" d="M202.14,-162.9C209.38,-152.2 217.31,-140.47 225.06,-129.03"/>
<polygon fill="none" stroke="midnightblue" points="199.21,-160.99 196.51,-171.23 205.01,-164.91 199.21,-160.99"/>
</g>
</g>
</svg>
