<?xml version="1.0" encoding="UTF-8" standalone="no"?>
<!DOCTYPE svg PUBLIC "-//W3C//DTD SVG 1.1//EN"
 "http://www.w3.org/Graphics/SVG/1.1/DTD/svg11.dtd">
<!-- Generated by graphviz version 2.43.0 (0)
 -->
<!-- Title: network.IHttpRequest Pages: 1 -->
<svg width="304pt" height="193pt"
 viewBox="0.00 0.00 304.00 193.00" xmlns="http://www.w3.org/2000/svg" xmlns:xlink="http://www.w3.org/1999/xlink">
<g id="graph0" class="graph" transform="scale(1 1) rotate(0) translate(4 189)">
<title>network.IHttpRequest</title>
<polygon fill="white" stroke="transparent" points="-4,4 -4,-189 300,-189 300,4 -4,4"/>
<!-- Node1 -->
<g id="node1" class="node">
<title>Node1</title>
<g id="a_node1"><a xlink:title=" ">
<polygon fill="#bfbfbf" stroke="black" points="85,-127.5 85,-184.5 208,-184.5 208,-127.5 85,-127.5"/>
<text text-anchor="middle" x="146.5" y="-172.5" font-family="Helvetica,sans-Serif" font-size="10.00">network.IHttpRequest</text>
<polyline fill="none" stroke="black" points="85,-165.5 208,-165.5 "/>
<text text-anchor="middle" x="146.5" y="-153.5" font-family="Helvetica,sans-Serif" font-size="10.00"> </text>
<polyline fill="none" stroke="black" points="85,-146.5 208,-146.5 "/>
<text text-anchor="start" x="93" y="-134.5" font-family="Helvetica,sans-Serif" font-size="10.00">+ ExecuteAsync()</text>
</a>
</g>
</g>
<!-- Node2 -->
<g id="node2" class="node">
<title>Node2</title>
<g id="a_node2"><a xlink:href="classnetwork_1_1HttpGetRequest.html" target="_top" xlink:title=" ">
<polygon fill="white" stroke="black" points="0,-17 0,-74 137,-74 137,-17 0,-17"/>
<text text-anchor="middle" x="68.5" y="-62" font-family="Helvetica,sans-Serif" font-size="10.00">network.HttpGetRequest</text>
<polyline fill="none" stroke="black" points="0,-55 137,-55 "/>
<text text-anchor="start" x="8" y="-43" font-family="Helvetica,sans-Serif" font-size="10.00">&#45; Client</text>
<polyline fill="none" stroke="black" points="0,-36 137,-36 "/>
<text text-anchor="start" x="8" y="-24" font-family="Helvetica,sans-Serif" font-size="10.00">+ ExecuteAsync()</text>
</a>
</g>
</g>
<!-- Node1&#45;&gt;Node2 -->
<g id="edge1" class="edge">
<title>Node1&#45;&gt;Node2</title>
<path fill="none" stroke="midnightblue" d="M120.62,-119C110.11,-104.37 98.15,-87.75 88.35,-74.11"/>
<polygon fill="none" stroke="midnightblue" points="117.94,-121.26 126.62,-127.34 123.62,-117.18 117.94,-121.26"/>
</g>
<!-- Node3 -->
<g id="node3" class="node">
<title>Node3</title>
<g id="a_node3"><a xlink:href="classnetwork_1_1HttpPostRequest.html" target="_top" xlink:title=" ">
<polygon fill="white" stroke="black" points="155,-0.5 155,-90.5 296,-90.5 296,-0.5 155,-0.5"/>
<text text-anchor="middle" x="225.5" y="-78.5" font-family="Helvetica,sans-Serif" font-size="10.00">network.HttpPostRequest</text>
<polyline fill="none" stroke="black" points="155,-71.5 296,-71.5 "/>
<text text-anchor="start" x="163" y="-59.5" font-family="Helvetica,sans-Serif" font-size="10.00">&#45; _client</text>
<text text-anchor="start" x="163" y="-48.5" font-family="Helvetica,sans-Serif" font-size="10.00">&#45; _data</text>
<polyline fill="none" stroke="black" points="155,-41.5 296,-41.5 "/>
<text text-anchor="start" x="163" y="-29.5" font-family="Helvetica,sans-Serif" font-size="10.00">+ ExecuteAsync()</text>
<text text-anchor="start" x="163" y="-18.5" font-family="Helvetica,sans-Serif" font-size="10.00">+ SetData()</text>
<text text-anchor="start" x="163" y="-7.5" font-family="Helvetica,sans-Serif" font-size="10.00">+ SetClient()</text>
</a>
</g>
</g>
<!-- Node1&#45;&gt;Node3 -->
<g id="edge2" class="edge">
<title>Node1&#45;&gt;Node3</title>
<path fill="none" stroke="midnightblue" d="M172.58,-119.19C179.24,-110.03 186.49,-100.07 193.42,-90.55"/>
<polygon fill="none" stroke="midnightblue" points="169.7,-117.2 166.64,-127.34 175.36,-121.32 169.7,-117.2"/>
</g>
</g>
</svg>
