<?xml version="1.0" encoding="UTF-8" standalone="no"?>
<!DOCTYPE svg PUBLIC "-//W3C//DTD SVG 1.1//EN"
 "http://www.w3.org/Graphics/SVG/1.1/DTD/svg11.dtd">
<!-- Generated by graphviz version 2.43.0 (0)
 -->
<!-- Title: game.logic.playfield.PlayFieldViewModel Pages: 1 -->
<svg width="414pt" height="386pt"
 viewBox="0.00 0.00 413.50 386.00" xmlns="http://www.w3.org/2000/svg" xmlns:xlink="http://www.w3.org/1999/xlink">
<g id="graph0" class="graph" transform="scale(1 1) rotate(0) translate(4 382)">
<title>game.logic.playfield.PlayFieldViewModel</title>
<polygon fill="white" stroke="transparent" points="-4,4 -4,-382 409.5,-382 409.5,4 -4,4"/>
<!-- Node1 -->
<g id="node1" class="node">
<title>Node1</title>
<g id="a_node1"><a xlink:title=" ">
<polygon fill="#bfbfbf" stroke="black" points="89.5,-0.5 89.5,-123.5 229.5,-123.5 229.5,-0.5 89.5,-0.5"/>
<text text-anchor="start" x="97.5" y="-111.5" font-family="Helvetica,sans-Serif" font-size="10.00">game.logic.playfield.Play</text>
<text text-anchor="middle" x="159.5" y="-100.5" font-family="Helvetica,sans-Serif" font-size="10.00">FieldViewModel</text>
<polyline fill="none" stroke="black" points="89.5,-93.5 229.5,-93.5 "/>
<text text-anchor="start" x="97.5" y="-81.5" font-family="Helvetica,sans-Serif" font-size="10.00">+ Width</text>
<text text-anchor="start" x="97.5" y="-70.5" font-family="Helvetica,sans-Serif" font-size="10.00">+ Height</text>
<text text-anchor="start" x="97.5" y="-59.5" font-family="Helvetica,sans-Serif" font-size="10.00">+ Tiles</text>
<polyline fill="none" stroke="black" points="89.5,-52.5 229.5,-52.5 "/>
<text text-anchor="start" x="97.5" y="-40.5" font-family="Helvetica,sans-Serif" font-size="10.00">+ PlayFieldViewModel()</text>
<text text-anchor="start" x="97.5" y="-29.5" font-family="Helvetica,sans-Serif" font-size="10.00">+ GetTile()</text>
<text text-anchor="start" x="97.5" y="-18.5" font-family="Helvetica,sans-Serif" font-size="10.00">+ PlaceTile()</text>
<text text-anchor="start" x="97.5" y="-7.5" font-family="Helvetica,sans-Serif" font-size="10.00">+ Update()</text>
</a>
</g>
</g>
<!-- Node2 -->
<g id="node2" class="node">
<title>Node2</title>
<g id="a_node2"><a xlink:href="$interfacegamerunner_1_1IUpdatable.html" xlink:title=" ">
<polygon fill="white" stroke="black" points="0,-182.5 0,-239.5 71,-239.5 71,-182.5 0,-182.5"/>
<text text-anchor="middle" x="35.5" y="-227.5" font-family="Helvetica,sans-Serif" font-size="10.00">IUpdatable</text>
<polyline fill="none" stroke="black" points="0,-220.5 71,-220.5 "/>
<text text-anchor="middle" x="35.5" y="-208.5" font-family="Helvetica,sans-Serif" font-size="10.00"> </text>
<polyline fill="none" stroke="black" points="0,-201.5 71,-201.5 "/>
<text text-anchor="start" x="8" y="-189.5" font-family="Helvetica,sans-Serif" font-size="10.00">+ Update()</text>
</a>
</g>
</g>
<!-- Node2&#45;&gt;Node1 -->
<g id="edge1" class="edge">
<title>Node2&#45;&gt;Node1</title>
<path fill="none" stroke="midnightblue" d="M65.31,-174.66C78.2,-159.38 93.65,-141.06 108.28,-123.72"/>
<polygon fill="none" stroke="midnightblue" points="62.6,-172.45 58.82,-182.35 67.95,-176.96 62.6,-172.45"/>
</g>
<!-- Node3 -->
<g id="node3" class="node">
<title>Node3</title>
<g id="a_node3"><a xlink:href="$classgame_1_1logic_1_1playfield_1_1PlayField.html" xlink:title=" ">
<polygon fill="white" stroke="black" points="89.5,-171.5 89.5,-250.5 229.5,-250.5 229.5,-171.5 89.5,-171.5"/>
<text text-anchor="start" x="97.5" y="-238.5" font-family="Helvetica,sans-Serif" font-size="10.00">game.logic.playfield.Play</text>
<text text-anchor="middle" x="159.5" y="-227.5" font-family="Helvetica,sans-Serif" font-size="10.00">Field</text>
<polyline fill="none" stroke="black" points="89.5,-220.5 229.5,-220.5 "/>
<text text-anchor="start" x="97.5" y="-208.5" font-family="Helvetica,sans-Serif" font-size="10.00">+ Width</text>
<text text-anchor="start" x="97.5" y="-197.5" font-family="Helvetica,sans-Serif" font-size="10.00">+ Height</text>
<polyline fill="none" stroke="black" points="89.5,-190.5 229.5,-190.5 "/>
<text text-anchor="middle" x="159.5" y="-178.5" font-family="Helvetica,sans-Serif" font-size="10.00"> </text>
</a>
</g>
</g>
<!-- Node3&#45;&gt;Node1 -->
<g id="edge2" class="edge">
<title>Node3&#45;&gt;Node1</title>
<path fill="none" stroke="#404040" d="M159.5,-171.38C159.5,-160.4 159.5,-148.08 159.5,-135.78"/>
<polygon fill="none" stroke="#404040" points="159.5,-135.55 155.5,-129.55 159.5,-123.55 163.5,-129.55 159.5,-135.55"/>
<text text-anchor="middle" x="188" y="-145" font-family="Helvetica,sans-Serif" font-size="10.00"> &#45;_playField</text>
</g>
<!-- Node4 -->
<g id="node4" class="node">
<title>Node4</title>
<g id="a_node4"><a xlink:title=" ">
<polygon fill="white" stroke="black" points="51,-315 51,-372 80,-372 80,-315 51,-315"/>
<text text-anchor="middle" x="65.5" y="-360" font-family="Helvetica,sans-Serif" font-size="10.00">int</text>
<polyline fill="none" stroke="black" points="51,-353 80,-353 "/>
<text text-anchor="middle" x="65.5" y="-341" font-family="Helvetica,sans-Serif" font-size="10.00"> </text>
<polyline fill="none" stroke="black" points="51,-334 80,-334 "/>
<text text-anchor="middle" x="65.5" y="-322" font-family="Helvetica,sans-Serif" font-size="10.00"> </text>
</a>
</g>
</g>
<!-- Node4&#45;&gt;Node3 -->
<g id="edge3" class="edge">
<title>Node4&#45;&gt;Node3</title>
<path fill="none" stroke="#404040" d="M73.45,-314.81C78.41,-300.35 85.71,-282.84 95.5,-269 97.78,-265.78 100.27,-262.62 102.9,-259.53"/>
<polygon fill="none" stroke="#404040" points="103.06,-259.37 104.17,-252.24 111.18,-250.54 110.06,-257.66 103.06,-259.37"/>
<text text-anchor="middle" x="127" y="-283" font-family="Helvetica,sans-Serif" font-size="10.00"> &#45;FieldHeight</text>
<text text-anchor="middle" x="127" y="-272" font-family="Helvetica,sans-Serif" font-size="10.00">&#45;FieldWidth</text>
</g>
<!-- Node5 -->
<g id="node5" class="node">
<title>Node5</title>
<g id="a_node5"><a xlink:href="$interfacegame_1_1logic_1_1tile_1_1ITileable.html" xlink:title=" ">
<polygon fill="white" stroke="black" points="98.5,-315 98.5,-372 232.5,-372 232.5,-315 98.5,-315"/>
<text text-anchor="middle" x="165.5" y="-360" font-family="Helvetica,sans-Serif" font-size="10.00">game.logic.tile.ITileable</text>
<polyline fill="none" stroke="black" points="98.5,-353 232.5,-353 "/>
<text text-anchor="start" x="106.5" y="-341" font-family="Helvetica,sans-Serif" font-size="10.00">+ Color</text>
<polyline fill="none" stroke="black" points="98.5,-334 232.5,-334 "/>
<text text-anchor="middle" x="165.5" y="-322" font-family="Helvetica,sans-Serif" font-size="10.00"> </text>
</a>
</g>
</g>
<!-- Node5&#45;&gt;Node3 -->
<g id="edge4" class="edge">
<title>Node5&#45;&gt;Node3</title>
<path fill="none" stroke="#404040" d="M164.23,-314.82C163.53,-299.63 162.64,-280.3 161.82,-262.52"/>
<polygon fill="none" stroke="#404040" points="161.82,-262.51 157.55,-256.7 161.27,-250.53 165.54,-256.34 161.82,-262.51"/>
<text text-anchor="middle" x="181" y="-277.5" font-family="Helvetica,sans-Serif" font-size="10.00"> +Field</text>
</g>
<!-- Node6 -->
<g id="node6" class="node">
<title>Node6</title>
<g id="a_node6"><a xlink:href="$classgame_1_1service_1_1ServiceLocator.html" xlink:title=" ">
<polygon fill="white" stroke="black" points="247.5,-171.5 247.5,-250.5 405.5,-250.5 405.5,-171.5 247.5,-171.5"/>
<text text-anchor="middle" x="326.5" y="-238.5" font-family="Helvetica,sans-Serif" font-size="10.00">game.service.ServiceLocator</text>
<polyline fill="none" stroke="black" points="247.5,-231.5 405.5,-231.5 "/>
<text text-anchor="middle" x="326.5" y="-219.5" font-family="Helvetica,sans-Serif" font-size="10.00"> </text>
<polyline fill="none" stroke="black" points="247.5,-212.5 405.5,-212.5 "/>
<text text-anchor="start" x="255.5" y="-200.5" font-family="Helvetica,sans-Serif" font-size="10.00">+ ServiceLocator()</text>
<text text-anchor="start" x="255.5" y="-189.5" font-family="Helvetica,sans-Serif" font-size="10.00">+ GetService&lt; T &gt;()</text>
<text text-anchor="start" x="255.5" y="-178.5" font-family="Helvetica,sans-Serif" font-size="10.00">+ RegisterService&lt; T &gt;()</text>
</a>
</g>
</g>
<!-- Node6&#45;&gt;Node1 -->
<g id="edge5" class="edge">
<title>Node6&#45;&gt;Node1</title>
<path fill="none" stroke="#404040" d="M282.62,-171.38C268.73,-159.15 252.93,-145.24 237.39,-131.56"/>
<polygon fill="none" stroke="#404040" points="237.29,-131.48 230.14,-130.51 228.28,-123.55 235.43,-124.51 237.29,-131.48"/>
<text text-anchor="middle" x="300.5" y="-145" font-family="Helvetica,sans-Serif" font-size="10.00"> &#45;_serviceLocator</text>
</g>
<!-- Node7 -->
<g id="node7" class="node">
<title>Node7</title>
<g id="a_node7"><a xlink:title=" ">
<polygon fill="white" stroke="black" points="257,-309.5 257,-377.5 396,-377.5 396,-309.5 257,-309.5"/>
<text text-anchor="start" x="265" y="-365.5" font-family="Helvetica,sans-Serif" font-size="10.00">IDictionary&lt; object,</text>
<text text-anchor="middle" x="326.5" y="-354.5" font-family="Helvetica,sans-Serif" font-size="10.00"> game.service.IService &gt;</text>
<polyline fill="none" stroke="black" points="257,-347.5 396,-347.5 "/>
<text text-anchor="middle" x="326.5" y="-335.5" font-family="Helvetica,sans-Serif" font-size="10.00"> </text>
<polyline fill="none" stroke="black" points="257,-328.5 396,-328.5 "/>
<text text-anchor="middle" x="326.5" y="-316.5" font-family="Helvetica,sans-Serif" font-size="10.00"> </text>
</a>
</g>
</g>
<!-- Node7&#45;&gt;Node6 -->
<g id="edge6" class="edge">
<title>Node7&#45;&gt;Node6</title>
<path fill="none" stroke="#404040" d="M326.5,-309.23C326.5,-295.17 326.5,-278.47 326.5,-262.92"/>
<polygon fill="none" stroke="#404040" points="326.5,-262.77 322.5,-256.77 326.5,-250.77 330.5,-256.77 326.5,-262.77"/>
<text text-anchor="middle" x="350.5" y="-277.5" font-family="Helvetica,sans-Serif" font-size="10.00"> &#45;services</text>
</g>
</g>
</svg>
