<?xml version="1.0" encoding="UTF-8" standalone="no"?>
<!DOCTYPE svg PUBLIC "-//W3C//DTD SVG 1.1//EN"
 "http://www.w3.org/Graphics/SVG/1.1/DTD/svg11.dtd">
<!-- Generated by graphviz version 2.43.0 (0)
 -->
<!-- Title: LoginButton Pages: 1 -->
<svg width="362pt" height="375pt"
 viewBox="0.00 0.00 361.50 375.00" xmlns="http://www.w3.org/2000/svg" xmlns:xlink="http://www.w3.org/1999/xlink">
<g id="graph0" class="graph" transform="scale(1 1) rotate(0) translate(4 371)">
<title>LoginButton</title>
<polygon fill="white" stroke="transparent" points="-4,4 -4,-371 357.5,-371 357.5,4 -4,4"/>
<!-- Node1 -->
<g id="node1" class="node">
<title>Node1</title>
<g id="a_node1"><a xlink:title=" ">
<polygon fill="#bfbfbf" stroke="black" points="25,-0.5 25,-90.5 100,-90.5 100,-0.5 25,-0.5"/>
<text text-anchor="middle" x="62.5" y="-78.5" font-family="Helvetica,sans-Serif" font-size="10.00">LoginButton</text>
<polyline fill="none" stroke="black" points="25,-71.5 100,-71.5 "/>
<text text-anchor="middle" x="62.5" y="-59.5" font-family="Helvetica,sans-Serif" font-size="10.00"> </text>
<polyline fill="none" stroke="black" points="25,-52.5 100,-52.5 "/>
<text text-anchor="start" x="33" y="-40.5" font-family="Helvetica,sans-Serif" font-size="10.00">+ Link()</text>
<text text-anchor="start" x="33" y="-29.5" font-family="Helvetica,sans-Serif" font-size="10.00">+ OnClick()</text>
<text text-anchor="start" x="33" y="-18.5" font-family="Helvetica,sans-Serif" font-size="10.00">&#45; Start()</text>
<text text-anchor="start" x="33" y="-7.5" font-family="Helvetica,sans-Serif" font-size="10.00">&#45; Update()</text>
</a>
</g>
</g>
<!-- Node2 -->
<g id="node2" class="node">
<title>Node2</title>
<g id="a_node2"><a xlink:href="$classMonoBehaviour.html" xlink:title=" ">
<polygon fill="white" stroke="black" points="0,-160.5 0,-217.5 93,-217.5 93,-160.5 0,-160.5"/>
<text text-anchor="middle" x="46.5" y="-205.5" font-family="Helvetica,sans-Serif" font-size="10.00">MonoBehaviour</text>
<polyline fill="none" stroke="black" points="0,-198.5 93,-198.5 "/>
<text text-anchor="middle" x="46.5" y="-186.5" font-family="Helvetica,sans-Serif" font-size="10.00"> </text>
<polyline fill="none" stroke="black" points="0,-179.5 93,-179.5 "/>
<text text-anchor="middle" x="46.5" y="-167.5" font-family="Helvetica,sans-Serif" font-size="10.00"> </text>
</a>
</g>
</g>
<!-- Node2&#45;&gt;Node1 -->
<g id="edge1" class="edge">
<title>Node2&#45;&gt;Node1</title>
<path fill="none" stroke="midnightblue" d="M50.76,-150.36C52.83,-132.04 55.33,-109.89 57.5,-90.75"/>
<polygon fill="none" stroke="midnightblue" points="47.27,-150.05 49.62,-160.38 54.22,-150.84 47.27,-150.05"/>
</g>
<!-- Node3 -->
<g id="node3" class="node">
<title>Node3</title>
<g id="a_node3"><a xlink:href="$classgame_1_1logic_1_1EventQueue_1_1EventQueue.html" xlink:title=" ">
<polygon fill="white" stroke="black" points="111.5,-138.5 111.5,-239.5 275.5,-239.5 275.5,-138.5 111.5,-138.5"/>
<text text-anchor="start" x="119.5" y="-227.5" font-family="Helvetica,sans-Serif" font-size="10.00">game.logic.EventQueue.Event</text>
<text text-anchor="middle" x="193.5" y="-216.5" font-family="Helvetica,sans-Serif" font-size="10.00">Queue</text>
<polyline fill="none" stroke="black" points="111.5,-209.5 275.5,-209.5 "/>
<text text-anchor="middle" x="193.5" y="-197.5" font-family="Helvetica,sans-Serif" font-size="10.00"> </text>
<polyline fill="none" stroke="black" points="111.5,-190.5 275.5,-190.5 "/>
<text text-anchor="start" x="119.5" y="-178.5" font-family="Helvetica,sans-Serif" font-size="10.00">+ EventQueue()</text>
<text text-anchor="start" x="119.5" y="-167.5" font-family="Helvetica,sans-Serif" font-size="10.00">+ Enqueue()</text>
<text text-anchor="start" x="119.5" y="-156.5" font-family="Helvetica,sans-Serif" font-size="10.00">+ HasEvent()</text>
<text text-anchor="start" x="119.5" y="-145.5" font-family="Helvetica,sans-Serif" font-size="10.00">+ Dequeue()</text>
</a>
</g>
</g>
<!-- Node3&#45;&gt;Node1 -->
<g id="edge2" class="edge">
<title>Node3&#45;&gt;Node1</title>
<path fill="none" stroke="#404040" d="M147.31,-138.11C134.75,-124.54 121.13,-109.83 108.57,-96.26"/>
<polygon fill="none" stroke="#404040" points="108.22,-95.89 101.21,-94.2 100.07,-87.08 107.08,-88.76 108.22,-95.89"/>
<text text-anchor="middle" x="164.5" y="-112" font-family="Helvetica,sans-Serif" font-size="10.00"> &#45;_eventQueue</text>
</g>
<!-- Node4 -->
<g id="node4" class="node">
<title>Node4</title>
<g id="a_node4"><a xlink:href="$interfacegame_1_1service_1_1IService.html" xlink:title=" ">
<polygon fill="white" stroke="black" points="97.5,-298.5 97.5,-355.5 153.5,-355.5 153.5,-298.5 97.5,-298.5"/>
<text text-anchor="middle" x="125.5" y="-343.5" font-family="Helvetica,sans-Serif" font-size="10.00">IService</text>
<polyline fill="none" stroke="black" points="97.5,-336.5 153.5,-336.5 "/>
<text text-anchor="middle" x="125.5" y="-324.5" font-family="Helvetica,sans-Serif" font-size="10.00"> </text>
<polyline fill="none" stroke="black" points="97.5,-317.5 153.5,-317.5 "/>
<text text-anchor="middle" x="125.5" y="-305.5" font-family="Helvetica,sans-Serif" font-size="10.00"> </text>
</a>
</g>
</g>
<!-- Node4&#45;&gt;Node3 -->
<g id="edge3" class="edge">
<title>Node4&#45;&gt;Node3</title>
<path fill="none" stroke="midnightblue" d="M143.82,-289.37C151.44,-274.12 160.41,-256.18 168.62,-239.76"/>
<polygon fill="none" stroke="midnightblue" points="140.6,-287.97 139.26,-298.48 146.86,-291.1 140.6,-287.97"/>
</g>
<!-- Node5 -->
<g id="node5" class="node">
<title>Node5</title>
<g id="a_node5"><a xlink:title=" ">
<polygon fill="white" stroke="black" points="171.5,-287.5 171.5,-366.5 353.5,-366.5 353.5,-287.5 171.5,-287.5"/>
<text text-anchor="start" x="179.5" y="-354.5" font-family="Helvetica,sans-Serif" font-size="10.00">Dictionary&lt; EventId,</text>
<text text-anchor="start" x="179.5" y="-343.5" font-family="Helvetica,sans-Serif" font-size="10.00"> Queue&lt; game.logic.EventQueue.</text>
<text text-anchor="middle" x="262.5" y="-332.5" font-family="Helvetica,sans-Serif" font-size="10.00">IEvent &gt; &gt;</text>
<polyline fill="none" stroke="black" points="171.5,-325.5 353.5,-325.5 "/>
<text text-anchor="middle" x="262.5" y="-313.5" font-family="Helvetica,sans-Serif" font-size="10.00"> </text>
<polyline fill="none" stroke="black" points="171.5,-306.5 353.5,-306.5 "/>
<text text-anchor="middle" x="262.5" y="-294.5" font-family="Helvetica,sans-Serif" font-size="10.00"> </text>
</a>
</g>
</g>
<!-- Node5&#45;&gt;Node3 -->
<g id="edge4" class="edge">
<title>Node5&#45;&gt;Node3</title>
<path fill="none" stroke="#404040" d="M242.91,-287.39C237.12,-275.97 230.63,-263.18 224.31,-250.73"/>
<polygon fill="none" stroke="#404040" points="224.25,-250.61 217.97,-247.07 218.82,-239.91 225.1,-243.45 224.25,-250.61"/>
<text text-anchor="middle" x="255.5" y="-261" font-family="Helvetica,sans-Serif" font-size="10.00"> &#45;_queues</text>
</g>
</g>
</svg>
