<?xml version="1.0" encoding="UTF-8" standalone="no"?>
<!DOCTYPE svg PUBLIC "-//W3C//DTD SVG 1.1//EN"
 "http://www.w3.org/Graphics/SVG/1.1/DTD/svg11.dtd">
<!-- Generated by graphviz version 2.43.0 (0)
 -->
<!-- Title: GameInitialiser Pages: 1 -->
<svg width="950pt" height="789pt"
 viewBox="0.00 0.00 949.50 789.00" xmlns="http://www.w3.org/2000/svg" xmlns:xlink="http://www.w3.org/1999/xlink">
<g id="graph0" class="graph" transform="scale(1 1) rotate(0) translate(4 785)">
<title>GameInitialiser</title>
<polygon fill="white" stroke="transparent" points="-4,4 -4,-785 945.5,-785 945.5,4 -4,4"/>
<!-- Node1 -->
<g id="node1" class="node">
<title>Node1</title>
<g id="a_node1"><a xlink:title=" ">
<polygon fill="#bfbfbf" stroke="black" points="440.5,-0.5 440.5,-57.5 532.5,-57.5 532.5,-0.5 440.5,-0.5"/>
<text text-anchor="middle" x="486.5" y="-45.5" font-family="Helvetica,sans-Serif" font-size="10.00">GameInitialiser</text>
<polyline fill="none" stroke="black" points="440.5,-38.5 532.5,-38.5 "/>
<text text-anchor="middle" x="486.5" y="-26.5" font-family="Helvetica,sans-Serif" font-size="10.00"> </text>
<polyline fill="none" stroke="black" points="440.5,-19.5 532.5,-19.5 "/>
<text text-anchor="start" x="448.5" y="-7.5" font-family="Helvetica,sans-Serif" font-size="10.00">&#45; Start()</text>
</a>
</g>
</g>
<!-- Node2 -->
<g id="node2" class="node">
<title>Node2</title>
<g id="a_node2"><a xlink:href="$classMonoBehaviour.html" xlink:title=" ">
<polygon fill="white" stroke="black" points="463,-265.5 463,-322.5 556,-322.5 556,-265.5 463,-265.5"/>
<text text-anchor="middle" x="509.5" y="-310.5" font-family="Helvetica,sans-Serif" font-size="10.00">MonoBehaviour</text>
<polyline fill="none" stroke="black" points="463,-303.5 556,-303.5 "/>
<text text-anchor="middle" x="509.5" y="-291.5" font-family="Helvetica,sans-Serif" font-size="10.00"> </text>
<polyline fill="none" stroke="black" points="463,-284.5 556,-284.5 "/>
<text text-anchor="middle" x="509.5" y="-272.5" font-family="Helvetica,sans-Serif" font-size="10.00"> </text>
</a>
</g>
</g>
<!-- Node2&#45;&gt;Node1 -->
<g id="edge1" class="edge">
<title>Node2&#45;&gt;Node1</title>
<path fill="none" stroke="midnightblue" d="M506.2,-255.25C501.52,-201.73 493.06,-105.04 488.92,-57.67"/>
<polygon fill="none" stroke="midnightblue" points="502.72,-255.69 507.08,-265.35 509.7,-255.08 502.72,-255.69"/>
</g>
<!-- Node3 -->
<g id="node3" class="node">
<title>Node3</title>
<g id="a_node3"><a xlink:href="$classgame_1_1logic_1_1playfield_1_1PlayFieldView.html" xlink:title=" ">
<polygon fill="white" stroke="black" points="97.5,-105.5 97.5,-195.5 237.5,-195.5 237.5,-105.5 97.5,-105.5"/>
<text text-anchor="start" x="105.5" y="-183.5" font-family="Helvetica,sans-Serif" font-size="10.00">game.logic.playfield.Play</text>
<text text-anchor="middle" x="167.5" y="-172.5" font-family="Helvetica,sans-Serif" font-size="10.00">FieldView</text>
<polyline fill="none" stroke="black" points="97.5,-165.5 237.5,-165.5 "/>
<text text-anchor="middle" x="167.5" y="-153.5" font-family="Helvetica,sans-Serif" font-size="10.00"> </text>
<polyline fill="none" stroke="black" points="97.5,-146.5 237.5,-146.5 "/>
<text text-anchor="start" x="105.5" y="-134.5" font-family="Helvetica,sans-Serif" font-size="10.00">+ Link()</text>
<text text-anchor="start" x="105.5" y="-123.5" font-family="Helvetica,sans-Serif" font-size="10.00">&#45; Start()</text>
<text text-anchor="start" x="105.5" y="-112.5" font-family="Helvetica,sans-Serif" font-size="10.00">&#45; Update()</text>
</a>
</g>
</g>
<!-- Node2&#45;&gt;Node3 -->
<g id="edge3" class="edge">
<title>Node2&#45;&gt;Node3</title>
<path fill="none" stroke="midnightblue" d="M479.73,-257.84C464.3,-241.92 444.16,-224.38 422.5,-214 376.24,-191.83 358.43,-207.75 308.5,-196 285.14,-190.5 260.03,-183.08 237.57,-175.88"/>
<polygon fill="none" stroke="midnightblue" points="477.52,-260.6 486.92,-265.49 482.62,-255.81 477.52,-260.6"/>
</g>
<!-- Node12 -->
<g id="node12" class="node">
<title>Node12</title>
<g id="a_node12"><a xlink:href="$classgame_1_1logic_1_1tile_1_1TileView.html" xlink:title=" ">
<polygon fill="white" stroke="black" points="317.5,-111 317.5,-190 451.5,-190 451.5,-111 317.5,-111"/>
<text text-anchor="middle" x="384.5" y="-178" font-family="Helvetica,sans-Serif" font-size="10.00">game.logic.tile.TileView</text>
<polyline fill="none" stroke="black" points="317.5,-171 451.5,-171 "/>
<text text-anchor="middle" x="384.5" y="-159" font-family="Helvetica,sans-Serif" font-size="10.00"> </text>
<polyline fill="none" stroke="black" points="317.5,-152 451.5,-152 "/>
<text text-anchor="start" x="325.5" y="-140" font-family="Helvetica,sans-Serif" font-size="10.00">+ Link()</text>
<text text-anchor="start" x="325.5" y="-129" font-family="Helvetica,sans-Serif" font-size="10.00">&#45; Start()</text>
<text text-anchor="start" x="325.5" y="-118" font-family="Helvetica,sans-Serif" font-size="10.00">&#45; Update()</text>
</a>
</g>
</g>
<!-- Node2&#45;&gt;Node12 -->
<g id="edge13" class="edge">
<title>Node2&#45;&gt;Node12</title>
<path fill="none" stroke="midnightblue" d="M482.74,-256.98C472.13,-243.22 459.6,-227.59 447.5,-214 440.43,-206.06 432.6,-197.86 424.92,-190.12"/>
<polygon fill="none" stroke="midnightblue" points="480.22,-259.45 489.07,-265.27 485.78,-255.2 480.22,-259.45"/>
</g>
<!-- Node15 -->
<g id="node15" class="node">
<title>Node15</title>
<g id="a_node15"><a xlink:href="$classLoginButton.html" xlink:title=" ">
<polygon fill="white" stroke="black" points="664,-105.5 664,-195.5 739,-195.5 739,-105.5 664,-105.5"/>
<text text-anchor="middle" x="701.5" y="-183.5" font-family="Helvetica,sans-Serif" font-size="10.00">LoginButton</text>
<polyline fill="none" stroke="black" points="664,-176.5 739,-176.5 "/>
<text text-anchor="middle" x="701.5" y="-164.5" font-family="Helvetica,sans-Serif" font-size="10.00"> </text>
<polyline fill="none" stroke="black" points="664,-157.5 739,-157.5 "/>
<text text-anchor="start" x="672" y="-145.5" font-family="Helvetica,sans-Serif" font-size="10.00">+ Link()</text>
<text text-anchor="start" x="672" y="-134.5" font-family="Helvetica,sans-Serif" font-size="10.00">+ OnClick()</text>
<text text-anchor="start" x="672" y="-123.5" font-family="Helvetica,sans-Serif" font-size="10.00">&#45; Start()</text>
<text text-anchor="start" x="672" y="-112.5" font-family="Helvetica,sans-Serif" font-size="10.00">&#45; Update()</text>
</a>
</g>
</g>
<!-- Node2&#45;&gt;Node15 -->
<g id="edge19" class="edge">
<title>Node2&#45;&gt;Node15</title>
<path fill="none" stroke="midnightblue" d="M545.33,-258.53C551.55,-253.11 558.08,-247.74 564.5,-243 584.86,-227.97 590.93,-225.45 613.5,-214 631.61,-204.81 638.59,-207.25 655.5,-196 658.28,-194.15 661.03,-192.13 663.74,-189.99"/>
<polygon fill="none" stroke="midnightblue" points="542.8,-256.11 537.67,-265.38 547.46,-261.33 542.8,-256.11"/>
</g>
<!-- Node19 -->
<g id="node19" class="node">
<title>Node19</title>
<g id="a_node19"><a xlink:href="$classgamerunner_1_1Dispatcher.html" xlink:title=" ">
<polygon fill="white" stroke="black" points="515,-111 515,-190 646,-190 646,-111 515,-111"/>
<text text-anchor="middle" x="580.5" y="-178" font-family="Helvetica,sans-Serif" font-size="10.00">gamerunner.Dispatcher</text>
<polyline fill="none" stroke="black" points="515,-171 646,-171 "/>
<text text-anchor="middle" x="580.5" y="-159" font-family="Helvetica,sans-Serif" font-size="10.00"> </text>
<polyline fill="none" stroke="black" points="515,-152 646,-152 "/>
<text text-anchor="start" x="523" y="-140" font-family="Helvetica,sans-Serif" font-size="10.00">+ addUpdatable()</text>
<text text-anchor="start" x="523" y="-129" font-family="Helvetica,sans-Serif" font-size="10.00">&#45; Awake()</text>
<text text-anchor="start" x="523" y="-118" font-family="Helvetica,sans-Serif" font-size="10.00">&#45; Update()</text>
</a>
</g>
</g>
<!-- Node2&#45;&gt;Node19 -->
<g id="edge24" class="edge">
<title>Node2&#45;&gt;Node19</title>
<path fill="none" stroke="midnightblue" d="M527.86,-256.41C538.08,-236.04 550.8,-210.69 561.17,-190.02"/>
<polygon fill="none" stroke="midnightblue" points="524.71,-254.87 523.36,-265.38 530.97,-258.01 524.71,-254.87"/>
</g>
<!-- Node3&#45;&gt;Node1 -->
<g id="edge2" class="edge">
<title>Node3&#45;&gt;Node1</title>
<path fill="none" stroke="#404040" d="M237.68,-110.17C261.01,-98.12 287.44,-85.54 312.5,-76 350.25,-61.63 394.23,-50.04 428.54,-42.09"/>
<polygon fill="none" stroke="#404040" points="428.54,-42.09 433.51,-36.86 440.24,-39.43 435.28,-44.66 428.54,-42.09"/>
<text text-anchor="middle" x="356.5" y="-79" font-family="Helvetica,sans-Serif" font-size="10.00"> +PlayFieldPrefab</text>
</g>
<!-- Node4 -->
<g id="node4" class="node">
<title>Node4</title>
<g id="a_node4"><a xlink:title=" ">
<polygon fill="white" stroke="black" points="0,-265.5 0,-322.5 65,-322.5 65,-265.5 0,-265.5"/>
<text text-anchor="middle" x="32.5" y="-310.5" font-family="Helvetica,sans-Serif" font-size="10.00">Transform</text>
<polyline fill="none" stroke="black" points="0,-303.5 65,-303.5 "/>
<text text-anchor="middle" x="32.5" y="-291.5" font-family="Helvetica,sans-Serif" font-size="10.00"> </text>
<polyline fill="none" stroke="black" points="0,-284.5 65,-284.5 "/>
<text text-anchor="middle" x="32.5" y="-272.5" font-family="Helvetica,sans-Serif" font-size="10.00"> </text>
</a>
</g>
</g>
<!-- Node4&#45;&gt;Node3 -->
<g id="edge4" class="edge">
<title>Node4&#45;&gt;Node3</title>
<path fill="none" stroke="#404040" d="M25.96,-265.31C23.72,-249.12 23.82,-228.98 33.5,-214 45.78,-194.99 65.49,-181.66 86.06,-172.36"/>
<polygon fill="none" stroke="#404040" points="86.12,-172.33 90.12,-166.33 97.2,-167.72 93.2,-173.72 86.12,-172.33"/>
<text text-anchor="middle" x="65.5" y="-217" font-family="Helvetica,sans-Serif" font-size="10.00"> +TileAnchor</text>
</g>
<!-- Node5 -->
<g id="node5" class="node">
<title>Node5</title>
<g id="a_node5"><a xlink:href="$classgame_1_1logic_1_1playfield_1_1PlayFieldViewModel.html" xlink:title=" ">
<polygon fill="white" stroke="black" points="209.5,-392.5 209.5,-515.5 349.5,-515.5 349.5,-392.5 209.5,-392.5"/>
<text text-anchor="start" x="217.5" y="-503.5" font-family="Helvetica,sans-Serif" font-size="10.00">game.logic.playfield.Play</text>
<text text-anchor="middle" x="279.5" y="-492.5" font-family="Helvetica,sans-Serif" font-size="10.00">FieldViewModel</text>
<polyline fill="none" stroke="black" points="209.5,-485.5 349.5,-485.5 "/>
<text text-anchor="start" x="217.5" y="-473.5" font-family="Helvetica,sans-Serif" font-size="10.00">+ Width</text>
<text text-anchor="start" x="217.5" y="-462.5" font-family="Helvetica,sans-Serif" font-size="10.00">+ Height</text>
<text text-anchor="start" x="217.5" y="-451.5" font-family="Helvetica,sans-Serif" font-size="10.00">+ Tiles</text>
<polyline fill="none" stroke="black" points="209.5,-444.5 349.5,-444.5 "/>
<text text-anchor="start" x="217.5" y="-432.5" font-family="Helvetica,sans-Serif" font-size="10.00">+ PlayFieldViewModel()</text>
<text text-anchor="start" x="217.5" y="-421.5" font-family="Helvetica,sans-Serif" font-size="10.00">+ GetTile()</text>
<text text-anchor="start" x="217.5" y="-410.5" font-family="Helvetica,sans-Serif" font-size="10.00">+ PlaceTile()</text>
<text text-anchor="start" x="217.5" y="-399.5" font-family="Helvetica,sans-Serif" font-size="10.00">+ Update()</text>
</a>
</g>
</g>
<!-- Node5&#45;&gt;Node3 -->
<g id="edge5" class="edge">
<title>Node5&#45;&gt;Node3</title>
<path fill="none" stroke="#404040" d="M209.25,-424.34C175.95,-406.76 139.4,-380.68 120.5,-345 97.5,-301.58 114.53,-246.72 134.23,-206.52"/>
<polygon fill="none" stroke="#404040" points="134.36,-206.27 133.53,-199.1 139.82,-195.59 140.65,-202.75 134.36,-206.27"/>
<text text-anchor="middle" x="157" y="-291.5" font-family="Helvetica,sans-Serif" font-size="10.00"> &#45;_playFieldVM</text>
</g>
<!-- Node14 -->
<g id="node14" class="node">
<title>Node14</title>
<g id="a_node14"><a xlink:href="$classgame_1_1logic_1_1tile_1_1TileViewModel.html" xlink:title=" ">
<polygon fill="white" stroke="black" points="310.5,-249 310.5,-339 444.5,-339 444.5,-249 310.5,-249"/>
<text text-anchor="start" x="318.5" y="-327" font-family="Helvetica,sans-Serif" font-size="10.00">game.logic.tile.TileView</text>
<text text-anchor="middle" x="377.5" y="-316" font-family="Helvetica,sans-Serif" font-size="10.00">Model</text>
<polyline fill="none" stroke="black" points="310.5,-309 444.5,-309 "/>
<text text-anchor="start" x="318.5" y="-297" font-family="Helvetica,sans-Serif" font-size="10.00">+ X</text>
<text text-anchor="start" x="318.5" y="-286" font-family="Helvetica,sans-Serif" font-size="10.00">+ Y</text>
<text text-anchor="start" x="318.5" y="-275" font-family="Helvetica,sans-Serif" font-size="10.00">+ Color</text>
<polyline fill="none" stroke="black" points="310.5,-268 444.5,-268 "/>
<text text-anchor="start" x="318.5" y="-256" font-family="Helvetica,sans-Serif" font-size="10.00">+ TileViewModel()</text>
</a>
</g>
</g>
<!-- Node5&#45;&gt;Node14 -->
<g id="edge16" class="edge">
<title>Node5&#45;&gt;Node14</title>
<path fill="none" stroke="#404040" d="M280.32,-392.33C282.28,-382.09 285.46,-371.91 290.5,-363 293.74,-357.26 297.68,-351.84 302.08,-346.75"/>
<polygon fill="none" stroke="#404040" points="302.16,-346.66 303.39,-339.56 310.42,-337.96 309.19,-345.06 302.16,-346.66"/>
<text text-anchor="middle" x="327" y="-366" font-family="Helvetica,sans-Serif" font-size="10.00"> &#45;_playFieldVM</text>
</g>
<!-- Node6 -->
<g id="node6" class="node">
<title>Node6</title>
<g id="a_node6"><a xlink:href="$interfacegamerunner_1_1IUpdatable.html" xlink:title=" ">
<polygon fill="white" stroke="black" points="120,-585.5 120,-642.5 191,-642.5 191,-585.5 120,-585.5"/>
<text text-anchor="middle" x="155.5" y="-630.5" font-family="Helvetica,sans-Serif" font-size="10.00">IUpdatable</text>
<polyline fill="none" stroke="black" points="120,-623.5 191,-623.5 "/>
<text text-anchor="middle" x="155.5" y="-611.5" font-family="Helvetica,sans-Serif" font-size="10.00"> </text>
<polyline fill="none" stroke="black" points="120,-604.5 191,-604.5 "/>
<text text-anchor="start" x="128" y="-592.5" font-family="Helvetica,sans-Serif" font-size="10.00">+ Update()</text>
</a>
</g>
</g>
<!-- Node6&#45;&gt;Node5 -->
<g id="edge6" class="edge">
<title>Node6&#45;&gt;Node5</title>
<path fill="none" stroke="midnightblue" d="M183.41,-577.44C197.72,-559.2 215.55,-536.49 231.95,-515.59"/>
<polygon fill="none" stroke="midnightblue" points="180.52,-575.45 177.1,-585.48 186.03,-579.77 180.52,-575.45"/>
</g>
<!-- Node7 -->
<g id="node7" class="node">
<title>Node7</title>
<g id="a_node7"><a xlink:href="$classgame_1_1logic_1_1playfield_1_1PlayField.html" xlink:title=" ">
<polygon fill="white" stroke="black" points="209.5,-574.5 209.5,-653.5 349.5,-653.5 349.5,-574.5 209.5,-574.5"/>
<text text-anchor="start" x="217.5" y="-641.5" font-family="Helvetica,sans-Serif" font-size="10.00">game.logic.playfield.Play</text>
<text text-anchor="middle" x="279.5" y="-630.5" font-family="Helvetica,sans-Serif" font-size="10.00">Field</text>
<polyline fill="none" stroke="black" points="209.5,-623.5 349.5,-623.5 "/>
<text text-anchor="start" x="217.5" y="-611.5" font-family="Helvetica,sans-Serif" font-size="10.00">+ Width</text>
<text text-anchor="start" x="217.5" y="-600.5" font-family="Helvetica,sans-Serif" font-size="10.00">+ Height</text>
<polyline fill="none" stroke="black" points="209.5,-593.5 349.5,-593.5 "/>
<text text-anchor="middle" x="279.5" y="-581.5" font-family="Helvetica,sans-Serif" font-size="10.00"> </text>
</a>
</g>
</g>
<!-- Node7&#45;&gt;Node5 -->
<g id="edge7" class="edge">
<title>Node7&#45;&gt;Node5</title>
<path fill="none" stroke="#404040" d="M279.5,-574.35C279.5,-560.3 279.5,-543.92 279.5,-527.88"/>
<polygon fill="none" stroke="#404040" points="279.5,-527.72 275.5,-521.72 279.5,-515.72 283.5,-521.72 279.5,-527.72"/>
<text text-anchor="middle" x="308" y="-542.5" font-family="Helvetica,sans-Serif" font-size="10.00"> &#45;_playField</text>
</g>
<!-- Node8 -->
<g id="node8" class="node">
<title>Node8</title>
<g id="a_node8"><a xlink:title=" ">
<polygon fill="white" stroke="black" points="345,-718 345,-775 374,-775 374,-718 345,-718"/>
<text text-anchor="middle" x="359.5" y="-763" font-family="Helvetica,sans-Serif" font-size="10.00">int</text>
<polyline fill="none" stroke="black" points="345,-756 374,-756 "/>
<text text-anchor="middle" x="359.5" y="-744" font-family="Helvetica,sans-Serif" font-size="10.00"> </text>
<polyline fill="none" stroke="black" points="345,-737 374,-737 "/>
<text text-anchor="middle" x="359.5" y="-725" font-family="Helvetica,sans-Serif" font-size="10.00"> </text>
</a>
</g>
</g>
<!-- Node8&#45;&gt;Node7 -->
<g id="edge8" class="edge">
<title>Node8&#45;&gt;Node7</title>
<path fill="none" stroke="#404040" d="M344.96,-734.43C329.5,-722.39 306.46,-703.58 300.5,-694 295.17,-685.43 291.18,-675.53 288.2,-665.7"/>
<polygon fill="none" stroke="#404040" points="288.13,-665.43 282.72,-660.66 285.04,-653.83 290.45,-658.6 288.13,-665.43"/>
<text text-anchor="middle" x="332" y="-686" font-family="Helvetica,sans-Serif" font-size="10.00"> &#45;FieldHeight</text>
<text text-anchor="middle" x="332" y="-675" font-family="Helvetica,sans-Serif" font-size="10.00">&#45;FieldWidth</text>
</g>
<!-- Node8&#45;&gt;Node14 -->
<g id="edge17" class="edge">
<title>Node8&#45;&gt;Node14</title>
<path fill="none" stroke="#404040" d="M361.85,-717.99C362.46,-710.23 363.06,-701.79 363.5,-694 370.38,-571.91 374.43,-428.59 376.28,-351.29"/>
<polygon fill="none" stroke="#404040" points="376.28,-351.01 372.43,-344.92 376.57,-339.01 380.42,-345.11 376.28,-351.01"/>
<text text-anchor="middle" x="381" y="-548" font-family="Helvetica,sans-Serif" font-size="10.00"> &#45;_x</text>
<text text-anchor="middle" x="381" y="-537" font-family="Helvetica,sans-Serif" font-size="10.00">&#45;_y</text>
</g>
<!-- Node9 -->
<g id="node9" class="node">
<title>Node9</title>
<g id="a_node9"><a xlink:href="$interfacegame_1_1logic_1_1tile_1_1ITileable.html" xlink:title=" ">
<polygon fill="white" stroke="black" points="174.5,-718 174.5,-775 308.5,-775 308.5,-718 174.5,-718"/>
<text text-anchor="middle" x="241.5" y="-763" font-family="Helvetica,sans-Serif" font-size="10.00">game.logic.tile.ITileable</text>
<polyline fill="none" stroke="black" points="174.5,-756 308.5,-756 "/>
<text text-anchor="start" x="182.5" y="-744" font-family="Helvetica,sans-Serif" font-size="10.00">+ Color</text>
<polyline fill="none" stroke="black" points="174.5,-737 308.5,-737 "/>
<text text-anchor="middle" x="241.5" y="-725" font-family="Helvetica,sans-Serif" font-size="10.00"> </text>
</a>
</g>
</g>
<!-- Node9&#45;&gt;Node7 -->
<g id="edge9" class="edge">
<title>Node9&#45;&gt;Node7</title>
<path fill="none" stroke="#404040" d="M238.28,-717.72C237.55,-703.72 238.05,-686.65 242.5,-672 243.24,-669.57 244.11,-667.15 245.09,-664.76"/>
<polygon fill="none" stroke="#404040" points="245.18,-664.57 244.17,-657.43 250.38,-653.75 251.38,-660.89 245.18,-664.57"/>
<text text-anchor="middle" x="260" y="-680.5" font-family="Helvetica,sans-Serif" font-size="10.00"> +Field</text>
</g>
<!-- Node10 -->
<g id="node10" class="node">
<title>Node10</title>
<g id="a_node10"><a xlink:href="$classgame_1_1service_1_1ServiceLocator.html" xlink:title=" ">
<polygon fill="white" stroke="black" points="405.5,-574.5 405.5,-653.5 563.5,-653.5 563.5,-574.5 405.5,-574.5"/>
<text text-anchor="middle" x="484.5" y="-641.5" font-family="Helvetica,sans-Serif" font-size="10.00">game.service.ServiceLocator</text>
<polyline fill="none" stroke="black" points="405.5,-634.5 563.5,-634.5 "/>
<text text-anchor="middle" x="484.5" y="-622.5" font-family="Helvetica,sans-Serif" font-size="10.00"> </text>
<polyline fill="none" stroke="black" points="405.5,-615.5 563.5,-615.5 "/>
<text text-anchor="start" x="413.5" y="-603.5" font-family="Helvetica,sans-Serif" font-size="10.00">+ ServiceLocator()</text>
<text text-anchor="start" x="413.5" y="-592.5" font-family="Helvetica,sans-Serif" font-size="10.00">+ GetService&lt; T &gt;()</text>
<text text-anchor="start" x="413.5" y="-581.5" font-family="Helvetica,sans-Serif" font-size="10.00">+ RegisterService&lt; T &gt;()</text>
</a>
</g>
</g>
<!-- Node10&#45;&gt;Node5 -->
<g id="edge10" class="edge">
<title>Node10&#45;&gt;Node5</title>
<path fill="none" stroke="#404040" d="M446.05,-574.13C432.17,-560.85 416.08,-546.25 400.5,-534 387.73,-523.95 373.67,-513.93 359.8,-504.57"/>
<polygon fill="none" stroke="#404040" points="359.74,-504.53 352.53,-504.53 349.75,-497.87 356.96,-497.87 359.74,-504.53"/>
<text text-anchor="middle" x="467.5" y="-542.5" font-family="Helvetica,sans-Serif" font-size="10.00"> &#45;_serviceLocator</text>
</g>
<!-- Node11 -->
<g id="node11" class="node">
<title>Node11</title>
<g id="a_node11"><a xlink:title=" ">
<polygon fill="white" stroke="black" points="415,-712.5 415,-780.5 554,-780.5 554,-712.5 415,-712.5"/>
<text text-anchor="start" x="423" y="-768.5" font-family="Helvetica,sans-Serif" font-size="10.00">IDictionary&lt; object,</text>
<text text-anchor="middle" x="484.5" y="-757.5" font-family="Helvetica,sans-Serif" font-size="10.00"> game.service.IService &gt;</text>
<polyline fill="none" stroke="black" points="415,-750.5 554,-750.5 "/>
<text text-anchor="middle" x="484.5" y="-738.5" font-family="Helvetica,sans-Serif" font-size="10.00"> </text>
<polyline fill="none" stroke="black" points="415,-731.5 554,-731.5 "/>
<text text-anchor="middle" x="484.5" y="-719.5" font-family="Helvetica,sans-Serif" font-size="10.00"> </text>
</a>
</g>
</g>
<!-- Node11&#45;&gt;Node10 -->
<g id="edge11" class="edge">
<title>Node11&#45;&gt;Node10</title>
<path fill="none" stroke="#404040" d="M484.5,-712.23C484.5,-698.17 484.5,-681.47 484.5,-665.92"/>
<polygon fill="none" stroke="#404040" points="484.5,-665.77 480.5,-659.77 484.5,-653.77 488.5,-659.77 484.5,-665.77"/>
<text text-anchor="middle" x="508.5" y="-680.5" font-family="Helvetica,sans-Serif" font-size="10.00"> &#45;services</text>
</g>
<!-- Node12&#45;&gt;Node1 -->
<g id="edge12" class="edge">
<title>Node12&#45;&gt;Node1</title>
<path fill="none" stroke="#404040" d="M393.39,-110.71C397.49,-98.69 403.32,-85.99 411.5,-76 416.77,-69.57 423.19,-63.79 430.03,-58.69"/>
<polygon fill="none" stroke="#404040" points="430.36,-58.46 433.06,-51.77 440.27,-51.68 437.57,-58.37 430.36,-58.46"/>
<text text-anchor="middle" x="442" y="-79" font-family="Helvetica,sans-Serif" font-size="10.00"> +TilePrefab</text>
</g>
<!-- Node13 -->
<g id="node13" class="node">
<title>Node13</title>
<g id="a_node13"><a xlink:title=" ">
<polygon fill="white" stroke="black" points="203,-265.5 203,-322.5 292,-322.5 292,-265.5 203,-265.5"/>
<text text-anchor="middle" x="247.5" y="-310.5" font-family="Helvetica,sans-Serif" font-size="10.00">SpriteRenderer</text>
<polyline fill="none" stroke="black" points="203,-303.5 292,-303.5 "/>
<text text-anchor="middle" x="247.5" y="-291.5" font-family="Helvetica,sans-Serif" font-size="10.00"> </text>
<polyline fill="none" stroke="black" points="203,-284.5 292,-284.5 "/>
<text text-anchor="middle" x="247.5" y="-272.5" font-family="Helvetica,sans-Serif" font-size="10.00"> </text>
</a>
</g>
</g>
<!-- Node13&#45;&gt;Node12 -->
<g id="edge14" class="edge">
<title>Node13&#45;&gt;Node12</title>
<path fill="none" stroke="#404040" d="M272.05,-265.17C285.77,-249.84 303.32,-230.62 319.5,-214 324.4,-208.97 329.57,-203.78 334.78,-198.65"/>
<polygon fill="none" stroke="#404040" points="334.95,-198.49 336.44,-191.44 343.53,-190.1 342.03,-197.16 334.95,-198.49"/>
<text text-anchor="middle" x="348.5" y="-217" font-family="Helvetica,sans-Serif" font-size="10.00"> +TileSprite</text>
</g>
<!-- Node14&#45;&gt;Node12 -->
<g id="edge15" class="edge">
<title>Node14&#45;&gt;Node12</title>
<path fill="none" stroke="#404040" d="M379.7,-248.62C380.42,-234.05 381.22,-217.75 381.97,-202.72"/>
<polygon fill="none" stroke="#404040" points="381.98,-202.45 378.28,-196.26 382.57,-190.47 386.27,-196.66 381.98,-202.45"/>
<text text-anchor="middle" x="403.5" y="-217" font-family="Helvetica,sans-Serif" font-size="10.00"> &#45;_tileVM</text>
</g>
<!-- Node15&#45;&gt;Node1 -->
<g id="edge18" class="edge">
<title>Node15&#45;&gt;Node1</title>
<path fill="none" stroke="#404040" d="M663.84,-111.46C661.09,-109.19 658.3,-107.01 655.5,-105 621.58,-80.61 578.46,-61.64 544.27,-48.87"/>
<polygon fill="none" stroke="#404040" points="543.86,-48.72 536.85,-50.43 532.58,-44.62 539.59,-42.91 543.86,-48.72"/>
<text text-anchor="middle" x="662" y="-79" font-family="Helvetica,sans-Serif" font-size="10.00"> +_loginButton</text>
</g>
<!-- Node16 -->
<g id="node16" class="node">
<title>Node16</title>
<g id="a_node16"><a xlink:href="$classgame_1_1logic_1_1EventQueue_1_1EventQueue.html" xlink:title=" ">
<polygon fill="white" stroke="black" points="763.5,-243.5 763.5,-344.5 927.5,-344.5 927.5,-243.5 763.5,-243.5"/>
<text text-anchor="start" x="771.5" y="-332.5" font-family="Helvetica,sans-Serif" font-size="10.00">game.logic.EventQueue.Event</text>
<text text-anchor="middle" x="845.5" y="-321.5" font-family="Helvetica,sans-Serif" font-size="10.00">Queue</text>
<polyline fill="none" stroke="black" points="763.5,-314.5 927.5,-314.5 "/>
<text text-anchor="middle" x="845.5" y="-302.5" font-family="Helvetica,sans-Serif" font-size="10.00"> </text>
<polyline fill="none" stroke="black" points="763.5,-295.5 927.5,-295.5 "/>
<text text-anchor="start" x="771.5" y="-283.5" font-family="Helvetica,sans-Serif" font-size="10.00">+ EventQueue()</text>
<text text-anchor="start" x="771.5" y="-272.5" font-family="Helvetica,sans-Serif" font-size="10.00">+ Enqueue()</text>
<text text-anchor="start" x="771.5" y="-261.5" font-family="Helvetica,sans-Serif" font-size="10.00">+ HasEvent()</text>
<text text-anchor="start" x="771.5" y="-250.5" font-family="Helvetica,sans-Serif" font-size="10.00">+ Dequeue()</text>
</a>
</g>
</g>
<!-- Node16&#45;&gt;Node15 -->
<g id="edge20" class="edge">
<title>Node16&#45;&gt;Node15</title>
<path fill="none" stroke="#404040" d="M794.73,-243.11C779.43,-228.08 762.73,-211.67 747.74,-196.94"/>
<polygon fill="none" stroke="#404040" points="747.7,-196.9 740.62,-195.55 739.14,-188.49 746.23,-189.84 747.7,-196.9"/>
<text text-anchor="middle" x="809.5" y="-217" font-family="Helvetica,sans-Serif" font-size="10.00"> &#45;_eventQueue</text>
</g>
<!-- Node17 -->
<g id="node17" class="node">
<title>Node17</title>
<g id="a_node17"><a xlink:href="$interfacegame_1_1service_1_1IService.html" xlink:title=" ">
<polygon fill="white" stroke="black" points="885.5,-425.5 885.5,-482.5 941.5,-482.5 941.5,-425.5 885.5,-425.5"/>
<text text-anchor="middle" x="913.5" y="-470.5" font-family="Helvetica,sans-Serif" font-size="10.00">IService</text>
<polyline fill="none" stroke="black" points="885.5,-463.5 941.5,-463.5 "/>
<text text-anchor="middle" x="913.5" y="-451.5" font-family="Helvetica,sans-Serif" font-size="10.00"> </text>
<polyline fill="none" stroke="black" points="885.5,-444.5 941.5,-444.5 "/>
<text text-anchor="middle" x="913.5" y="-432.5" font-family="Helvetica,sans-Serif" font-size="10.00"> </text>
</a>
</g>
</g>
<!-- Node17&#45;&gt;Node16 -->
<g id="edge21" class="edge">
<title>Node17&#45;&gt;Node16</title>
<path fill="none" stroke="midnightblue" d="M897.63,-416.12C888.45,-394.8 876.79,-367.69 866.82,-344.53"/>
<polygon fill="none" stroke="midnightblue" points="894.49,-417.68 901.66,-425.48 900.92,-414.91 894.49,-417.68"/>
</g>
<!-- Node18 -->
<g id="node18" class="node">
<title>Node18</title>
<g id="a_node18"><a xlink:title=" ">
<polygon fill="white" stroke="black" points="685.5,-414.5 685.5,-493.5 867.5,-493.5 867.5,-414.5 685.5,-414.5"/>
<text text-anchor="start" x="693.5" y="-481.5" font-family="Helvetica,sans-Serif" font-size="10.00">Dictionary&lt; EventId,</text>
<text text-anchor="start" x="693.5" y="-470.5" font-family="Helvetica,sans-Serif" font-size="10.00"> Queue&lt; game.logic.EventQueue.</text>
<text text-anchor="middle" x="776.5" y="-459.5" font-family="Helvetica,sans-Serif" font-size="10.00">IEvent &gt; &gt;</text>
<polyline fill="none" stroke="black" points="685.5,-452.5 867.5,-452.5 "/>
<text text-anchor="middle" x="776.5" y="-440.5" font-family="Helvetica,sans-Serif" font-size="10.00"> </text>
<polyline fill="none" stroke="black" points="685.5,-433.5 867.5,-433.5 "/>
<text text-anchor="middle" x="776.5" y="-421.5" font-family="Helvetica,sans-Serif" font-size="10.00"> </text>
</a>
</g>
</g>
<!-- Node18&#45;&gt;Node16 -->
<g id="edge22" class="edge">
<title>Node18&#45;&gt;Node16</title>
<path fill="none" stroke="#404040" d="M793.38,-414.35C801.09,-396.7 810.4,-375.38 819,-355.67"/>
<polygon fill="none" stroke="#404040" points="819.03,-355.61 817.77,-348.51 823.83,-344.61 825.1,-351.71 819.03,-355.61"/>
<text text-anchor="middle" x="838.5" y="-366" font-family="Helvetica,sans-Serif" font-size="10.00"> &#45;_queues</text>
</g>
<!-- Node19&#45;&gt;Node1 -->
<g id="edge23" class="edge">
<title>Node19&#45;&gt;Node1</title>
<path fill="none" stroke="#404040" d="M549.98,-110.7C539.02,-96.77 526.7,-81.1 515.84,-67.3"/>
<polygon fill="none" stroke="#404040" points="515.66,-67.07 508.81,-64.83 508.24,-57.64 515.09,-59.88 515.66,-67.07"/>
<text text-anchor="middle" x="563.5" y="-79" font-family="Helvetica,sans-Serif" font-size="10.00"> +Dispatcher</text>
</g>
<!-- Node20 -->
<g id="node20" class="node">
<title>Node20</title>
<g id="a_node20"><a xlink:title=" ">
<polygon fill="white" stroke="black" points="574,-265.5 574,-322.5 745,-322.5 745,-265.5 574,-265.5"/>
<text text-anchor="middle" x="659.5" y="-310.5" font-family="Helvetica,sans-Serif" font-size="10.00">List&lt; gamerunner.IUpdatable &gt;</text>
<polyline fill="none" stroke="black" points="574,-303.5 745,-303.5 "/>
<text text-anchor="middle" x="659.5" y="-291.5" font-family="Helvetica,sans-Serif" font-size="10.00"> </text>
<polyline fill="none" stroke="black" points="574,-284.5 745,-284.5 "/>
<text text-anchor="middle" x="659.5" y="-272.5" font-family="Helvetica,sans-Serif" font-size="10.00"> </text>
</a>
</g>
</g>
<!-- Node20&#45;&gt;Node19 -->
<g id="edge25" class="edge">
<title>Node20&#45;&gt;Node19</title>
<path fill="none" stroke="#404040" d="M644.08,-265.38C633.82,-247.01 620.07,-222.37 607.97,-200.7"/>
<polygon fill="none" stroke="#404040" points="607.86,-200.5 601.44,-197.21 602.01,-190.02 608.42,-193.31 607.86,-200.5"/>
<text text-anchor="middle" x="653" y="-217" font-family="Helvetica,sans-Serif" font-size="10.00"> &#45;_updatables</text>
</g>
</g>
</svg>
