<?xml version="1.0" encoding="UTF-8" standalone="no"?>
<!DOCTYPE svg PUBLIC "-//W3C//DTD SVG 1.1//EN"
 "http://www.w3.org/Graphics/SVG/1.1/DTD/svg11.dtd">
<!-- Generated by graphviz version 2.43.0 (0)
 -->
<!-- Title: game.logic.EventQueue.EventQueue.Enqueue Pages: 1 -->
<svg width="326pt" height="66pt"
 viewBox="0.00 0.00 326.00 66.00" xmlns="http://www.w3.org/2000/svg" xmlns:xlink="http://www.w3.org/1999/xlink">
<g id="graph0" class="graph" transform="scale(1 1) rotate(0) translate(4 62)">
<title>game.logic.EventQueue.EventQueue.Enqueue</title>
<polygon fill="white" stroke="transparent" points="-4,4 -4,-62 322,-62 322,4 -4,4"/>
<!-- Node1 -->
<g id="node1" class="node">
<title>Node1</title>
<g id="a_node1"><a xlink:title="Adds an event to the appropriate queue based on its identifier.">
<polygon fill="#bfbfbf" stroke="black" points="154,-14 154,-44 318,-44 318,-14 154,-14"/>
<text text-anchor="start" x="162" y="-32" font-family="Helvetica,sans-Serif" font-size="10.00">game.logic.EventQueue.Event</text>
<text text-anchor="middle" x="236" y="-21" font-family="Helvetica,sans-Serif" font-size="10.00">Queue.Enqueue</text>
</a>
</g>
</g>
<!-- Node2 -->
<g id="node2" class="node">
<title>Node2</title>
<g id="a_node2"><a xlink:href="$classLoginButton.html#a4ee90c2092d433580a6adaa869b4a710" xlink:title="Handles the click event by retrieving the user&#39;s name and enqueuing a user login event.">
<polygon fill="white" stroke="black" points="1,-38.5 1,-57.5 117,-57.5 117,-38.5 1,-38.5"/>
<text text-anchor="middle" x="59" y="-45.5" font-family="Helvetica,sans-Serif" font-size="10.00">LoginButton.OnClick</text>
</a>
</g>
</g>
<!-- Node1&#45;&gt;Node2 -->
<g id="edge1" class="edge">
<title>Node1&#45;&gt;Node2</title>
<path fill="none" stroke="midnightblue" d="M143.69,-38.91C134.65,-39.9 125.66,-40.87 117.11,-41.8"/>
<polygon fill="midnightblue" stroke="midnightblue" points="144.34,-42.36 153.9,-37.8 143.58,-35.4 144.34,-42.36"/>
</g>
<!-- Node3 -->
<g id="node3" class="node">
<title>Node3</title>
<g id="a_node3"><a xlink:href="$classGameRunner.html#a60b42ae79f0fc030d0ef8a31d10ae960" xlink:title="Updates the state of the object by processing gravity and spawning tiles when a threshold is reached.">
<polygon fill="white" stroke="black" points="0,-0.5 0,-19.5 118,-19.5 118,-0.5 0,-0.5"/>
<text text-anchor="middle" x="59" y="-7.5" font-family="Helvetica,sans-Serif" font-size="10.00">GameRunner.Update</text>
</a>
</g>
</g>
<!-- Node1&#45;&gt;Node3 -->
<g id="edge2" class="edge">
<title>Node1&#45;&gt;Node3</title>
<path fill="none" stroke="midnightblue" d="M143.7,-19.09C135.01,-18.14 126.37,-17.21 118.13,-16.31"/>
<polygon fill="midnightblue" stroke="midnightblue" points="143.58,-22.6 153.9,-20.2 144.34,-15.64 143.58,-22.6"/>
</g>
</g>
</svg>
