<?xml version="1.0" encoding="UTF-8" standalone="no"?>
<!DOCTYPE svg PUBLIC "-//W3C//DTD SVG 1.1//EN"
 "http://www.w3.org/Graphics/SVG/1.1/DTD/svg11.dtd">
<!-- Generated by graphviz version 2.43.0 (0)
 -->
<!-- Title: game.logic.EventQueue.SpawnTileEvent Pages: 1 -->
<svg width="176pt" height="204pt"
 viewBox="0.00 0.00 176.00 204.00" xmlns="http://www.w3.org/2000/svg" xmlns:xlink="http://www.w3.org/1999/xlink">
<g id="graph0" class="graph" transform="scale(1 1) rotate(0) translate(4 200)">
<title>game.logic.EventQueue.SpawnTileEvent</title>
<polygon fill="white" stroke="transparent" points="-4,4 -4,-200 172,-200 172,4 -4,4"/>
<!-- Node1 -->
<g id="node1" class="node">
<title>Node1</title>
<g id="a_node1"><a xlink:title=" ">
<polygon fill="#bfbfbf" stroke="black" points="0,-0.5 0,-90.5 168,-90.5 168,-0.5 0,-0.5"/>
<text text-anchor="start" x="8" y="-78.5" font-family="Helvetica,sans-Serif" font-size="10.00">game.logic.EventQueue.Spawn</text>
<text text-anchor="middle" x="84" y="-67.5" font-family="Helvetica,sans-Serif" font-size="10.00">TileEvent</text>
<polyline fill="none" stroke="black" points="0,-60.5 168,-60.5 "/>
<text text-anchor="start" x="8" y="-48.5" font-family="Helvetica,sans-Serif" font-size="10.00">+ CreateTileShapeDelegate</text>
<text text-anchor="start" x="8" y="-37.5" font-family="Helvetica,sans-Serif" font-size="10.00">+ Id</text>
<text text-anchor="start" x="8" y="-26.5" font-family="Helvetica,sans-Serif" font-size="10.00">+ Source</text>
<polyline fill="none" stroke="black" points="0,-19.5 168,-19.5 "/>
<text text-anchor="start" x="8" y="-7.5" font-family="Helvetica,sans-Serif" font-size="10.00">+ SpawnTileEvent()</text>
</a>
</g>
</g>
<!-- Node2 -->
<g id="node2" class="node">
<title>Node2</title>
<g id="a_node2"><a xlink:href="$interfacegame_1_1logic_1_1EventQueue_1_1IEvent.html" xlink:title=" ">
<polygon fill="white" stroke="black" points="53.5,-127.5 53.5,-195.5 114.5,-195.5 114.5,-127.5 53.5,-127.5"/>
<text text-anchor="middle" x="84" y="-183.5" font-family="Helvetica,sans-Serif" font-size="10.00">IEvent</text>
<polyline fill="none" stroke="black" points="53.5,-176.5 114.5,-176.5 "/>
<text text-anchor="start" x="61.5" y="-164.5" font-family="Helvetica,sans-Serif" font-size="10.00">+ Id</text>
<text text-anchor="start" x="61.5" y="-153.5" font-family="Helvetica,sans-Serif" font-size="10.00">+ Source</text>
<polyline fill="none" stroke="black" points="53.5,-146.5 114.5,-146.5 "/>
<text text-anchor="middle" x="84" y="-134.5" font-family="Helvetica,sans-Serif" font-size="10.00"> </text>
</a>
</g>
</g>
<!-- Node2&#45;&gt;Node1 -->
<g id="edge1" class="edge">
<title>Node2&#45;&gt;Node1</title>
<path fill="none" stroke="midnightblue" d="M84,-116.97C84,-108.35 84,-99.28 84,-90.64"/>
<polygon fill="none" stroke="midnightblue" points="80.5,-117.22 84,-127.22 87.5,-117.22 80.5,-117.22"/>
</g>
</g>
</svg>
