<?xml version="1.0" encoding="UTF-8" standalone="no"?>
<!DOCTYPE svg PUBLIC "-//W3C//DTD SVG 1.1//EN"
 "http://www.w3.org/Graphics/SVG/1.1/DTD/svg11.dtd">
<!-- Generated by graphviz version 2.43.0 (0)
 -->
<!-- Title: game.logic.TimeBasedGravityStrategy Pages: 1 -->
<svg width="198pt" height="237pt"
 viewBox="0.00 0.00 197.50 237.00" xmlns="http://www.w3.org/2000/svg" xmlns:xlink="http://www.w3.org/1999/xlink">
<g id="graph0" class="graph" transform="scale(1 1) rotate(0) translate(4 233)">
<title>game.logic.TimeBasedGravityStrategy</title>
<polygon fill="white" stroke="transparent" points="-4,4 -4,-233 193.5,-233 193.5,4 -4,4"/>
<!-- Node1 -->
<g id="node1" class="node">
<title>Node1</title>
<g id="a_node1"><a xlink:title=" ">
<polygon fill="#bfbfbf" stroke="black" points="5.5,-0.5 5.5,-123.5 169.5,-123.5 169.5,-0.5 5.5,-0.5"/>
<text text-anchor="start" x="13.5" y="-111.5" font-family="Helvetica,sans-Serif" font-size="10.00">game.logic.TimeBasedGravity</text>
<text text-anchor="middle" x="87.5" y="-100.5" font-family="Helvetica,sans-Serif" font-size="10.00">Strategy</text>
<polyline fill="none" stroke="black" points="5.5,-93.5 169.5,-93.5 "/>
<text text-anchor="start" x="13.5" y="-81.5" font-family="Helvetica,sans-Serif" font-size="10.00">+ CurrentGravity</text>
<text text-anchor="start" x="13.5" y="-70.5" font-family="Helvetica,sans-Serif" font-size="10.00">+ Gravity</text>
<text text-anchor="start" x="13.5" y="-59.5" font-family="Helvetica,sans-Serif" font-size="10.00">&#45; _gravityBase</text>
<text text-anchor="start" x="13.5" y="-48.5" font-family="Helvetica,sans-Serif" font-size="10.00">&#45; _gravityScale</text>
<text text-anchor="start" x="13.5" y="-37.5" font-family="Helvetica,sans-Serif" font-size="10.00">&#45; _gravityIncreasePerSecond</text>
<polyline fill="none" stroke="black" points="5.5,-30.5 169.5,-30.5 "/>
<text text-anchor="start" x="13.5" y="-18.5" font-family="Helvetica,sans-Serif" font-size="10.00">+ Update()</text>
<text text-anchor="start" x="13.5" y="-7.5" font-family="Helvetica,sans-Serif" font-size="10.00">+ setGravityScale()</text>
</a>
</g>
</g>
<!-- Node2 -->
<g id="node2" class="node">
<title>Node2</title>
<g id="a_node2"><a xlink:href="$interfacegamerunner_1_1IUpdatable.html" xlink:title=" ">
<polygon fill="white" stroke="black" points="0,-166 0,-223 71,-223 71,-166 0,-166"/>
<text text-anchor="middle" x="35.5" y="-211" font-family="Helvetica,sans-Serif" font-size="10.00">IUpdatable</text>
<polyline fill="none" stroke="black" points="0,-204 71,-204 "/>
<text text-anchor="middle" x="35.5" y="-192" font-family="Helvetica,sans-Serif" font-size="10.00"> </text>
<polyline fill="none" stroke="black" points="0,-185 71,-185 "/>
<text text-anchor="start" x="8" y="-173" font-family="Helvetica,sans-Serif" font-size="10.00">+ Update()</text>
</a>
</g>
</g>
<!-- Node2&#45;&gt;Node1 -->
<g id="edge1" class="edge">
<title>Node2&#45;&gt;Node1</title>
<path fill="none" stroke="midnightblue" d="M50.28,-156.42C54.35,-146.2 58.87,-134.84 63.33,-123.66"/>
<polygon fill="none" stroke="midnightblue" points="46.98,-155.24 46.53,-165.82 53.48,-157.83 46.98,-155.24"/>
</g>
<!-- Node3 -->
<g id="node3" class="node">
<title>Node3</title>
<g id="a_node3"><a xlink:href="$interfacegame_1_1logic_1_1IGravityStrategy.html" xlink:title=" ">
<polygon fill="white" stroke="black" points="89.5,-160.5 89.5,-228.5 189.5,-228.5 189.5,-160.5 89.5,-160.5"/>
<text text-anchor="middle" x="139.5" y="-216.5" font-family="Helvetica,sans-Serif" font-size="10.00">IGravityStrategy</text>
<polyline fill="none" stroke="black" points="89.5,-209.5 189.5,-209.5 "/>
<text text-anchor="start" x="97.5" y="-197.5" font-family="Helvetica,sans-Serif" font-size="10.00">+ CurrentGravity</text>
<text text-anchor="start" x="97.5" y="-186.5" font-family="Helvetica,sans-Serif" font-size="10.00">+ Gravity</text>
<polyline fill="none" stroke="black" points="89.5,-179.5 189.5,-179.5 "/>
<text text-anchor="middle" x="139.5" y="-167.5" font-family="Helvetica,sans-Serif" font-size="10.00"> </text>
</a>
</g>
</g>
<!-- Node3&#45;&gt;Node1 -->
<g id="edge2" class="edge">
<title>Node3&#45;&gt;Node1</title>
<path fill="none" stroke="midnightblue" d="M122.46,-150.73C119,-142.05 115.3,-132.77 111.65,-123.61"/>
<polygon fill="none" stroke="midnightblue" points="119.29,-152.24 126.24,-160.23 125.79,-149.65 119.29,-152.24"/>
</g>
</g>
</svg>
