<?xml version="1.0" encoding="UTF-8" standalone="no"?>
<!DOCTYPE svg PUBLIC "-//W3C//DTD SVG 1.1//EN"
 "http://www.w3.org/Graphics/SVG/1.1/DTD/svg11.dtd">
<!-- Generated by graphviz version 2.43.0 (0)
 -->
<!-- Title: GameInitialiser.Start Pages: 1 -->
<svg width="312pt" height="78pt"
 viewBox="0.00 0.00 312.00 77.50" xmlns="http://www.w3.org/2000/svg" xmlns:xlink="http://www.w3.org/1999/xlink">
<g id="graph0" class="graph" transform="scale(1 1) rotate(0) translate(4 73.5)">
<title>GameInitialiser.Start</title>
<polygon fill="white" stroke="transparent" points="-4,4 -4,-73.5 308,-73.5 308,4 -4,4"/>
<!-- Node1 -->
<g id="node1" class="node">
<title>Node1</title>
<g id="a_node1"><a xlink:title="Initializes the game environment by setting up HTTP requests, the play field, and various services.">
<polygon fill="#bfbfbf" stroke="black" points="0,-22.5 0,-41.5 117,-41.5 117,-22.5 0,-22.5"/>
<text text-anchor="middle" x="58.5" y="-29.5" font-family="Helvetica,sans-Serif" font-size="10.00">GameInitialiser.Start</text>
</a>
</g>
</g>
<!-- Node2 -->
<g id="node2" class="node">
<title>Node2</title>
<g id="a_node2"><a xlink:href="$classgamerunner_1_1Dispatcher.html#a9d1e1cfe69e5576b60156957e38c9177" xlink:title="Adds an updatable object to the collection of updatables.">
<polygon fill="white" stroke="black" points="153,-39 153,-69 304,-69 304,-39 153,-39"/>
<text text-anchor="start" x="161" y="-57" font-family="Helvetica,sans-Serif" font-size="10.00">gamerunner.Dispatcher.add</text>
<text text-anchor="middle" x="228.5" y="-46" font-family="Helvetica,sans-Serif" font-size="10.00">Updatable</text>
</a>
</g>
</g>
<!-- Node1&#45;&gt;Node2 -->
<g id="edge1" class="edge">
<title>Node1&#45;&gt;Node2</title>
<path fill="none" stroke="midnightblue" d="M117.32,-39.57C125.57,-40.65 134.2,-41.78 142.84,-42.91"/>
<polygon fill="midnightblue" stroke="midnightblue" points="142.59,-46.41 152.96,-44.24 143.5,-39.47 142.59,-46.41"/>
</g>
<!-- Node3 -->
<g id="node3" class="node">
<title>Node3</title>
<g id="a_node3"><a xlink:href="$classLoginButton.html#a1c96929dc9468a79eed79e00017b22e8" xlink:title="Links the specified event queue to the current instance.">
<polygon fill="white" stroke="black" points="179.5,-0.5 179.5,-19.5 277.5,-19.5 277.5,-0.5 179.5,-0.5"/>
<text text-anchor="middle" x="228.5" y="-7.5" font-family="Helvetica,sans-Serif" font-size="10.00">LoginButton.Link</text>
</a>
</g>
</g>
<!-- Node1&#45;&gt;Node3 -->
<g id="edge2" class="edge">
<title>Node1&#45;&gt;Node3</title>
<path fill="none" stroke="midnightblue" d="M117.32,-24.43C134.06,-22.24 152.34,-19.84 169.12,-17.65"/>
<polygon fill="midnightblue" stroke="midnightblue" points="169.88,-21.08 179.34,-16.31 168.97,-14.13 169.88,-21.08"/>
</g>
</g>
</svg>
