<?xml version="1.0" encoding="UTF-8" standalone="no"?>
<!DOCTYPE svg PUBLIC "-//W3C//DTD SVG 1.1//EN"
 "http://www.w3.org/Graphics/SVG/1.1/DTD/svg11.dtd">
<!-- Generated by graphviz version 2.43.0 (0)
 -->
<!-- Title: game.logic.EventQueue.EventQueue Pages: 1 -->
<svg width="264pt" height="237pt"
 viewBox="0.00 0.00 264.00 237.00" xmlns="http://www.w3.org/2000/svg" xmlns:xlink="http://www.w3.org/1999/xlink">
<g id="graph0" class="graph" transform="scale(1 1) rotate(0) translate(4 233)">
<title>game.logic.EventQueue.EventQueue</title>
<polygon fill="white" stroke="transparent" points="-4,4 -4,-233 260,-233 260,4 -4,4"/>
<!-- Node1 -->
<g id="node1" class="node">
<title>Node1</title>
<g id="a_node1"><a xlink:title=" ">
<polygon fill="#bfbfbf" stroke="black" points="14,-0.5 14,-101.5 178,-101.5 178,-0.5 14,-0.5"/>
<text text-anchor="start" x="22" y="-89.5" font-family="Helvetica,sans-Serif" font-size="10.00">game.logic.EventQueue.Event</text>
<text text-anchor="middle" x="96" y="-78.5" font-family="Helvetica,sans-Serif" font-size="10.00">Queue</text>
<polyline fill="none" stroke="black" points="14,-71.5 178,-71.5 "/>
<text text-anchor="middle" x="96" y="-59.5" font-family="Helvetica,sans-Serif" font-size="10.00"> </text>
<polyline fill="none" stroke="black" points="14,-52.5 178,-52.5 "/>
<text text-anchor="start" x="22" y="-40.5" font-family="Helvetica,sans-Serif" font-size="10.00">+ EventQueue()</text>
<text text-anchor="start" x="22" y="-29.5" font-family="Helvetica,sans-Serif" font-size="10.00">+ Enqueue()</text>
<text text-anchor="start" x="22" y="-18.5" font-family="Helvetica,sans-Serif" font-size="10.00">+ HasEvent()</text>
<text text-anchor="start" x="22" y="-7.5" font-family="Helvetica,sans-Serif" font-size="10.00">+ Dequeue()</text>
</a>
</g>
</g>
<!-- Node2 -->
<g id="node2" class="node">
<title>Node2</title>
<g id="a_node2"><a xlink:href="$interfacegame_1_1service_1_1IService.html" xlink:title=" ">
<polygon fill="white" stroke="black" points="0,-160.5 0,-217.5 56,-217.5 56,-160.5 0,-160.5"/>
<text text-anchor="middle" x="28" y="-205.5" font-family="Helvetica,sans-Serif" font-size="10.00">IService</text>
<polyline fill="none" stroke="black" points="0,-198.5 56,-198.5 "/>
<text text-anchor="middle" x="28" y="-186.5" font-family="Helvetica,sans-Serif" font-size="10.00"> </text>
<polyline fill="none" stroke="black" points="0,-179.5 56,-179.5 "/>
<text text-anchor="middle" x="28" y="-167.5" font-family="Helvetica,sans-Serif" font-size="10.00"> </text>
</a>
</g>
</g>
<!-- Node2&#45;&gt;Node1 -->
<g id="edge1" class="edge">
<title>Node2&#45;&gt;Node1</title>
<path fill="none" stroke="midnightblue" d="M46.32,-151.37C53.94,-136.12 62.91,-118.18 71.12,-101.76"/>
<polygon fill="none" stroke="midnightblue" points="43.1,-149.97 41.76,-160.48 49.36,-153.1 43.1,-149.97"/>
</g>
<!-- Node3 -->
<g id="node3" class="node">
<title>Node3</title>
<g id="a_node3"><a xlink:title=" ">
<polygon fill="white" stroke="black" points="74,-149.5 74,-228.5 256,-228.5 256,-149.5 74,-149.5"/>
<text text-anchor="start" x="82" y="-216.5" font-family="Helvetica,sans-Serif" font-size="10.00">Dictionary&lt; EventId,</text>
<text text-anchor="start" x="82" y="-205.5" font-family="Helvetica,sans-Serif" font-size="10.00"> Queue&lt; game.logic.EventQueue.</text>
<text text-anchor="middle" x="165" y="-194.5" font-family="Helvetica,sans-Serif" font-size="10.00">IEvent &gt; &gt;</text>
<polyline fill="none" stroke="black" points="74,-187.5 256,-187.5 "/>
<text text-anchor="middle" x="165" y="-175.5" font-family="Helvetica,sans-Serif" font-size="10.00"> </text>
<polyline fill="none" stroke="black" points="74,-168.5 256,-168.5 "/>
<text text-anchor="middle" x="165" y="-156.5" font-family="Helvetica,sans-Serif" font-size="10.00"> </text>
</a>
</g>
</g>
<!-- Node3&#45;&gt;Node1 -->
<g id="edge2" class="edge">
<title>Node3&#45;&gt;Node1</title>
<path fill="none" stroke="#404040" d="M145.41,-149.39C139.62,-137.97 133.13,-125.18 126.81,-112.73"/>
<polygon fill="none" stroke="#404040" points="126.75,-112.61 120.47,-109.07 121.32,-101.91 127.6,-105.45 126.75,-112.61"/>
<text text-anchor="middle" x="158" y="-123" font-family="Helvetica,sans-Serif" font-size="10.00"> &#45;_queues</text>
</g>
</g>
</svg>
