<?xml version="1.0" encoding="UTF-8" standalone="no"?>
<!DOCTYPE svg PUBLIC "-//W3C//DTD SVG 1.1//EN"
 "http://www.w3.org/Graphics/SVG/1.1/DTD/svg11.dtd">
<!-- Generated by graphviz version 2.43.0 (0)
 -->
<!-- Title: game.logic.tilespawner.ISpawnable Pages: 1 -->
<svg width="1268pt" height="160pt"
 viewBox="0.00 0.00 1268.00 160.00" xmlns="http://www.w3.org/2000/svg" xmlns:xlink="http://www.w3.org/1999/xlink">
<g id="graph0" class="graph" transform="scale(1 1) rotate(0) translate(4 156)">
<title>game.logic.tilespawner.ISpawnable</title>
<polygon fill="white" stroke="transparent" points="-4,4 -4,-156 1264,-156 1264,4 -4,4"/>
<!-- Node1 -->
<g id="node1" class="node">
<title>Node1</title>
<g id="a_node1"><a xlink:title=" ">
<polygon fill="#bfbfbf" stroke="black" points="531.5,-94.5 531.5,-151.5 720.5,-151.5 720.5,-94.5 531.5,-94.5"/>
<text text-anchor="middle" x="626" y="-139.5" font-family="Helvetica,sans-Serif" font-size="10.00">game.logic.tilespawner.ISpawnable</text>
<polyline fill="none" stroke="black" points="531.5,-132.5 720.5,-132.5 "/>
<text text-anchor="middle" x="626" y="-120.5" font-family="Helvetica,sans-Serif" font-size="10.00"> </text>
<polyline fill="none" stroke="black" points="531.5,-113.5 720.5,-113.5 "/>
<text text-anchor="start" x="539.5" y="-101.5" font-family="Helvetica,sans-Serif" font-size="10.00">+ Spawn()</text>
</a>
</g>
</g>
<!-- Node2 -->
<g id="node2" class="node">
<title>Node2</title>
<g id="a_node2"><a xlink:href="$classgame_1_1logic_1_1tilespawner_1_1IPiece.html" xlink:title=" ">
<polygon fill="white" stroke="black" points="0,-0.5 0,-57.5 162,-57.5 162,-0.5 0,-0.5"/>
<text text-anchor="middle" x="81" y="-45.5" font-family="Helvetica,sans-Serif" font-size="10.00">game.logic.tilespawner.IPiece</text>
<polyline fill="none" stroke="black" points="0,-38.5 162,-38.5 "/>
<text text-anchor="middle" x="81" y="-26.5" font-family="Helvetica,sans-Serif" font-size="10.00"> </text>
<polyline fill="none" stroke="black" points="0,-19.5 162,-19.5 "/>
<text text-anchor="start" x="8" y="-7.5" font-family="Helvetica,sans-Serif" font-size="10.00">+ Spawn()</text>
</a>
</g>
</g>
<!-- Node1&#45;&gt;Node2 -->
<g id="edge1" class="edge">
<title>Node1&#45;&gt;Node2</title>
<path fill="none" stroke="midnightblue" d="M521.13,-112.12C428.34,-102.23 289.66,-84.62 171,-58 168.13,-57.36 165.21,-56.66 162.28,-55.93"/>
<polygon fill="none" stroke="midnightblue" points="520.77,-115.6 531.08,-113.17 521.51,-108.64 520.77,-115.6"/>
</g>
<!-- Node3 -->
<g id="node3" class="node">
<title>Node3</title>
<g id="a_node3"><a xlink:href="$classgame_1_1logic_1_1tilespawner_1_1JPiece.html" xlink:title=" ">
<polygon fill="white" stroke="black" points="180,-0.5 180,-57.5 342,-57.5 342,-0.5 180,-0.5"/>
<text text-anchor="middle" x="261" y="-45.5" font-family="Helvetica,sans-Serif" font-size="10.00">game.logic.tilespawner.JPiece</text>
<polyline fill="none" stroke="black" points="180,-38.5 342,-38.5 "/>
<text text-anchor="middle" x="261" y="-26.5" font-family="Helvetica,sans-Serif" font-size="10.00"> </text>
<polyline fill="none" stroke="black" points="180,-19.5 342,-19.5 "/>
<text text-anchor="start" x="188" y="-7.5" font-family="Helvetica,sans-Serif" font-size="10.00">+ Spawn()</text>
</a>
</g>
</g>
<!-- Node1&#45;&gt;Node3 -->
<g id="edge2" class="edge">
<title>Node1&#45;&gt;Node3</title>
<path fill="none" stroke="midnightblue" d="M521.57,-99.58C470,-88.03 407,-73.2 351,-58 348.16,-57.23 345.27,-56.43 342.36,-55.6"/>
<polygon fill="none" stroke="midnightblue" points="520.87,-103.01 531.39,-101.77 522.39,-96.18 520.87,-103.01"/>
</g>
<!-- Node4 -->
<g id="node4" class="node">
<title>Node4</title>
<g id="a_node4"><a xlink:href="$classgame_1_1logic_1_1tilespawner_1_1LPiece.html" xlink:title=" ">
<polygon fill="white" stroke="black" points="360,-0.5 360,-57.5 524,-57.5 524,-0.5 360,-0.5"/>
<text text-anchor="middle" x="442" y="-45.5" font-family="Helvetica,sans-Serif" font-size="10.00">game.logic.tilespawner.LPiece</text>
<polyline fill="none" stroke="black" points="360,-38.5 524,-38.5 "/>
<text text-anchor="middle" x="442" y="-26.5" font-family="Helvetica,sans-Serif" font-size="10.00"> </text>
<polyline fill="none" stroke="black" points="360,-19.5 524,-19.5 "/>
<text text-anchor="start" x="368" y="-7.5" font-family="Helvetica,sans-Serif" font-size="10.00">+ Spawn()</text>
</a>
</g>
</g>
<!-- Node1&#45;&gt;Node4 -->
<g id="edge3" class="edge">
<title>Node1&#45;&gt;Node4</title>
<path fill="none" stroke="midnightblue" d="M561.62,-89.81C540.59,-79.3 517.45,-67.72 497.17,-57.58"/>
<polygon fill="none" stroke="midnightblue" points="560.28,-93.06 570.79,-94.4 563.41,-86.79 560.28,-93.06"/>
</g>
<!-- Node5 -->
<g id="node5" class="node">
<title>Node5</title>
<g id="a_node5"><a xlink:href="$classgame_1_1logic_1_1tilespawner_1_1OPiece.html" xlink:title=" ">
<polygon fill="white" stroke="black" points="542.5,-0.5 542.5,-57.5 709.5,-57.5 709.5,-0.5 542.5,-0.5"/>
<text text-anchor="middle" x="626" y="-45.5" font-family="Helvetica,sans-Serif" font-size="10.00">game.logic.tilespawner.OPiece</text>
<polyline fill="none" stroke="black" points="542.5,-38.5 709.5,-38.5 "/>
<text text-anchor="middle" x="626" y="-26.5" font-family="Helvetica,sans-Serif" font-size="10.00"> </text>
<polyline fill="none" stroke="black" points="542.5,-19.5 709.5,-19.5 "/>
<text text-anchor="start" x="550.5" y="-7.5" font-family="Helvetica,sans-Serif" font-size="10.00">+ Spawn()</text>
</a>
</g>
</g>
<!-- Node1&#45;&gt;Node5 -->
<g id="edge4" class="edge">
<title>Node1&#45;&gt;Node5</title>
<path fill="none" stroke="midnightblue" d="M626,-84.21C626,-75.29 626,-65.95 626,-57.58"/>
<polygon fill="none" stroke="midnightblue" points="622.5,-84.4 626,-94.4 629.5,-84.4 622.5,-84.4"/>
</g>
<!-- Node6 -->
<g id="node6" class="node">
<title>Node6</title>
<g id="a_node6"><a xlink:href="$classgame_1_1logic_1_1tilespawner_1_1SPiece.html" xlink:title=" ">
<polygon fill="white" stroke="black" points="727.5,-0.5 727.5,-57.5 892.5,-57.5 892.5,-0.5 727.5,-0.5"/>
<text text-anchor="middle" x="810" y="-45.5" font-family="Helvetica,sans-Serif" font-size="10.00">game.logic.tilespawner.SPiece</text>
<polyline fill="none" stroke="black" points="727.5,-38.5 892.5,-38.5 "/>
<text text-anchor="middle" x="810" y="-26.5" font-family="Helvetica,sans-Serif" font-size="10.00"> </text>
<polyline fill="none" stroke="black" points="727.5,-19.5 892.5,-19.5 "/>
<text text-anchor="start" x="735.5" y="-7.5" font-family="Helvetica,sans-Serif" font-size="10.00">+ Spawn()</text>
</a>
</g>
</g>
<!-- Node1&#45;&gt;Node6 -->
<g id="edge5" class="edge">
<title>Node1&#45;&gt;Node6</title>
<path fill="none" stroke="midnightblue" d="M690.38,-89.81C711.41,-79.3 734.55,-67.72 754.83,-57.58"/>
<polygon fill="none" stroke="midnightblue" points="688.59,-86.79 681.21,-94.4 691.72,-93.06 688.59,-86.79"/>
</g>
<!-- Node7 -->
<g id="node7" class="node">
<title>Node7</title>
<g id="a_node7"><a xlink:href="$classgame_1_1logic_1_1tilespawner_1_1TPiece.html" xlink:title=" ">
<polygon fill="white" stroke="black" points="910.5,-0.5 910.5,-57.5 1075.5,-57.5 1075.5,-0.5 910.5,-0.5"/>
<text text-anchor="middle" x="993" y="-45.5" font-family="Helvetica,sans-Serif" font-size="10.00">game.logic.tilespawner.TPiece</text>
<polyline fill="none" stroke="black" points="910.5,-38.5 1075.5,-38.5 "/>
<text text-anchor="middle" x="993" y="-26.5" font-family="Helvetica,sans-Serif" font-size="10.00"> </text>
<polyline fill="none" stroke="black" points="910.5,-19.5 1075.5,-19.5 "/>
<text text-anchor="start" x="918.5" y="-7.5" font-family="Helvetica,sans-Serif" font-size="10.00">+ Spawn()</text>
</a>
</g>
</g>
<!-- Node1&#45;&gt;Node7 -->
<g id="edge6" class="edge">
<title>Node1&#45;&gt;Node7</title>
<path fill="none" stroke="midnightblue" d="M730.49,-99.6C782.29,-88.03 845.67,-73.18 902,-58 904.71,-57.27 907.47,-56.51 910.25,-55.73"/>
<polygon fill="none" stroke="midnightblue" points="729.62,-96.21 720.62,-101.79 731.14,-103.04 729.62,-96.21"/>
</g>
<!-- Node8 -->
<g id="node8" class="node">
<title>Node8</title>
<g id="a_node8"><a xlink:href="$classgame_1_1logic_1_1tilespawner_1_1ZPiece.html" xlink:title=" ">
<polygon fill="white" stroke="black" points="1094,-0.5 1094,-57.5 1260,-57.5 1260,-0.5 1094,-0.5"/>
<text text-anchor="middle" x="1177" y="-45.5" font-family="Helvetica,sans-Serif" font-size="10.00">game.logic.tilespawner.ZPiece</text>
<polyline fill="none" stroke="black" points="1094,-38.5 1260,-38.5 "/>
<text text-anchor="middle" x="1177" y="-26.5" font-family="Helvetica,sans-Serif" font-size="10.00"> </text>
<polyline fill="none" stroke="black" points="1094,-19.5 1260,-19.5 "/>
<text text-anchor="start" x="1102" y="-7.5" font-family="Helvetica,sans-Serif" font-size="10.00">+ Spawn()</text>
</a>
</g>
</g>
<!-- Node1&#45;&gt;Node8 -->
<g id="edge7" class="edge">
<title>Node1&#45;&gt;Node8</title>
<path fill="none" stroke="midnightblue" d="M730.87,-112.11C824.45,-102.17 964.84,-84.49 1085,-58 1087.93,-57.35 1090.91,-56.66 1093.91,-55.93"/>
<polygon fill="none" stroke="midnightblue" points="730.41,-108.64 720.83,-113.17 731.14,-115.6 730.41,-108.64"/>
</g>
</g>
</svg>
